<?xml version="1.0" encoding="utf-8" standalone="no"?>
<!DOCTYPE svg PUBLIC "-//W3C//DTD SVG 1.1//EN"
  "http://www.w3.org/Graphics/SVG/1.1/DTD/svg11.dtd">
<svg xmlns:xlink="http://www.w3.org/1999/xlink" width="418.138261pt" height="319.5445pt" viewBox="0 0 418.138261 319.5445" xmlns="http://www.w3.org/2000/svg" version="1.1">
 <metadata>
  <rdf:RDF xmlns:dc="http://purl.org/dc/elements/1.1/" xmlns:cc="http://creativecommons.org/ns#" xmlns:rdf="http://www.w3.org/1999/02/22-rdf-syntax-ns#">
   <cc:Work>
    <dc:type rdf:resource="http://purl.org/dc/dcmitype/StillImage"/>
    <dc:date>2025-12-01T12:12:07.182667</dc:date>
    <dc:format>image/svg+xml</dc:format>
    <dc:creator>
     <cc:Agent>
      <dc:title>Matplotlib v3.9.2, https://matplotlib.org/</dc:title>
     </cc:Agent>
    </dc:creator>
   </cc:Work>
  </rdf:RDF>
 </metadata>
 <defs>
  <style type="text/css">*{stroke-linejoin: round; stroke-linecap: butt}</style>
 </defs>
 <g id="figure_1">
  <g id="patch_1">
   <path d="M 0 319.5445 
L 418.138261 319.5445 
L 418.138261 0 
L 0 0 
z
" style="fill: #ffffff"/>
  </g>
  <g id="axes_1">
   <g id="patch_2">
    <path d="M 47.7 273.312 
L 404.82 273.312 
L 404.82 7.2 
L 47.7 7.2 
z
" style="fill: #ffffff"/>
   </g>
   <g id="matplotlib.axis_1">
    <g id="xtick_1">
     <g id="line2d_1">
      <defs>
       <path id="ma27907479d" d="M 0 0 
L 0 3.5 
" style="stroke: #000000; stroke-width: 0.8"/>
      </defs>
      <g>
       <use xlink:href="#ma27907479d" x="90.39913" y="273.312" style="stroke: #000000; stroke-width: 0.8"/>
      </g>
     </g>
     <g id="text_1">
      <!-- 1.6 -->
      <g transform="translate(80.39913 291.422) scale(0.16 -0.16)">
       <defs>
        <path id="TimesNewRomanPSMT-31" d="M 750 3822 
L 1781 4325 
L 1884 4325 
L 1884 747 
Q 1884 391 1914 303 
Q 1944 216 2037 169 
Q 2131 122 2419 116 
L 2419 0 
L 825 0 
L 825 116 
Q 1125 122 1212 167 
Q 1300 213 1334 289 
Q 1369 366 1369 747 
L 1369 3034 
Q 1369 3497 1338 3628 
Q 1316 3728 1258 3775 
Q 1200 3822 1119 3822 
Q 1003 3822 797 3725 
L 750 3822 
z
" transform="scale(0.015625)"/>
        <path id="TimesNewRomanPSMT-2e" d="M 800 606 
Q 947 606 1047 504 
Q 1147 403 1147 259 
Q 1147 116 1045 14 
Q 944 -88 800 -88 
Q 656 -88 554 14 
Q 453 116 453 259 
Q 453 406 554 506 
Q 656 606 800 606 
z
" transform="scale(0.015625)"/>
        <path id="TimesNewRomanPSMT-36" d="M 2869 4325 
L 2869 4209 
Q 2456 4169 2195 4045 
Q 1934 3922 1679 3669 
Q 1425 3416 1258 3105 
Q 1091 2794 978 2366 
Q 1428 2675 1881 2675 
Q 2316 2675 2634 2325 
Q 2953 1975 2953 1425 
Q 2953 894 2631 456 
Q 2244 -75 1606 -75 
Q 1172 -75 869 213 
Q 275 772 275 1663 
Q 275 2231 503 2743 
Q 731 3256 1154 3653 
Q 1578 4050 1965 4187 
Q 2353 4325 2688 4325 
L 2869 4325 
z
M 925 2138 
Q 869 1716 869 1456 
Q 869 1156 980 804 
Q 1091 453 1309 247 
Q 1469 100 1697 100 
Q 1969 100 2183 356 
Q 2397 613 2397 1088 
Q 2397 1622 2184 2012 
Q 1972 2403 1581 2403 
Q 1463 2403 1327 2353 
Q 1191 2303 925 2138 
z
" transform="scale(0.015625)"/>
       </defs>
       <use xlink:href="#TimesNewRomanPSMT-31"/>
       <use xlink:href="#TimesNewRomanPSMT-2e" x="50"/>
       <use xlink:href="#TimesNewRomanPSMT-36" x="75"/>
      </g>
     </g>
    </g>
    <g id="xtick_2">
     <g id="line2d_2">
      <g>
       <use xlink:href="#ma27907479d" x="168.033913" y="273.312" style="stroke: #000000; stroke-width: 0.8"/>
      </g>
     </g>
     <g id="text_2">
      <!-- 1.8 -->
      <g transform="translate(158.033913 291.422) scale(0.16 -0.16)">
       <defs>
        <path id="TimesNewRomanPSMT-38" d="M 1228 2134 
Q 725 2547 579 2797 
Q 434 3047 434 3316 
Q 434 3728 753 4026 
Q 1072 4325 1600 4325 
Q 2113 4325 2425 4047 
Q 2738 3769 2738 3413 
Q 2738 3175 2569 2928 
Q 2400 2681 1866 2347 
Q 2416 1922 2594 1678 
Q 2831 1359 2831 1006 
Q 2831 559 2490 242 
Q 2150 -75 1597 -75 
Q 994 -75 656 303 
Q 388 606 388 966 
Q 388 1247 577 1523 
Q 766 1800 1228 2134 
z
M 1719 2469 
Q 2094 2806 2194 3001 
Q 2294 3197 2294 3444 
Q 2294 3772 2109 3958 
Q 1925 4144 1606 4144 
Q 1288 4144 1088 3959 
Q 888 3775 888 3528 
Q 888 3366 970 3203 
Q 1053 3041 1206 2894 
L 1719 2469 
z
M 1375 2016 
Q 1116 1797 991 1539 
Q 866 1281 866 981 
Q 866 578 1086 336 
Q 1306 94 1647 94 
Q 1984 94 2187 284 
Q 2391 475 2391 747 
Q 2391 972 2272 1150 
Q 2050 1481 1375 2016 
z
" transform="scale(0.015625)"/>
       </defs>
       <use xlink:href="#TimesNewRomanPSMT-31"/>
       <use xlink:href="#TimesNewRomanPSMT-2e" x="50"/>
       <use xlink:href="#TimesNewRomanPSMT-38" x="75"/>
      </g>
     </g>
    </g>
    <g id="xtick_3">
     <g id="line2d_3">
      <g>
       <use xlink:href="#ma27907479d" x="245.668696" y="273.312" style="stroke: #000000; stroke-width: 0.8"/>
      </g>
     </g>
     <g id="text_3">
      <!-- 2.0 -->
      <g transform="translate(235.668696 291.422) scale(0.16 -0.16)">
       <defs>
        <path id="TimesNewRomanPSMT-32" d="M 2934 816 
L 2638 0 
L 138 0 
L 138 116 
Q 1241 1122 1691 1759 
Q 2141 2397 2141 2925 
Q 2141 3328 1894 3587 
Q 1647 3847 1303 3847 
Q 991 3847 742 3664 
Q 494 3481 375 3128 
L 259 3128 
Q 338 3706 661 4015 
Q 984 4325 1469 4325 
Q 1984 4325 2329 3994 
Q 2675 3663 2675 3213 
Q 2675 2891 2525 2569 
Q 2294 2063 1775 1497 
Q 997 647 803 472 
L 1909 472 
Q 2247 472 2383 497 
Q 2519 522 2628 598 
Q 2738 675 2819 816 
L 2934 816 
z
" transform="scale(0.015625)"/>
        <path id="TimesNewRomanPSMT-30" d="M 231 2094 
Q 231 2819 450 3342 
Q 669 3866 1031 4122 
Q 1313 4325 1613 4325 
Q 2100 4325 2488 3828 
Q 2972 3213 2972 2159 
Q 2972 1422 2759 906 
Q 2547 391 2217 158 
Q 1888 -75 1581 -75 
Q 975 -75 572 641 
Q 231 1244 231 2094 
z
M 844 2016 
Q 844 1141 1059 588 
Q 1238 122 1591 122 
Q 1759 122 1940 273 
Q 2122 425 2216 781 
Q 2359 1319 2359 2297 
Q 2359 3022 2209 3506 
Q 2097 3866 1919 4016 
Q 1791 4119 1609 4119 
Q 1397 4119 1231 3928 
Q 1006 3669 925 3112 
Q 844 2556 844 2016 
z
" transform="scale(0.015625)"/>
       </defs>
       <use xlink:href="#TimesNewRomanPSMT-32"/>
       <use xlink:href="#TimesNewRomanPSMT-2e" x="50"/>
       <use xlink:href="#TimesNewRomanPSMT-30" x="75"/>
      </g>
     </g>
    </g>
    <g id="xtick_4">
     <g id="line2d_4">
      <g>
       <use xlink:href="#ma27907479d" x="323.303478" y="273.312" style="stroke: #000000; stroke-width: 0.8"/>
      </g>
     </g>
     <g id="text_4">
      <!-- 2.2 -->
      <g transform="translate(313.303478 291.422) scale(0.16 -0.16)">
       <use xlink:href="#TimesNewRomanPSMT-32"/>
       <use xlink:href="#TimesNewRomanPSMT-2e" x="50"/>
       <use xlink:href="#TimesNewRomanPSMT-32" x="75"/>
      </g>
     </g>
    </g>
    <g id="xtick_5">
     <g id="line2d_5">
      <g>
       <use xlink:href="#ma27907479d" x="400.938261" y="273.312" style="stroke: #000000; stroke-width: 0.8"/>
      </g>
     </g>
     <g id="text_5">
      <!-- 2.4 -->
      <g transform="translate(390.938261 291.422) scale(0.16 -0.16)">
       <defs>
        <path id="TimesNewRomanPSMT-34" d="M 2978 1563 
L 2978 1119 
L 2409 1119 
L 2409 0 
L 1894 0 
L 1894 1119 
L 100 1119 
L 100 1519 
L 2066 4325 
L 2409 4325 
L 2409 1563 
L 2978 1563 
z
M 1894 1563 
L 1894 3666 
L 406 1563 
L 1894 1563 
z
" transform="scale(0.015625)"/>
       </defs>
       <use xlink:href="#TimesNewRomanPSMT-32"/>
       <use xlink:href="#TimesNewRomanPSMT-2e" x="50"/>
       <use xlink:href="#TimesNewRomanPSMT-34" x="75"/>
      </g>
     </g>
    </g>
    <g id="text_6">
     <!-- CF -->
     <g transform="translate(218.26 310.282) scale(0.16 -0.16)">
      <defs>
       <path id="SimSun-43" d="M 1725 50 
Q 1025 50 612 575 
Q 200 1100 200 2225 
Q 200 3175 637 3800 
Q 1075 4425 1825 4425 
Q 2000 4425 2175 4375 
Q 2350 4300 2475 4300 
Q 2575 4300 2637 4325 
Q 2700 4350 2750 4425 
L 2975 3325 
L 2825 3275 
Q 2675 3750 2425 4000 
Q 2175 4250 1775 4250 
Q 1250 4250 962 3675 
Q 675 3100 675 2250 
Q 675 1325 925 800 
Q 1175 275 1750 275 
Q 2150 275 2437 562 
Q 2725 850 2825 1325 
L 2975 1250 
Q 2850 725 2512 387 
Q 2175 50 1725 50 
z
" transform="scale(0.015625)"/>
       <path id="SimSun-46" d="M 1350 250 
L 1350 100 
L 150 100 
L 150 250 
L 325 250 
Q 450 250 500 300 
Q 550 350 550 450 
L 550 4025 
Q 550 4125 500 4175 
Q 450 4225 325 4225 
L 175 4225 
L 175 4375 
L 2775 4375 
L 3075 3475 
L 2950 3425 
Q 2750 3825 2475 4025 
Q 2200 4225 1875 4225 
L 1175 4225 
Q 1075 4225 1012 4175 
Q 950 4125 950 4025 
L 950 2425 
L 1775 2425 
Q 2025 2425 2137 2537 
Q 2250 2650 2250 2900 
L 2250 3025 
L 2400 3025 
L 2400 1575 
L 2250 1575 
L 2250 1675 
Q 2250 1975 2137 2125 
Q 2025 2275 1775 2275 
L 950 2275 
L 950 450 
Q 950 350 1012 300 
Q 1075 250 1175 250 
L 1350 250 
z
" transform="scale(0.015625)"/>
      </defs>
      <use xlink:href="#SimSun-43"/>
      <use xlink:href="#SimSun-46" x="50"/>
     </g>
    </g>
   </g>
   <g id="matplotlib.axis_2">
    <g id="ytick_1">
     <g id="line2d_6">
      <defs>
       <path id="m6ed90e0fb2" d="M 0 0 
L -3.5 0 
" style="stroke: #000000; stroke-width: 0.8"/>
      </defs>
      <g>
       <use xlink:href="#m6ed90e0fb2" x="47.7" y="260.225877" style="stroke: #000000; stroke-width: 0.8"/>
      </g>
     </g>
     <g id="text_7">
      <!-- 10 -->
      <g transform="translate(24.7 265.780877) scale(0.16 -0.16)">
       <use xlink:href="#TimesNewRomanPSMT-31"/>
       <use xlink:href="#TimesNewRomanPSMT-30" x="50"/>
      </g>
     </g>
    </g>
    <g id="ytick_2">
     <g id="line2d_7">
      <g>
       <use xlink:href="#m6ed90e0fb2" x="47.7" y="227.221784" style="stroke: #000000; stroke-width: 0.8"/>
      </g>
     </g>
     <g id="text_8">
      <!-- 20 -->
      <g transform="translate(24.7 232.776784) scale(0.16 -0.16)">
       <use xlink:href="#TimesNewRomanPSMT-32"/>
       <use xlink:href="#TimesNewRomanPSMT-30" x="50"/>
      </g>
     </g>
    </g>
    <g id="ytick_3">
     <g id="line2d_8">
      <g>
       <use xlink:href="#m6ed90e0fb2" x="47.7" y="194.217692" style="stroke: #000000; stroke-width: 0.8"/>
      </g>
     </g>
     <g id="text_9">
      <!-- 30 -->
      <g transform="translate(24.7 199.772692) scale(0.16 -0.16)">
       <defs>
        <path id="TimesNewRomanPSMT-33" d="M 325 3431 
Q 506 3859 782 4092 
Q 1059 4325 1472 4325 
Q 1981 4325 2253 3994 
Q 2459 3747 2459 3466 
Q 2459 3003 1878 2509 
Q 2269 2356 2469 2072 
Q 2669 1788 2669 1403 
Q 2669 853 2319 450 
Q 1863 -75 997 -75 
Q 569 -75 414 31 
Q 259 138 259 259 
Q 259 350 332 419 
Q 406 488 509 488 
Q 588 488 669 463 
Q 722 447 909 348 
Q 1097 250 1169 231 
Q 1284 197 1416 197 
Q 1734 197 1970 444 
Q 2206 691 2206 1028 
Q 2206 1275 2097 1509 
Q 2016 1684 1919 1775 
Q 1784 1900 1550 2001 
Q 1316 2103 1072 2103 
L 972 2103 
L 972 2197 
Q 1219 2228 1467 2375 
Q 1716 2522 1828 2728 
Q 1941 2934 1941 3181 
Q 1941 3503 1739 3701 
Q 1538 3900 1238 3900 
Q 753 3900 428 3381 
L 325 3431 
z
" transform="scale(0.015625)"/>
       </defs>
       <use xlink:href="#TimesNewRomanPSMT-33"/>
       <use xlink:href="#TimesNewRomanPSMT-30" x="50"/>
      </g>
     </g>
    </g>
    <g id="ytick_4">
     <g id="line2d_9">
      <g>
       <use xlink:href="#m6ed90e0fb2" x="47.7" y="161.213599" style="stroke: #000000; stroke-width: 0.8"/>
      </g>
     </g>
     <g id="text_10">
      <!-- 40 -->
      <g transform="translate(24.7 166.768599) scale(0.16 -0.16)">
       <use xlink:href="#TimesNewRomanPSMT-34"/>
       <use xlink:href="#TimesNewRomanPSMT-30" x="50"/>
      </g>
     </g>
    </g>
    <g id="ytick_5">
     <g id="line2d_10">
      <g>
       <use xlink:href="#m6ed90e0fb2" x="47.7" y="128.209506" style="stroke: #000000; stroke-width: 0.8"/>
      </g>
     </g>
     <g id="text_11">
      <!-- 50 -->
      <g transform="translate(24.7 133.764506) scale(0.16 -0.16)">
       <defs>
        <path id="TimesNewRomanPSMT-35" d="M 2778 4238 
L 2534 3706 
L 1259 3706 
L 981 3138 
Q 1809 3016 2294 2522 
Q 2709 2097 2709 1522 
Q 2709 1188 2573 903 
Q 2438 619 2231 419 
Q 2025 219 1772 97 
Q 1413 -75 1034 -75 
Q 653 -75 479 54 
Q 306 184 306 341 
Q 306 428 378 495 
Q 450 563 559 563 
Q 641 563 702 538 
Q 763 513 909 409 
Q 1144 247 1384 247 
Q 1750 247 2026 523 
Q 2303 800 2303 1197 
Q 2303 1581 2056 1914 
Q 1809 2247 1375 2428 
Q 1034 2569 447 2591 
L 1259 4238 
L 2778 4238 
z
" transform="scale(0.015625)"/>
       </defs>
       <use xlink:href="#TimesNewRomanPSMT-35"/>
       <use xlink:href="#TimesNewRomanPSMT-30" x="50"/>
      </g>
     </g>
    </g>
    <g id="ytick_6">
     <g id="line2d_11">
      <g>
       <use xlink:href="#m6ed90e0fb2" x="47.7" y="95.205413" style="stroke: #000000; stroke-width: 0.8"/>
      </g>
     </g>
     <g id="text_12">
      <!-- 60 -->
      <g transform="translate(24.7 100.760413) scale(0.16 -0.16)">
       <use xlink:href="#TimesNewRomanPSMT-36"/>
       <use xlink:href="#TimesNewRomanPSMT-30" x="50"/>
      </g>
     </g>
    </g>
    <g id="ytick_7">
     <g id="line2d_12">
      <g>
       <use xlink:href="#m6ed90e0fb2" x="47.7" y="62.201321" style="stroke: #000000; stroke-width: 0.8"/>
      </g>
     </g>
     <g id="text_13">
      <!-- 70 -->
      <g transform="translate(24.7 67.756321) scale(0.16 -0.16)">
       <defs>
        <path id="TimesNewRomanPSMT-37" d="M 644 4238 
L 2916 4238 
L 2916 4119 
L 1503 -88 
L 1153 -88 
L 2419 3728 
L 1253 3728 
Q 900 3728 750 3644 
Q 488 3500 328 3200 
L 238 3234 
L 644 4238 
z
" transform="scale(0.015625)"/>
       </defs>
       <use xlink:href="#TimesNewRomanPSMT-37"/>
       <use xlink:href="#TimesNewRomanPSMT-30" x="50"/>
      </g>
     </g>
    </g>
    <g id="ytick_8">
     <g id="line2d_13">
      <g>
       <use xlink:href="#m6ed90e0fb2" x="47.7" y="29.197228" style="stroke: #000000; stroke-width: 0.8"/>
      </g>
     </g>
     <g id="text_14">
      <!-- 80 -->
      <g transform="translate(24.7 34.752228) scale(0.16 -0.16)">
       <use xlink:href="#TimesNewRomanPSMT-38"/>
       <use xlink:href="#TimesNewRomanPSMT-30" x="50"/>
      </g>
     </g>
    </g>
    <g id="text_15">
     <!-- Task Schedulability Ratio -->
     <g transform="translate(18.6375 240.256) rotate(-90) scale(0.16 -0.16)">
      <defs>
       <path id="SimSun-54" d="M 2225 100 
L 925 100 
L 925 250 
L 1150 250 
Q 1275 250 1325 300 
Q 1375 350 1375 450 
L 1375 3950 
Q 1375 4150 1350 4175 
Q 1325 4200 1150 4200 
Q 800 4200 662 4075 
Q 525 3950 325 3400 
L 175 3425 
L 400 4375 
L 2775 4375 
L 2975 3425 
L 2850 3400 
Q 2650 3925 2537 4062 
Q 2425 4200 2075 4200 
Q 1825 4200 1800 4175 
Q 1775 4150 1775 3925 
L 1775 450 
Q 1775 350 1837 300 
Q 1900 250 2000 250 
L 2225 250 
L 2225 100 
z
" transform="scale(0.015625)"/>
       <path id="SimSun-61" d="M 1225 75 
Q 775 75 525 287 
Q 275 500 275 775 
Q 275 1225 662 1512 
Q 1050 1800 2200 1925 
L 2200 2225 
Q 2200 2475 2087 2637 
Q 1975 2800 1575 2800 
Q 1150 2800 975 2662 
Q 800 2525 850 2375 
Q 875 2325 875 2275 
Q 875 2225 837 2150 
Q 800 2075 650 2075 
Q 550 2075 487 2137 
Q 425 2200 425 2325 
Q 425 2550 750 2750 
Q 1075 2950 1550 2950 
Q 2050 2950 2300 2762 
Q 2550 2575 2550 2225 
L 2550 575 
Q 2550 375 2587 337 
Q 2625 300 2725 300 
Q 2850 300 2900 412 
Q 2950 525 2950 725 
L 3075 725 
Q 3075 375 2950 237 
Q 2825 100 2625 100 
Q 2450 100 2350 175 
Q 2250 250 2200 425 
Q 1950 250 1737 162 
Q 1525 75 1225 75 
z
M 700 850 
Q 700 625 837 437 
Q 975 250 1275 250 
Q 1500 250 1725 337 
Q 1950 425 2200 600 
L 2200 1775 
Q 1350 1675 1025 1437 
Q 700 1200 700 850 
z
" transform="scale(0.015625)"/>
       <path id="SimSun-73" d="M 625 2175 
Q 625 2550 912 2750 
Q 1200 2950 1600 2950 
Q 1825 2950 2025 2900 
Q 2225 2825 2300 2825 
Q 2375 2825 2425 2850 
Q 2475 2875 2550 2950 
L 2650 2125 
L 2500 2100 
Q 2400 2425 2162 2612 
Q 1925 2800 1625 2800 
Q 1300 2800 1112 2675 
Q 925 2550 925 2325 
Q 925 2125 1012 2012 
Q 1100 1900 1325 1850 
Q 1500 1775 1775 1700 
Q 2025 1600 2250 1500 
Q 2450 1400 2587 1237 
Q 2725 1075 2725 875 
Q 2725 500 2462 287 
Q 2200 75 1700 75 
Q 1375 75 1225 150 
Q 1050 200 950 200 
Q 875 200 787 162 
Q 700 125 600 75 
L 525 1000 
L 675 1025 
Q 750 625 1000 425 
Q 1250 225 1700 225 
Q 2050 225 2237 350 
Q 2425 475 2425 725 
Q 2425 900 2325 1012 
Q 2225 1125 2125 1175 
Q 1875 1275 1575 1400 
Q 1275 1500 1050 1600 
Q 825 1700 725 1850 
Q 625 2000 625 2175 
z
" transform="scale(0.015625)"/>
       <path id="SimSun-6b" d="M 1675 1900 
L 2625 425 
Q 2700 325 2762 287 
Q 2825 250 2900 250 
L 3000 250 
L 3000 100 
L 1975 100 
L 1975 250 
L 2050 250 
Q 2175 250 2225 287 
Q 2275 325 2200 425 
L 1425 1650 
L 925 1125 
L 925 450 
Q 925 350 987 300 
Q 1050 250 1150 250 
L 1275 250 
L 1275 100 
L 225 100 
L 225 250 
L 350 250 
Q 475 250 525 300 
Q 575 350 575 450 
L 575 4025 
Q 575 4125 525 4175 
Q 475 4225 350 4225 
L 200 4225 
L 200 4375 
L 425 4375 
Q 575 4375 687 4425 
Q 800 4475 875 4575 
L 925 4575 
L 925 1400 
L 1975 2525 
Q 2025 2625 2012 2687 
Q 2000 2750 1900 2750 
L 1750 2750 
L 1750 2900 
L 2800 2900 
L 2800 2750 
L 2675 2750 
Q 2600 2750 2487 2712 
Q 2375 2675 2275 2575 
L 1675 1900 
z
M 2450 2750 
L 2450 2750 
z
M 2175 2750 
L 2175 2750 
z
M 2300 250 
L 2300 250 
z
M 2750 250 
L 2750 250 
z
" transform="scale(0.015625)"/>
       <path id="SimSun-20" d="M 0 0 
Q 0 0 0 0 
z
" transform="scale(0.015625)"/>
       <path id="SimSun-53" d="M 1500 2150 
Q 825 2450 575 2675 
Q 325 2900 325 3375 
Q 325 3750 637 4087 
Q 950 4425 1525 4425 
Q 1775 4425 2000 4350 
Q 2225 4250 2325 4250 
Q 2400 4250 2462 4287 
Q 2525 4325 2575 4425 
L 2675 3400 
L 2550 3350 
Q 2325 3875 2087 4062 
Q 1850 4250 1475 4250 
Q 1000 4250 825 3987 
Q 650 3725 650 3425 
Q 650 3150 812 2987 
Q 975 2825 1700 2500 
Q 2300 2250 2562 1937 
Q 2825 1625 2825 1200 
Q 2825 750 2512 400 
Q 2200 50 1600 50 
Q 1350 50 1150 150 
Q 925 225 800 225 
Q 725 225 650 175 
Q 575 125 475 50 
L 275 1275 
L 425 1325 
Q 600 700 912 462 
Q 1225 225 1625 225 
Q 2050 225 2262 475 
Q 2475 725 2475 1200 
Q 2475 1450 2237 1687 
Q 2000 1925 1500 2150 
z
" transform="scale(0.015625)"/>
       <path id="SimSun-63" d="M 2150 2225 
Q 2150 2300 2175 2325 
Q 2175 2350 2200 2425 
Q 2225 2525 2100 2662 
Q 1975 2800 1675 2800 
Q 1300 2800 1037 2437 
Q 775 2075 775 1475 
Q 775 925 1000 587 
Q 1225 250 1750 250 
Q 2100 250 2337 475 
Q 2575 700 2675 1000 
L 2800 950 
Q 2700 575 2425 312 
Q 2150 50 1675 50 
Q 1075 50 725 425 
Q 375 800 375 1500 
Q 375 2125 750 2537 
Q 1125 2950 1725 2950 
Q 2150 2950 2387 2725 
Q 2625 2500 2625 2275 
Q 2625 2125 2562 2062 
Q 2500 2000 2375 2000 
Q 2275 2000 2212 2062 
Q 2150 2125 2150 2225 
z
" transform="scale(0.015625)"/>
       <path id="SimSun-68" d="M 200 100 
L 200 250 
L 325 250 
Q 450 250 500 300 
Q 550 350 550 450 
L 550 4025 
Q 550 4125 500 4175 
Q 450 4225 325 4225 
L 175 4225 
L 175 4375 
L 450 4375 
Q 550 4375 650 4425 
Q 750 4475 850 4575 
L 900 4575 
L 900 2450 
Q 1125 2725 1362 2837 
Q 1600 2950 1875 2950 
Q 2250 2950 2450 2737 
Q 2650 2525 2650 2075 
L 2650 450 
Q 2650 350 2712 300 
Q 2775 250 2875 250 
L 3000 250 
L 3000 100 
L 1950 100 
L 1950 250 
L 2075 250 
Q 2200 250 2250 300 
Q 2300 350 2300 450 
L 2300 2025 
Q 2300 2450 2162 2587 
Q 2025 2725 1800 2725 
Q 1600 2725 1362 2600 
Q 1125 2475 900 2175 
L 900 450 
Q 900 350 962 300 
Q 1025 250 1125 250 
L 1250 250 
L 1250 100 
L 200 100 
z
" transform="scale(0.015625)"/>
       <path id="SimSun-65" d="M 2400 1650 
Q 2425 2200 2212 2487 
Q 2000 2775 1650 2775 
Q 1275 2775 1037 2475 
Q 800 2175 800 1650 
L 2400 1650 
z
M 800 1500 
Q 800 825 1062 537 
Q 1325 250 1750 250 
Q 2075 250 2300 437 
Q 2525 625 2625 900 
L 2750 850 
Q 2675 575 2412 312 
Q 2150 50 1700 50 
Q 1125 50 762 425 
Q 400 800 400 1500 
Q 400 2125 762 2537 
Q 1125 2950 1650 2950 
Q 2125 2950 2475 2625 
Q 2825 2300 2825 1500 
L 800 1500 
z
" transform="scale(0.015625)"/>
       <path id="SimSun-64" d="M 2300 2350 
Q 2175 2550 1975 2637 
Q 1775 2725 1575 2725 
Q 1200 2725 987 2375 
Q 775 2025 775 1450 
Q 775 850 975 562 
Q 1175 275 1550 275 
Q 1825 275 2012 450 
Q 2200 625 2300 975 
L 2300 2350 
z
M 1475 75 
Q 1025 75 700 437 
Q 375 800 375 1500 
Q 375 2150 725 2537 
Q 1075 2925 1550 2925 
Q 1750 2925 1962 2837 
Q 2175 2750 2300 2575 
L 2300 3925 
Q 2300 4075 2250 4150 
Q 2200 4225 2075 4225 
L 1875 4225 
L 1875 4375 
L 2150 4375 
Q 2275 4375 2400 4425 
Q 2525 4475 2650 4575 
L 2650 625 
Q 2650 500 2700 450 
Q 2750 400 2850 400 
L 3025 400 
L 3025 250 
L 2875 250 
Q 2775 250 2637 212 
Q 2500 175 2350 100 
L 2300 100 
L 2300 575 
Q 2175 350 1962 212 
Q 1750 75 1475 75 
z
" transform="scale(0.015625)"/>
       <path id="SimSun-75" d="M 1450 325 
Q 1750 325 1962 475 
Q 2175 625 2275 950 
L 2275 2525 
Q 2275 2625 2225 2687 
Q 2175 2750 2050 2750 
L 1900 2750 
L 1900 2900 
L 2050 2900 
Q 2200 2900 2325 2925 
Q 2450 2950 2575 3050 
L 2625 3050 
L 2625 600 
Q 2625 500 2687 450 
Q 2750 400 2850 400 
L 3000 400 
L 3000 250 
L 2850 250 
Q 2725 250 2600 212 
Q 2475 175 2325 100 
L 2275 100 
L 2275 625 
Q 2150 350 1900 212 
Q 1650 75 1325 75 
Q 925 75 725 300 
Q 525 525 525 1025 
L 525 2525 
Q 525 2625 475 2687 
Q 425 2750 300 2750 
L 150 2750 
L 150 2900 
L 300 2900 
Q 450 2900 575 2925 
Q 700 2950 825 3050 
L 875 3050 
L 875 975 
Q 875 625 1025 475 
Q 1175 325 1450 325 
z
" transform="scale(0.015625)"/>
       <path id="SimSun-6c" d="M 925 4375 
Q 1150 4375 1350 4425 
Q 1550 4475 1725 4575 
L 1775 4575 
L 1775 450 
Q 1775 350 1837 300 
Q 1900 250 2000 250 
L 2575 250 
L 2575 100 
L 625 100 
L 625 250 
L 1200 250 
Q 1325 250 1375 300 
Q 1425 350 1425 450 
L 1425 4025 
Q 1425 4125 1375 4175 
Q 1325 4225 1200 4225 
L 650 4225 
L 650 4375 
L 925 4375 
z
" transform="scale(0.015625)"/>
       <path id="SimSun-62" d="M 875 2325 
Q 1000 2600 1275 2762 
Q 1550 2925 1800 2925 
Q 2325 2925 2587 2562 
Q 2850 2200 2850 1500 
Q 2850 800 2512 437 
Q 2175 75 1675 75 
Q 1425 75 1212 162 
Q 1000 250 850 400 
L 625 100 
L 525 100 
L 525 4025 
Q 525 4125 475 4175 
Q 425 4225 300 4225 
L 150 4225 
L 150 4375 
L 375 4375 
Q 500 4375 625 4425 
Q 750 4475 875 4575 
L 875 2325 
z
M 875 925 
Q 875 650 1062 450 
Q 1250 250 1625 250 
Q 2075 250 2262 562 
Q 2450 875 2450 1500 
Q 2450 2100 2287 2412 
Q 2125 2725 1775 2725 
Q 1475 2725 1250 2550 
Q 1025 2375 875 1925 
L 875 925 
z
" transform="scale(0.015625)"/>
       <path id="SimSun-69" d="M 1425 2525 
Q 1425 2625 1375 2687 
Q 1325 2750 1200 2750 
L 675 2750 
L 675 2900 
L 925 2900 
Q 1150 2900 1350 2937 
Q 1550 2975 1725 3075 
L 1775 3075 
L 1775 450 
Q 1775 350 1837 300 
Q 1900 250 2000 250 
L 2525 250 
L 2525 100 
L 675 100 
L 675 250 
L 1200 250 
Q 1325 250 1375 300 
Q 1425 350 1425 450 
L 1425 2525 
z
M 1725 3025 
L 1725 3025 
z
M 1625 4425 
Q 1750 4425 1850 4337 
Q 1950 4250 1950 4125 
Q 1950 4000 1850 3900 
Q 1750 3800 1625 3800 
Q 1500 3800 1400 3900 
Q 1300 4000 1300 4125 
Q 1300 4250 1400 4337 
Q 1500 4425 1625 4425 
z
" transform="scale(0.015625)"/>
       <path id="SimSun-74" d="M 1500 900 
Q 1500 550 1625 425 
Q 1750 300 2000 300 
Q 2250 300 2400 462 
Q 2550 625 2600 925 
L 2725 875 
Q 2675 525 2462 300 
Q 2250 75 1900 75 
Q 1525 75 1337 300 
Q 1150 525 1150 1000 
L 1150 2750 
L 400 2750 
L 400 2900 
L 600 2900 
Q 900 2900 1087 3087 
Q 1275 3275 1325 3675 
L 1350 3875 
L 1500 3875 
L 1500 2900 
L 2500 2900 
L 2500 2750 
L 1500 2750 
L 1500 900 
z
" transform="scale(0.015625)"/>
       <path id="SimSun-79" d="M 1650 800 
L 1700 800 
L 2250 2475 
Q 2300 2600 2237 2675 
Q 2175 2750 2075 2750 
L 1925 2750 
L 1925 2900 
L 2975 2900 
L 2975 2750 
L 2825 2750 
Q 2725 2750 2625 2675 
Q 2525 2600 2475 2475 
L 1625 0 
Q 1500 -375 1312 -587 
Q 1125 -800 825 -800 
Q 650 -800 550 -737 
Q 450 -675 450 -550 
Q 450 -475 512 -400 
Q 575 -325 700 -325 
Q 800 -325 900 -425 
Q 1000 -500 1050 -500 
Q 1125 -500 1175 -475 
Q 1225 -450 1250 -375 
Q 1325 -250 1400 -62 
Q 1475 125 1525 325 
L 675 2525 
Q 650 2625 562 2687 
Q 475 2750 375 2750 
L 275 2750 
L 275 2900 
L 1325 2900 
L 1325 2750 
L 1225 2750 
Q 1125 2750 1075 2687 
Q 1025 2625 1050 2500 
L 1650 800 
z
M 950 2750 
L 950 2750 
z
M 600 2750 
L 600 2750 
z
M 2575 2750 
L 2575 2750 
z
M 2325 2750 
L 2325 2750 
z
" transform="scale(0.015625)"/>
       <path id="SimSun-52" d="M 2825 3375 
Q 2825 2875 2550 2600 
Q 2275 2325 1925 2275 
L 2675 425 
Q 2725 325 2787 287 
Q 2850 250 2925 250 
L 3075 250 
L 3075 100 
L 2375 100 
L 1550 2250 
L 975 2250 
L 975 450 
Q 975 350 1037 300 
Q 1100 250 1200 250 
L 1350 250 
L 1350 100 
L 200 100 
L 200 250 
L 350 250 
Q 475 250 525 300 
Q 575 350 575 450 
L 575 4025 
Q 575 4125 525 4175 
Q 475 4225 350 4225 
L 200 4225 
L 200 4375 
L 1625 4375 
Q 2200 4375 2512 4125 
Q 2825 3875 2825 3375 
z
M 2750 250 
L 2750 250 
z
M 975 2400 
L 1525 2400 
Q 1900 2400 2150 2625 
Q 2400 2850 2400 3325 
Q 2400 3750 2175 3987 
Q 1950 4225 1475 4225 
L 1200 4225 
Q 1100 4225 1037 4175 
Q 975 4125 975 4025 
L 975 2400 
z
" transform="scale(0.015625)"/>
       <path id="SimSun-6f" d="M 2900 1500 
Q 2900 875 2525 462 
Q 2150 50 1600 50 
Q 1025 50 662 475 
Q 300 900 300 1500 
Q 300 2050 662 2500 
Q 1025 2950 1600 2950 
Q 2200 2950 2550 2500 
Q 2900 2050 2900 1500 
z
M 700 1475 
Q 700 825 962 512 
Q 1225 200 1600 200 
Q 2025 200 2262 537 
Q 2500 875 2500 1475 
Q 2500 2125 2237 2462 
Q 1975 2800 1600 2800 
Q 1250 2800 975 2462 
Q 700 2125 700 1475 
z
" transform="scale(0.015625)"/>
      </defs>
      <use xlink:href="#SimSun-54"/>
      <use xlink:href="#SimSun-61" x="50"/>
      <use xlink:href="#SimSun-73" x="100"/>
      <use xlink:href="#SimSun-6b" x="150"/>
      <use xlink:href="#SimSun-20" x="200"/>
      <use xlink:href="#SimSun-53" x="250"/>
      <use xlink:href="#SimSun-63" x="300"/>
      <use xlink:href="#SimSun-68" x="350"/>
      <use xlink:href="#SimSun-65" x="400"/>
      <use xlink:href="#SimSun-64" x="450"/>
      <use xlink:href="#SimSun-75" x="500"/>
      <use xlink:href="#SimSun-6c" x="550"/>
      <use xlink:href="#SimSun-61" x="600"/>
      <use xlink:href="#SimSun-62" x="650"/>
      <use xlink:href="#SimSun-69" x="700"/>
      <use xlink:href="#SimSun-6c" x="750"/>
      <use xlink:href="#SimSun-69" x="800"/>
      <use xlink:href="#SimSun-74" x="850"/>
      <use xlink:href="#SimSun-79" x="900"/>
      <use xlink:href="#SimSun-20" x="950"/>
      <use xlink:href="#SimSun-52" x="1000"/>
      <use xlink:href="#SimSun-61" x="1050"/>
      <use xlink:href="#SimSun-74" x="1100"/>
      <use xlink:href="#SimSun-69" x="1150"/>
      <use xlink:href="#SimSun-6f" x="1200"/>
     </g>
    </g>
   </g>
   <g id="line2d_14">
    <path d="M 51.581739 176.395482 
L 90.39913 172.10495 
L 129.216522 193.227569 
L 168.033913 190.917282 
L 206.851304 204.44896 
L 245.668696 205.769124 
L 284.486087 216.000393 
L 323.303478 223.261293 
L 362.12087 230.522194 
L 400.938261 242.073626 
" clip-path="url(#pc369e4dbb7)" style="fill: none; stroke-dasharray: 5.55,2.4; stroke-dashoffset: 0; stroke: #4169e1; stroke-width: 1.5"/>
    <defs>
     <path id="md4599396f3" d="M 0 3 
C 0.795609 3 1.55874 2.683901 2.12132 2.12132 
C 2.683901 1.55874 3 0.795609 3 0 
C 3 -0.795609 2.683901 -1.55874 2.12132 -2.12132 
C 1.55874 -2.683901 0.795609 -3 0 -3 
C -0.795609 -3 -1.55874 -2.683901 -2.12132 -2.12132 
C -2.683901 -1.55874 -3 -0.795609 -3 0 
C -3 0.795609 -2.683901 1.55874 -2.12132 2.12132 
C -1.55874 2.683901 -0.795609 3 0 3 
z
" style="stroke: #4169e1"/>
    </defs>
    <g clip-path="url(#pc369e4dbb7)">
     <use xlink:href="#md4599396f3" x="51.581739" y="176.395482" style="fill: #4169e1; stroke: #4169e1"/>
     <use xlink:href="#md4599396f3" x="90.39913" y="172.10495" style="fill: #4169e1; stroke: #4169e1"/>
     <use xlink:href="#md4599396f3" x="129.216522" y="193.227569" style="fill: #4169e1; stroke: #4169e1"/>
     <use xlink:href="#md4599396f3" x="168.033913" y="190.917282" style="fill: #4169e1; stroke: #4169e1"/>
     <use xlink:href="#md4599396f3" x="206.851304" y="204.44896" style="fill: #4169e1; stroke: #4169e1"/>
     <use xlink:href="#md4599396f3" x="245.668696" y="205.769124" style="fill: #4169e1; stroke: #4169e1"/>
     <use xlink:href="#md4599396f3" x="284.486087" y="216.000393" style="fill: #4169e1; stroke: #4169e1"/>
     <use xlink:href="#md4599396f3" x="323.303478" y="223.261293" style="fill: #4169e1; stroke: #4169e1"/>
     <use xlink:href="#md4599396f3" x="362.12087" y="230.522194" style="fill: #4169e1; stroke: #4169e1"/>
     <use xlink:href="#md4599396f3" x="400.938261" y="242.073626" style="fill: #4169e1; stroke: #4169e1"/>
    </g>
   </g>
   <g id="line2d_15">
    <path d="M 51.581739 19.296 
L 90.39913 28.537146 
L 129.216522 30.187351 
L 168.033913 39.758538 
L 206.851304 58.240829 
L 245.668696 73.422712 
L 284.486087 83.32394 
L 323.303478 96.855618 
L 362.12087 120.288524 
L 400.938261 140.751061 
" clip-path="url(#pc369e4dbb7)" style="fill: none; stroke: #4169e1; stroke-width: 1.5; stroke-linecap: square"/>
    <g clip-path="url(#pc369e4dbb7)">
     <use xlink:href="#md4599396f3" x="51.581739" y="19.296" style="fill: #4169e1; stroke: #4169e1"/>
     <use xlink:href="#md4599396f3" x="90.39913" y="28.537146" style="fill: #4169e1; stroke: #4169e1"/>
     <use xlink:href="#md4599396f3" x="129.216522" y="30.187351" style="fill: #4169e1; stroke: #4169e1"/>
     <use xlink:href="#md4599396f3" x="168.033913" y="39.758538" style="fill: #4169e1; stroke: #4169e1"/>
     <use xlink:href="#md4599396f3" x="206.851304" y="58.240829" style="fill: #4169e1; stroke: #4169e1"/>
     <use xlink:href="#md4599396f3" x="245.668696" y="73.422712" style="fill: #4169e1; stroke: #4169e1"/>
     <use xlink:href="#md4599396f3" x="284.486087" y="83.32394" style="fill: #4169e1; stroke: #4169e1"/>
     <use xlink:href="#md4599396f3" x="323.303478" y="96.855618" style="fill: #4169e1; stroke: #4169e1"/>
     <use xlink:href="#md4599396f3" x="362.12087" y="120.288524" style="fill: #4169e1; stroke: #4169e1"/>
     <use xlink:href="#md4599396f3" x="400.938261" y="140.751061" style="fill: #4169e1; stroke: #4169e1"/>
    </g>
   </g>
   <g id="line2d_16">
    <path d="M 51.581739 175.405359 
L 90.39913 179.035809 
L 129.216522 192.567487 
L 168.033913 195.867896 
L 206.851304 204.11892 
L 245.668696 206.429206 
L 284.486087 226.231662 
L 323.303478 233.822603 
L 362.12087 237.453053 
L 400.938261 241.413544 
" clip-path="url(#pc369e4dbb7)" style="fill: none; stroke-dasharray: 5.55,2.4; stroke-dashoffset: 0; stroke: #2e8b57; stroke-width: 1.5"/>
    <defs>
     <path id="md9ec77419e" d="M -3 3 
L 3 3 
L 3 -3 
L -3 -3 
z
" style="stroke: #2e8b57; stroke-linejoin: miter"/>
    </defs>
    <g clip-path="url(#pc369e4dbb7)">
     <use xlink:href="#md9ec77419e" x="51.581739" y="175.405359" style="fill: #2e8b57; stroke: #2e8b57; stroke-linejoin: miter"/>
     <use xlink:href="#md9ec77419e" x="90.39913" y="179.035809" style="fill: #2e8b57; stroke: #2e8b57; stroke-linejoin: miter"/>
     <use xlink:href="#md9ec77419e" x="129.216522" y="192.567487" style="fill: #2e8b57; stroke: #2e8b57; stroke-linejoin: miter"/>
     <use xlink:href="#md9ec77419e" x="168.033913" y="195.867896" style="fill: #2e8b57; stroke: #2e8b57; stroke-linejoin: miter"/>
     <use xlink:href="#md9ec77419e" x="206.851304" y="204.11892" style="fill: #2e8b57; stroke: #2e8b57; stroke-linejoin: miter"/>
     <use xlink:href="#md9ec77419e" x="245.668696" y="206.429206" style="fill: #2e8b57; stroke: #2e8b57; stroke-linejoin: miter"/>
     <use xlink:href="#md9ec77419e" x="284.486087" y="226.231662" style="fill: #2e8b57; stroke: #2e8b57; stroke-linejoin: miter"/>
     <use xlink:href="#md9ec77419e" x="323.303478" y="233.822603" style="fill: #2e8b57; stroke: #2e8b57; stroke-linejoin: miter"/>
     <use xlink:href="#md9ec77419e" x="362.12087" y="237.453053" style="fill: #2e8b57; stroke: #2e8b57; stroke-linejoin: miter"/>
     <use xlink:href="#md9ec77419e" x="400.938261" y="241.413544" style="fill: #2e8b57; stroke: #2e8b57; stroke-linejoin: miter"/>
    </g>
   </g>
   <g id="line2d_17">
    <path d="M 51.581739 66.161812 
L 90.39913 74.412835 
L 129.216522 83.32394 
L 168.033913 93.555209 
L 206.851304 110.717337 
L 245.668696 118.96836 
L 284.486087 128.209506 
L 323.303478 143.061348 
L 362.12087 157.583149 
L 400.938261 171.444868 
" clip-path="url(#pc369e4dbb7)" style="fill: none; stroke: #2e8b57; stroke-width: 1.5; stroke-linecap: square"/>
    <g clip-path="url(#pc369e4dbb7)">
     <use xlink:href="#md9ec77419e" x="51.581739" y="66.161812" style="fill: #2e8b57; stroke: #2e8b57; stroke-linejoin: miter"/>
     <use xlink:href="#md9ec77419e" x="90.39913" y="74.412835" style="fill: #2e8b57; stroke: #2e8b57; stroke-linejoin: miter"/>
     <use xlink:href="#md9ec77419e" x="129.216522" y="83.32394" style="fill: #2e8b57; stroke: #2e8b57; stroke-linejoin: miter"/>
     <use xlink:href="#md9ec77419e" x="168.033913" y="93.555209" style="fill: #2e8b57; stroke: #2e8b57; stroke-linejoin: miter"/>
     <use xlink:href="#md9ec77419e" x="206.851304" y="110.717337" style="fill: #2e8b57; stroke: #2e8b57; stroke-linejoin: miter"/>
     <use xlink:href="#md9ec77419e" x="245.668696" y="118.96836" style="fill: #2e8b57; stroke: #2e8b57; stroke-linejoin: miter"/>
     <use xlink:href="#md9ec77419e" x="284.486087" y="128.209506" style="fill: #2e8b57; stroke: #2e8b57; stroke-linejoin: miter"/>
     <use xlink:href="#md9ec77419e" x="323.303478" y="143.061348" style="fill: #2e8b57; stroke: #2e8b57; stroke-linejoin: miter"/>
     <use xlink:href="#md9ec77419e" x="362.12087" y="157.583149" style="fill: #2e8b57; stroke: #2e8b57; stroke-linejoin: miter"/>
     <use xlink:href="#md9ec77419e" x="400.938261" y="171.444868" style="fill: #2e8b57; stroke: #2e8b57; stroke-linejoin: miter"/>
    </g>
   </g>
   <g id="line2d_18">
    <path d="M 51.581739 173.425113 
L 90.39913 191.577364 
L 129.216522 188.937037 
L 168.033913 200.488469 
L 206.851304 213.030025 
L 245.668696 222.271171 
L 284.486087 229.862112 
L 323.303478 239.103258 
L 362.12087 241.413544 
L 400.938261 251.644813 
" clip-path="url(#pc369e4dbb7)" style="fill: none; stroke-dasharray: 5.55,2.4; stroke-dashoffset: 0; stroke: #ff8c00; stroke-width: 1.5"/>
    <defs>
     <path id="mf010a32c39" d="M 0 -3 
L -3 3 
L 3 3 
z
" style="stroke: #ff8c00; stroke-linejoin: miter"/>
    </defs>
    <g clip-path="url(#pc369e4dbb7)">
     <use xlink:href="#mf010a32c39" x="51.581739" y="173.425113" style="fill: #ff8c00; stroke: #ff8c00; stroke-linejoin: miter"/>
     <use xlink:href="#mf010a32c39" x="90.39913" y="191.577364" style="fill: #ff8c00; stroke: #ff8c00; stroke-linejoin: miter"/>
     <use xlink:href="#mf010a32c39" x="129.216522" y="188.937037" style="fill: #ff8c00; stroke: #ff8c00; stroke-linejoin: miter"/>
     <use xlink:href="#mf010a32c39" x="168.033913" y="200.488469" style="fill: #ff8c00; stroke: #ff8c00; stroke-linejoin: miter"/>
     <use xlink:href="#mf010a32c39" x="206.851304" y="213.030025" style="fill: #ff8c00; stroke: #ff8c00; stroke-linejoin: miter"/>
     <use xlink:href="#mf010a32c39" x="245.668696" y="222.271171" style="fill: #ff8c00; stroke: #ff8c00; stroke-linejoin: miter"/>
     <use xlink:href="#mf010a32c39" x="284.486087" y="229.862112" style="fill: #ff8c00; stroke: #ff8c00; stroke-linejoin: miter"/>
     <use xlink:href="#mf010a32c39" x="323.303478" y="239.103258" style="fill: #ff8c00; stroke: #ff8c00; stroke-linejoin: miter"/>
     <use xlink:href="#mf010a32c39" x="362.12087" y="241.413544" style="fill: #ff8c00; stroke: #ff8c00; stroke-linejoin: miter"/>
     <use xlink:href="#mf010a32c39" x="400.938261" y="251.644813" style="fill: #ff8c00; stroke: #ff8c00; stroke-linejoin: miter"/>
    </g>
   </g>
   <g id="line2d_19">
    <path d="M 51.581739 153.952698 
L 90.39913 171.114827 
L 129.216522 175.7354 
L 168.033913 180.355973 
L 206.851304 206.759247 
L 245.668696 220.620966 
L 284.486087 222.271171 
L 323.303478 233.492562 
L 362.12087 244.053872 
L 400.938261 261.216 
" clip-path="url(#pc369e4dbb7)" style="fill: none; stroke: #ff8c00; stroke-width: 1.5; stroke-linecap: square"/>
    <g clip-path="url(#pc369e4dbb7)">
     <use xlink:href="#mf010a32c39" x="51.581739" y="153.952698" style="fill: #ff8c00; stroke: #ff8c00; stroke-linejoin: miter"/>
     <use xlink:href="#mf010a32c39" x="90.39913" y="171.114827" style="fill: #ff8c00; stroke: #ff8c00; stroke-linejoin: miter"/>
     <use xlink:href="#mf010a32c39" x="129.216522" y="175.7354" style="fill: #ff8c00; stroke: #ff8c00; stroke-linejoin: miter"/>
     <use xlink:href="#mf010a32c39" x="168.033913" y="180.355973" style="fill: #ff8c00; stroke: #ff8c00; stroke-linejoin: miter"/>
     <use xlink:href="#mf010a32c39" x="206.851304" y="206.759247" style="fill: #ff8c00; stroke: #ff8c00; stroke-linejoin: miter"/>
     <use xlink:href="#mf010a32c39" x="245.668696" y="220.620966" style="fill: #ff8c00; stroke: #ff8c00; stroke-linejoin: miter"/>
     <use xlink:href="#mf010a32c39" x="284.486087" y="222.271171" style="fill: #ff8c00; stroke: #ff8c00; stroke-linejoin: miter"/>
     <use xlink:href="#mf010a32c39" x="323.303478" y="233.492562" style="fill: #ff8c00; stroke: #ff8c00; stroke-linejoin: miter"/>
     <use xlink:href="#mf010a32c39" x="362.12087" y="244.053872" style="fill: #ff8c00; stroke: #ff8c00; stroke-linejoin: miter"/>
     <use xlink:href="#mf010a32c39" x="400.938261" y="261.216" style="fill: #ff8c00; stroke: #ff8c00; stroke-linejoin: miter"/>
    </g>
   </g>
   <g id="line2d_20">
    <path d="M 51.581739 34.477883 
L 90.39913 52.630134 
L 129.216522 52.960175 
L 168.033913 60.551116 
L 206.851304 83.32394 
L 245.668696 93.88525 
L 284.486087 105.436682 
L 323.303478 124.579056 
L 362.12087 137.780693 
L 400.938261 162.533763 
" clip-path="url(#pc369e4dbb7)" style="fill: none; stroke: #9370db; stroke-width: 1.5; stroke-linecap: square"/>
    <defs>
     <path id="m2658598648" d="M 0 4.242641 
L 4.242641 0 
L 0 -4.242641 
L -4.242641 0 
z
" style="stroke: #9370db; stroke-linejoin: miter"/>
    </defs>
    <g clip-path="url(#pc369e4dbb7)">
     <use xlink:href="#m2658598648" x="51.581739" y="34.477883" style="fill: #9370db; stroke: #9370db; stroke-linejoin: miter"/>
     <use xlink:href="#m2658598648" x="90.39913" y="52.630134" style="fill: #9370db; stroke: #9370db; stroke-linejoin: miter"/>
     <use xlink:href="#m2658598648" x="129.216522" y="52.960175" style="fill: #9370db; stroke: #9370db; stroke-linejoin: miter"/>
     <use xlink:href="#m2658598648" x="168.033913" y="60.551116" style="fill: #9370db; stroke: #9370db; stroke-linejoin: miter"/>
     <use xlink:href="#m2658598648" x="206.851304" y="83.32394" style="fill: #9370db; stroke: #9370db; stroke-linejoin: miter"/>
     <use xlink:href="#m2658598648" x="245.668696" y="93.88525" style="fill: #9370db; stroke: #9370db; stroke-linejoin: miter"/>
     <use xlink:href="#m2658598648" x="284.486087" y="105.436682" style="fill: #9370db; stroke: #9370db; stroke-linejoin: miter"/>
     <use xlink:href="#m2658598648" x="323.303478" y="124.579056" style="fill: #9370db; stroke: #9370db; stroke-linejoin: miter"/>
     <use xlink:href="#m2658598648" x="362.12087" y="137.780693" style="fill: #9370db; stroke: #9370db; stroke-linejoin: miter"/>
     <use xlink:href="#m2658598648" x="400.938261" y="162.533763" style="fill: #9370db; stroke: #9370db; stroke-linejoin: miter"/>
    </g>
   </g>
   <g id="patch_3">
    <path d="M 47.7 273.312 
L 47.7 7.2 
" style="fill: none; stroke: #000000; stroke-width: 0.8; stroke-linejoin: miter; stroke-linecap: square"/>
   </g>
   <g id="patch_4">
    <path d="M 404.82 273.312 
L 404.82 7.2 
" style="fill: none; stroke: #000000; stroke-width: 0.8; stroke-linejoin: miter; stroke-linecap: square"/>
   </g>
   <g id="patch_5">
    <path d="M 47.7 273.312 
L 404.82 273.312 
" style="fill: none; stroke: #000000; stroke-width: 0.8; stroke-linejoin: miter; stroke-linecap: square"/>
   </g>
   <g id="patch_6">
    <path d="M 47.7 7.2 
L 404.82 7.2 
" style="fill: none; stroke: #000000; stroke-width: 0.8; stroke-linejoin: miter; stroke-linecap: square"/>
   </g>
   <g id="legend_1">
    <g id="patch_7">
     <path d="M 278.42 171.375 
L 393.62 171.375 
Q 396.82 171.375 396.82 168.175 
L 396.82 18.4 
Q 396.82 15.2 393.62 15.2 
L 278.42 15.2 
Q 275.22 15.2 275.22 18.4 
L 275.22 168.175 
Q 275.22 171.375 278.42 171.375 
z
" style="fill: #ffffff; opacity: 0.8; stroke: #cccccc; stroke-linejoin: miter"/>
    </g>
    <g id="line2d_21">
     <path d="M 281.62 27.4375 
L 297.62 27.4375 
L 313.62 27.4375 
" style="fill: none; stroke-dasharray: 5.55,2.4; stroke-dashoffset: 0; stroke: #4169e1; stroke-width: 1.5"/>
     <g>
      <use xlink:href="#md4599396f3" x="297.62" y="27.4375" style="fill: #4169e1; stroke: #4169e1"/>
     </g>
    </g>
    <g id="text_16">
     <!-- FF_DU -->
     <g transform="translate(326.42 33.0375) scale(0.16 -0.16)">
      <defs>
       <path id="SimSun-5f" d="M 0 -875 
L 0 -725 
L 3175 -725 
L 3175 -875 
L 0 -875 
z
" transform="scale(0.015625)"/>
       <path id="SimSun-44" d="M 2500 2275 
Q 2500 3350 2175 3787 
Q 1850 4225 1275 4225 
Q 1100 4225 1012 4175 
Q 925 4125 925 4025 
L 925 450 
Q 925 350 1000 300 
Q 1075 250 1200 250 
Q 1750 250 2125 662 
Q 2500 1075 2500 2275 
z
M 525 4025 
Q 525 4125 475 4175 
Q 425 4225 300 4225 
L 150 4225 
L 150 4375 
L 1275 4375 
Q 2050 4375 2512 3875 
Q 2975 3375 2975 2325 
Q 2975 1175 2525 637 
Q 2075 100 1200 100 
L 125 100 
L 125 250 
L 300 250 
Q 425 250 475 300 
Q 525 350 525 450 
L 525 4025 
z
" transform="scale(0.015625)"/>
       <path id="SimSun-55" d="M 1625 250 
Q 2000 250 2262 500 
Q 2525 750 2525 1125 
L 2525 4025 
Q 2525 4125 2475 4175 
Q 2425 4225 2300 4225 
L 2150 4225 
L 2150 4375 
L 3050 4375 
L 3050 4225 
L 2900 4225 
Q 2800 4225 2737 4175 
Q 2675 4125 2675 4025 
L 2675 1125 
Q 2675 625 2337 337 
Q 2000 50 1575 50 
Q 1125 50 787 300 
Q 450 550 450 1100 
L 450 4025 
Q 450 4125 400 4175 
Q 350 4225 225 4225 
L 100 4225 
L 100 4375 
L 1200 4375 
L 1200 4225 
L 1075 4225 
Q 975 4225 912 4175 
Q 850 4125 850 4025 
L 850 1100 
Q 850 600 1062 425 
Q 1275 250 1625 250 
z
" transform="scale(0.015625)"/>
      </defs>
      <use xlink:href="#SimSun-46"/>
      <use xlink:href="#SimSun-46" x="50"/>
      <use xlink:href="#SimSun-5f" x="100"/>
      <use xlink:href="#SimSun-44" x="150"/>
      <use xlink:href="#SimSun-55" x="200"/>
     </g>
    </g>
    <g id="line2d_22">
     <path d="M 281.62 49.0625 
L 297.62 49.0625 
L 313.62 49.0625 
" style="fill: none; stroke: #4169e1; stroke-width: 1.5; stroke-linecap: square"/>
     <g>
      <use xlink:href="#md4599396f3" x="297.62" y="49.0625" style="fill: #4169e1; stroke: #4169e1"/>
     </g>
    </g>
    <g id="text_17">
     <!-- FF_DP -->
     <g transform="translate(326.42 54.6625) scale(0.16 -0.16)">
      <defs>
       <path id="SimSun-50" d="M 950 2100 
L 950 450 
Q 950 350 1012 300 
Q 1075 250 1175 250 
L 1350 250 
L 1350 100 
L 150 100 
L 150 250 
L 325 250 
Q 450 250 500 300 
Q 550 350 550 450 
L 550 4025 
Q 550 4125 500 4175 
Q 450 4225 325 4225 
L 175 4225 
L 175 4375 
L 1650 4375 
Q 2275 4375 2612 4062 
Q 2950 3750 2950 3275 
Q 2950 2700 2587 2400 
Q 2225 2100 1725 2100 
L 950 2100 
z
M 1575 2250 
Q 1950 2250 2237 2475 
Q 2525 2700 2525 3250 
Q 2525 3750 2287 3987 
Q 2050 4225 1525 4225 
L 1175 4225 
Q 1075 4225 1012 4175 
Q 950 4125 950 4025 
L 950 2250 
L 1575 2250 
z
" transform="scale(0.015625)"/>
      </defs>
      <use xlink:href="#SimSun-46"/>
      <use xlink:href="#SimSun-46" x="50"/>
      <use xlink:href="#SimSun-5f" x="100"/>
      <use xlink:href="#SimSun-44" x="150"/>
      <use xlink:href="#SimSun-50" x="200"/>
     </g>
    </g>
    <g id="line2d_23">
     <path d="M 281.62 70.6875 
L 297.62 70.6875 
L 313.62 70.6875 
" style="fill: none; stroke-dasharray: 5.55,2.4; stroke-dashoffset: 0; stroke: #2e8b57; stroke-width: 1.5"/>
     <g>
      <use xlink:href="#md9ec77419e" x="297.62" y="70.6875" style="fill: #2e8b57; stroke: #2e8b57; stroke-linejoin: miter"/>
     </g>
    </g>
    <g id="text_18">
     <!-- BF_DU -->
     <g transform="translate(326.42 76.2875) scale(0.16 -0.16)">
      <defs>
       <path id="SimSun-42" d="M 100 100 
L 100 250 
L 300 250 
Q 425 250 475 300 
Q 525 350 525 450 
L 525 4025 
Q 525 4125 475 4175 
Q 425 4225 300 4225 
L 150 4225 
L 150 4375 
L 1600 4375 
Q 2200 4375 2487 4137 
Q 2775 3900 2775 3400 
Q 2775 3050 2625 2825 
Q 2475 2600 2000 2425 
Q 2575 2250 2775 1925 
Q 2975 1600 2975 1200 
Q 2975 700 2625 400 
Q 2275 100 1675 100 
L 100 100 
z
M 1600 250 
Q 2025 250 2262 512 
Q 2500 775 2500 1250 
Q 2500 1800 2250 2062 
Q 2000 2325 1500 2325 
L 925 2325 
L 925 450 
Q 925 350 987 300 
Q 1050 250 1150 250 
L 1600 250 
z
M 2350 3400 
Q 2350 3850 2100 4037 
Q 1850 4225 1450 4225 
L 1150 4225 
Q 1050 4225 987 4175 
Q 925 4125 925 4025 
L 925 2475 
L 1575 2475 
Q 1850 2475 2100 2700 
Q 2350 2925 2350 3400 
z
" transform="scale(0.015625)"/>
      </defs>
      <use xlink:href="#SimSun-42"/>
      <use xlink:href="#SimSun-46" x="50"/>
      <use xlink:href="#SimSun-5f" x="100"/>
      <use xlink:href="#SimSun-44" x="150"/>
      <use xlink:href="#SimSun-55" x="200"/>
     </g>
    </g>
    <g id="line2d_24">
     <path d="M 281.62 92.3125 
L 297.62 92.3125 
L 313.62 92.3125 
" style="fill: none; stroke: #2e8b57; stroke-width: 1.5; stroke-linecap: square"/>
     <g>
      <use xlink:href="#md9ec77419e" x="297.62" y="92.3125" style="fill: #2e8b57; stroke: #2e8b57; stroke-linejoin: miter"/>
     </g>
    </g>
    <g id="text_19">
     <!-- BF_DP -->
     <g transform="translate(326.42 97.9125) scale(0.16 -0.16)">
      <use xlink:href="#SimSun-42"/>
      <use xlink:href="#SimSun-46" x="50"/>
      <use xlink:href="#SimSun-5f" x="100"/>
      <use xlink:href="#SimSun-44" x="150"/>
      <use xlink:href="#SimSun-50" x="200"/>
     </g>
    </g>
    <g id="line2d_25">
     <path d="M 281.62 113.9375 
L 297.62 113.9375 
L 313.62 113.9375 
" style="fill: none; stroke-dasharray: 5.55,2.4; stroke-dashoffset: 0; stroke: #ff8c00; stroke-width: 1.5"/>
     <g>
      <use xlink:href="#mf010a32c39" x="297.62" y="113.9375" style="fill: #ff8c00; stroke: #ff8c00; stroke-linejoin: miter"/>
     </g>
    </g>
    <g id="text_20">
     <!-- WF_DU -->
     <g transform="translate(326.42 119.5375) scale(0.16 -0.16)">
      <defs>
       <path id="SimSun-57" d="M 3150 4375 
L 3150 4225 
L 3050 4225 
Q 3000 4225 2937 4175 
Q 2875 4125 2850 4000 
L 2175 100 
L 2025 100 
L 1625 2750 
L 1575 2750 
L 1050 100 
L 900 100 
L 300 4025 
Q 300 4125 262 4175 
Q 225 4225 150 4225 
L 50 4225 
L 50 4375 
L 925 4375 
L 925 4225 
L 850 4225 
Q 750 4225 700 4175 
Q 650 4125 650 4025 
L 1050 1275 
L 1100 1275 
L 1525 3350 
L 1450 4025 
Q 1450 4125 1387 4175 
Q 1325 4225 1275 4225 
L 1200 4225 
L 1200 4375 
L 2050 4375 
L 2050 4225 
L 1975 4225 
Q 1875 4225 1837 4175 
Q 1800 4125 1800 4025 
L 2175 1350 
L 2225 1350 
L 2675 3975 
Q 2700 4100 2637 4162 
Q 2575 4225 2475 4225 
L 2400 4225 
L 2400 4375 
L 3150 4375 
z
M 1775 4225 
L 1775 4225 
z
M 1425 4225 
L 1425 4225 
z
M 2900 4225 
L 2900 4225 
z
M 2725 4225 
L 2725 4225 
z
M 625 4225 
L 625 4225 
z
M 275 4225 
L 275 4225 
z
" transform="scale(0.015625)"/>
      </defs>
      <use xlink:href="#SimSun-57"/>
      <use xlink:href="#SimSun-46" x="50"/>
      <use xlink:href="#SimSun-5f" x="100"/>
      <use xlink:href="#SimSun-44" x="150"/>
      <use xlink:href="#SimSun-55" x="200"/>
     </g>
    </g>
    <g id="line2d_26">
     <path d="M 281.62 135.5625 
L 297.62 135.5625 
L 313.62 135.5625 
" style="fill: none; stroke: #ff8c00; stroke-width: 1.5; stroke-linecap: square"/>
     <g>
      <use xlink:href="#mf010a32c39" x="297.62" y="135.5625" style="fill: #ff8c00; stroke: #ff8c00; stroke-linejoin: miter"/>
     </g>
    </g>
    <g id="text_21">
     <!-- WF_DP -->
     <g transform="translate(326.42 141.1625) scale(0.16 -0.16)">
      <use xlink:href="#SimSun-57"/>
      <use xlink:href="#SimSun-46" x="50"/>
      <use xlink:href="#SimSun-5f" x="100"/>
      <use xlink:href="#SimSun-44" x="150"/>
      <use xlink:href="#SimSun-50" x="200"/>
     </g>
    </g>
    <g id="line2d_27">
     <path d="M 281.62 157.1875 
L 297.62 157.1875 
L 313.62 157.1875 
" style="fill: none; stroke: #9370db; stroke-width: 1.5; stroke-linecap: square"/>
     <g>
      <use xlink:href="#m2658598648" x="297.62" y="157.1875" style="fill: #9370db; stroke: #9370db; stroke-linejoin: miter"/>
     </g>
    </g>
    <g id="text_22">
     <!-- BF_FF_DP -->
     <g transform="translate(326.42 162.7875) scale(0.16 -0.16)">
      <use xlink:href="#SimSun-42"/>
      <use xlink:href="#SimSun-46" x="50"/>
      <use xlink:href="#SimSun-5f" x="100"/>
      <use xlink:href="#SimSun-46" x="150"/>
      <use xlink:href="#SimSun-46" x="200"/>
      <use xlink:href="#SimSun-5f" x="250"/>
      <use xlink:href="#SimSun-44" x="300"/>
      <use xlink:href="#SimSun-50" x="350"/>
     </g>
    </g>
   </g>
  </g>
 </g>
 <defs>
  <clipPath id="pc369e4dbb7">
   <rect x="47.7" y="7.2" width="357.12" height="266.112"/>
  </clipPath>
 </defs>
</svg>
