<?xml version="1.0" encoding="utf-8" standalone="no"?>
<!DOCTYPE svg PUBLIC "-//W3C//DTD SVG 1.1//EN"
  "http://www.w3.org/Graphics/SVG/1.1/DTD/svg11.dtd">
<svg xmlns:xlink="http://www.w3.org/1999/xlink" width="398.7325pt" height="271.905pt" viewBox="0 0 398.7325 271.905" xmlns="http://www.w3.org/2000/svg" version="1.1">
 <metadata>
  <rdf:RDF xmlns:dc="http://purl.org/dc/elements/1.1/" xmlns:cc="http://creativecommons.org/ns#" xmlns:rdf="http://www.w3.org/1999/02/22-rdf-syntax-ns#">
   <cc:Work>
    <dc:type rdf:resource="http://purl.org/dc/dcmitype/StillImage"/>
    <dc:date>2024-08-14T04:31:30.777632</dc:date>
    <dc:format>image/svg+xml</dc:format>
    <dc:creator>
     <cc:Agent>
      <dc:title>Matplotlib v3.5.1, https://matplotlib.org/</dc:title>
     </cc:Agent>
    </dc:creator>
   </cc:Work>
  </rdf:RDF>
 </metadata>
 <defs>
  <style type="text/css">*{stroke-linejoin: round; stroke-linecap: butt}</style>
 </defs>
 <g id="figure_1">
  <g id="patch_1">
   <path d="M 0 271.905 
L 398.7325 271.905 
L 398.7325 0 
L 0 0 
L 0 271.905 
z
" style="fill: none"/>
  </g>
  <g id="axes_1">
   <g id="patch_2">
    <path d="M 56.7325 224.64 
L 391.5325 224.64 
L 391.5325 7.2 
L 56.7325 7.2 
z
" style="fill: #ffffff"/>
   </g>
   <g id="matplotlib.axis_1">
    <g id="xtick_1">
     <g id="line2d_1">
      <defs>
       <path id="m65986c4b81" d="M 0 0 
L 0 3.5 
" style="stroke: #000000; stroke-width: 0.8"/>
      </defs>
      <g>
       <use xlink:href="#m65986c4b81" x="63.855904" y="224.64" style="stroke: #000000; stroke-width: 0.8"/>
      </g>
     </g>
     <g id="text_1">
      <!-- 0.2 -->
      <g transform="translate(53.855904 242.75)scale(0.16 -0.16)">
       <defs>
        <path id="TimesNewRomanPSMT-30" d="M 231 2094 
Q 231 2819 450 3342 
Q 669 3866 1031 4122 
Q 1313 4325 1613 4325 
Q 2100 4325 2488 3828 
Q 2972 3213 2972 2159 
Q 2972 1422 2759 906 
Q 2547 391 2217 158 
Q 1888 -75 1581 -75 
Q 975 -75 572 641 
Q 231 1244 231 2094 
z
M 844 2016 
Q 844 1141 1059 588 
Q 1238 122 1591 122 
Q 1759 122 1940 273 
Q 2122 425 2216 781 
Q 2359 1319 2359 2297 
Q 2359 3022 2209 3506 
Q 2097 3866 1919 4016 
Q 1791 4119 1609 4119 
Q 1397 4119 1231 3928 
Q 1006 3669 925 3112 
Q 844 2556 844 2016 
z
" transform="scale(0.015625)"/>
        <path id="TimesNewRomanPSMT-2e" d="M 800 606 
Q 947 606 1047 504 
Q 1147 403 1147 259 
Q 1147 116 1045 14 
Q 944 -88 800 -88 
Q 656 -88 554 14 
Q 453 116 453 259 
Q 453 406 554 506 
Q 656 606 800 606 
z
" transform="scale(0.015625)"/>
        <path id="TimesNewRomanPSMT-32" d="M 2934 816 
L 2638 0 
L 138 0 
L 138 116 
Q 1241 1122 1691 1759 
Q 2141 2397 2141 2925 
Q 2141 3328 1894 3587 
Q 1647 3847 1303 3847 
Q 991 3847 742 3664 
Q 494 3481 375 3128 
L 259 3128 
Q 338 3706 661 4015 
Q 984 4325 1469 4325 
Q 1984 4325 2329 3994 
Q 2675 3663 2675 3213 
Q 2675 2891 2525 2569 
Q 2294 2063 1775 1497 
Q 997 647 803 472 
L 1909 472 
Q 2247 472 2383 497 
Q 2519 522 2628 598 
Q 2738 675 2819 816 
L 2934 816 
z
" transform="scale(0.015625)"/>
       </defs>
       <use xlink:href="#TimesNewRomanPSMT-30"/>
       <use xlink:href="#TimesNewRomanPSMT-2e" x="50"/>
       <use xlink:href="#TimesNewRomanPSMT-32" x="75"/>
      </g>
     </g>
    </g>
    <g id="xtick_2">
     <g id="line2d_2">
      <g>
       <use xlink:href="#m65986c4b81" x="135.089947" y="224.64" style="stroke: #000000; stroke-width: 0.8"/>
      </g>
     </g>
     <g id="text_2">
      <!-- 0.3 -->
      <g transform="translate(125.089947 242.75)scale(0.16 -0.16)">
       <defs>
        <path id="TimesNewRomanPSMT-33" d="M 325 3431 
Q 506 3859 782 4092 
Q 1059 4325 1472 4325 
Q 1981 4325 2253 3994 
Q 2459 3747 2459 3466 
Q 2459 3003 1878 2509 
Q 2269 2356 2469 2072 
Q 2669 1788 2669 1403 
Q 2669 853 2319 450 
Q 1863 -75 997 -75 
Q 569 -75 414 31 
Q 259 138 259 259 
Q 259 350 332 419 
Q 406 488 509 488 
Q 588 488 669 463 
Q 722 447 909 348 
Q 1097 250 1169 231 
Q 1284 197 1416 197 
Q 1734 197 1970 444 
Q 2206 691 2206 1028 
Q 2206 1275 2097 1509 
Q 2016 1684 1919 1775 
Q 1784 1900 1550 2001 
Q 1316 2103 1072 2103 
L 972 2103 
L 972 2197 
Q 1219 2228 1467 2375 
Q 1716 2522 1828 2728 
Q 1941 2934 1941 3181 
Q 1941 3503 1739 3701 
Q 1538 3900 1238 3900 
Q 753 3900 428 3381 
L 325 3431 
z
" transform="scale(0.015625)"/>
       </defs>
       <use xlink:href="#TimesNewRomanPSMT-30"/>
       <use xlink:href="#TimesNewRomanPSMT-2e" x="50"/>
       <use xlink:href="#TimesNewRomanPSMT-33" x="75"/>
      </g>
     </g>
    </g>
    <g id="xtick_3">
     <g id="line2d_3">
      <g>
       <use xlink:href="#m65986c4b81" x="206.323989" y="224.64" style="stroke: #000000; stroke-width: 0.8"/>
      </g>
     </g>
     <g id="text_3">
      <!-- 0.4 -->
      <g transform="translate(196.323989 242.75)scale(0.16 -0.16)">
       <defs>
        <path id="TimesNewRomanPSMT-34" d="M 2978 1563 
L 2978 1119 
L 2409 1119 
L 2409 0 
L 1894 0 
L 1894 1119 
L 100 1119 
L 100 1519 
L 2066 4325 
L 2409 4325 
L 2409 1563 
L 2978 1563 
z
M 1894 1563 
L 1894 3666 
L 406 1563 
L 1894 1563 
z
" transform="scale(0.015625)"/>
       </defs>
       <use xlink:href="#TimesNewRomanPSMT-30"/>
       <use xlink:href="#TimesNewRomanPSMT-2e" x="50"/>
       <use xlink:href="#TimesNewRomanPSMT-34" x="75"/>
      </g>
     </g>
    </g>
    <g id="xtick_4">
     <g id="line2d_4">
      <g>
       <use xlink:href="#m65986c4b81" x="277.558032" y="224.64" style="stroke: #000000; stroke-width: 0.8"/>
      </g>
     </g>
     <g id="text_4">
      <!-- 0.5 -->
      <g transform="translate(267.558032 242.75)scale(0.16 -0.16)">
       <defs>
        <path id="TimesNewRomanPSMT-35" d="M 2778 4238 
L 2534 3706 
L 1259 3706 
L 981 3138 
Q 1809 3016 2294 2522 
Q 2709 2097 2709 1522 
Q 2709 1188 2573 903 
Q 2438 619 2231 419 
Q 2025 219 1772 97 
Q 1413 -75 1034 -75 
Q 653 -75 479 54 
Q 306 184 306 341 
Q 306 428 378 495 
Q 450 563 559 563 
Q 641 563 702 538 
Q 763 513 909 409 
Q 1144 247 1384 247 
Q 1750 247 2026 523 
Q 2303 800 2303 1197 
Q 2303 1581 2056 1914 
Q 1809 2247 1375 2428 
Q 1034 2569 447 2591 
L 1259 4238 
L 2778 4238 
z
" transform="scale(0.015625)"/>
       </defs>
       <use xlink:href="#TimesNewRomanPSMT-30"/>
       <use xlink:href="#TimesNewRomanPSMT-2e" x="50"/>
       <use xlink:href="#TimesNewRomanPSMT-35" x="75"/>
      </g>
     </g>
    </g>
    <g id="xtick_5">
     <g id="line2d_5">
      <g>
       <use xlink:href="#m65986c4b81" x="348.792074" y="224.64" style="stroke: #000000; stroke-width: 0.8"/>
      </g>
     </g>
     <g id="text_5">
      <!-- 0.6 -->
      <g transform="translate(338.792074 242.75)scale(0.16 -0.16)">
       <defs>
        <path id="TimesNewRomanPSMT-36" d="M 2869 4325 
L 2869 4209 
Q 2456 4169 2195 4045 
Q 1934 3922 1679 3669 
Q 1425 3416 1258 3105 
Q 1091 2794 978 2366 
Q 1428 2675 1881 2675 
Q 2316 2675 2634 2325 
Q 2953 1975 2953 1425 
Q 2953 894 2631 456 
Q 2244 -75 1606 -75 
Q 1172 -75 869 213 
Q 275 772 275 1663 
Q 275 2231 503 2743 
Q 731 3256 1154 3653 
Q 1578 4050 1965 4187 
Q 2353 4325 2688 4325 
L 2869 4325 
z
M 925 2138 
Q 869 1716 869 1456 
Q 869 1156 980 804 
Q 1091 453 1309 247 
Q 1469 100 1697 100 
Q 1969 100 2183 356 
Q 2397 613 2397 1088 
Q 2397 1622 2184 2012 
Q 1972 2403 1581 2403 
Q 1463 2403 1327 2353 
Q 1191 2303 925 2138 
z
" transform="scale(0.015625)"/>
       </defs>
       <use xlink:href="#TimesNewRomanPSMT-30"/>
       <use xlink:href="#TimesNewRomanPSMT-2e" x="50"/>
       <use xlink:href="#TimesNewRomanPSMT-36" x="75"/>
      </g>
     </g>
    </g>
    <g id="text_6">
     <!-- utilization of taskset in LO mode -->
     <g transform="translate(118.59625 261.2825)scale(0.16 -0.16)">
      <defs>
       <path id="TimesNewRomanPSMT-75" d="M 2709 2863 
L 2709 1128 
Q 2709 631 2732 520 
Q 2756 409 2807 365 
Q 2859 322 2928 322 
Q 3025 322 3147 375 
L 3191 266 
L 2334 -88 
L 2194 -88 
L 2194 519 
Q 1825 119 1631 15 
Q 1438 -88 1222 -88 
Q 981 -88 804 51 
Q 628 191 559 409 
Q 491 628 491 1028 
L 491 2306 
Q 491 2509 447 2587 
Q 403 2666 317 2708 
Q 231 2750 6 2747 
L 6 2863 
L 1009 2863 
L 1009 947 
Q 1009 547 1148 422 
Q 1288 297 1484 297 
Q 1619 297 1789 381 
Q 1959 466 2194 703 
L 2194 2325 
Q 2194 2569 2105 2655 
Q 2016 2741 1734 2747 
L 1734 2863 
L 2709 2863 
z
" transform="scale(0.015625)"/>
       <path id="TimesNewRomanPSMT-74" d="M 1031 3803 
L 1031 2863 
L 1700 2863 
L 1700 2644 
L 1031 2644 
L 1031 788 
Q 1031 509 1111 412 
Q 1191 316 1316 316 
Q 1419 316 1516 380 
Q 1613 444 1666 569 
L 1788 569 
Q 1678 263 1478 108 
Q 1278 -47 1066 -47 
Q 922 -47 784 33 
Q 647 113 581 261 
Q 516 409 516 719 
L 516 2644 
L 63 2644 
L 63 2747 
Q 234 2816 414 2980 
Q 594 3144 734 3369 
Q 806 3488 934 3803 
L 1031 3803 
z
" transform="scale(0.015625)"/>
       <path id="TimesNewRomanPSMT-69" d="M 928 4444 
Q 1059 4444 1151 4351 
Q 1244 4259 1244 4128 
Q 1244 3997 1151 3903 
Q 1059 3809 928 3809 
Q 797 3809 703 3903 
Q 609 3997 609 4128 
Q 609 4259 701 4351 
Q 794 4444 928 4444 
z
M 1188 2947 
L 1188 647 
Q 1188 378 1227 289 
Q 1266 200 1342 156 
Q 1419 113 1622 113 
L 1622 0 
L 231 0 
L 231 113 
Q 441 113 512 153 
Q 584 194 626 287 
Q 669 381 669 647 
L 669 1750 
Q 669 2216 641 2353 
Q 619 2453 572 2492 
Q 525 2531 444 2531 
Q 356 2531 231 2484 
L 188 2597 
L 1050 2947 
L 1188 2947 
z
" transform="scale(0.015625)"/>
       <path id="TimesNewRomanPSMT-6c" d="M 1184 4444 
L 1184 647 
Q 1184 378 1223 290 
Q 1263 203 1344 158 
Q 1425 113 1647 113 
L 1647 0 
L 244 0 
L 244 113 
Q 441 113 512 153 
Q 584 194 625 287 
Q 666 381 666 647 
L 666 3247 
Q 666 3731 644 3842 
Q 622 3953 573 3993 
Q 525 4034 450 4034 
Q 369 4034 244 3984 
L 191 4094 
L 1044 4444 
L 1184 4444 
z
" transform="scale(0.015625)"/>
       <path id="TimesNewRomanPSMT-7a" d="M 2688 878 
L 2653 0 
L 128 0 
L 128 113 
L 2028 2644 
L 1091 2644 
Q 788 2644 694 2605 
Q 600 2566 541 2456 
Q 456 2300 444 2069 
L 319 2069 
L 338 2863 
L 2738 2863 
L 2738 2747 
L 819 209 
L 1863 209 
Q 2191 209 2308 264 
Q 2425 319 2497 456 
Q 2547 556 2581 878 
L 2688 878 
z
" transform="scale(0.015625)"/>
       <path id="TimesNewRomanPSMT-61" d="M 1822 413 
Q 1381 72 1269 19 
Q 1100 -59 909 -59 
Q 613 -59 420 144 
Q 228 347 228 678 
Q 228 888 322 1041 
Q 450 1253 767 1440 
Q 1084 1628 1822 1897 
L 1822 2009 
Q 1822 2438 1686 2597 
Q 1550 2756 1291 2756 
Q 1094 2756 978 2650 
Q 859 2544 859 2406 
L 866 2225 
Q 866 2081 792 2003 
Q 719 1925 600 1925 
Q 484 1925 411 2006 
Q 338 2088 338 2228 
Q 338 2497 613 2722 
Q 888 2947 1384 2947 
Q 1766 2947 2009 2819 
Q 2194 2722 2281 2516 
Q 2338 2381 2338 1966 
L 2338 994 
Q 2338 584 2353 492 
Q 2369 400 2405 369 
Q 2441 338 2488 338 
Q 2538 338 2575 359 
Q 2641 400 2828 588 
L 2828 413 
Q 2478 -56 2159 -56 
Q 2006 -56 1915 50 
Q 1825 156 1822 413 
z
M 1822 616 
L 1822 1706 
Q 1350 1519 1213 1441 
Q 966 1303 859 1153 
Q 753 1003 753 825 
Q 753 600 887 451 
Q 1022 303 1197 303 
Q 1434 303 1822 616 
z
" transform="scale(0.015625)"/>
       <path id="TimesNewRomanPSMT-6f" d="M 1600 2947 
Q 2250 2947 2644 2453 
Q 2978 2031 2978 1484 
Q 2978 1100 2793 706 
Q 2609 313 2286 112 
Q 1963 -88 1566 -88 
Q 919 -88 538 428 
Q 216 863 216 1403 
Q 216 1797 411 2186 
Q 606 2575 925 2761 
Q 1244 2947 1600 2947 
z
M 1503 2744 
Q 1338 2744 1170 2645 
Q 1003 2547 900 2300 
Q 797 2053 797 1666 
Q 797 1041 1045 587 
Q 1294 134 1700 134 
Q 2003 134 2200 384 
Q 2397 634 2397 1244 
Q 2397 2006 2069 2444 
Q 1847 2744 1503 2744 
z
" transform="scale(0.015625)"/>
       <path id="TimesNewRomanPSMT-6e" d="M 1034 2341 
Q 1538 2947 1994 2947 
Q 2228 2947 2397 2830 
Q 2566 2713 2666 2444 
Q 2734 2256 2734 1869 
L 2734 647 
Q 2734 375 2778 278 
Q 2813 200 2889 156 
Q 2966 113 3172 113 
L 3172 0 
L 1756 0 
L 1756 113 
L 1816 113 
Q 2016 113 2095 173 
Q 2175 234 2206 353 
Q 2219 400 2219 647 
L 2219 1819 
Q 2219 2209 2117 2386 
Q 2016 2563 1775 2563 
Q 1403 2563 1034 2156 
L 1034 647 
Q 1034 356 1069 288 
Q 1113 197 1189 155 
Q 1266 113 1500 113 
L 1500 0 
L 84 0 
L 84 113 
L 147 113 
Q 366 113 442 223 
Q 519 334 519 647 
L 519 1709 
Q 519 2225 495 2337 
Q 472 2450 423 2490 
Q 375 2531 294 2531 
Q 206 2531 84 2484 
L 38 2597 
L 900 2947 
L 1034 2947 
L 1034 2341 
z
" transform="scale(0.015625)"/>
       <path id="TimesNewRomanPSMT-20" transform="scale(0.015625)"/>
       <path id="TimesNewRomanPSMT-66" d="M 1319 2638 
L 1319 756 
Q 1319 356 1406 250 
Q 1522 113 1716 113 
L 1975 113 
L 1975 0 
L 266 0 
L 266 113 
L 394 113 
Q 519 113 622 175 
Q 725 238 764 344 
Q 803 450 803 756 
L 803 2638 
L 247 2638 
L 247 2863 
L 803 2863 
L 803 3050 
Q 803 3478 940 3775 
Q 1078 4072 1361 4255 
Q 1644 4438 1997 4438 
Q 2325 4438 2600 4225 
Q 2781 4084 2781 3909 
Q 2781 3816 2700 3733 
Q 2619 3650 2525 3650 
Q 2453 3650 2373 3701 
Q 2294 3753 2178 3923 
Q 2063 4094 1966 4153 
Q 1869 4213 1750 4213 
Q 1606 4213 1506 4136 
Q 1406 4059 1362 3898 
Q 1319 3738 1319 3069 
L 1319 2863 
L 2056 2863 
L 2056 2638 
L 1319 2638 
z
" transform="scale(0.015625)"/>
       <path id="TimesNewRomanPSMT-73" d="M 2050 2947 
L 2050 1972 
L 1947 1972 
Q 1828 2431 1642 2597 
Q 1456 2763 1169 2763 
Q 950 2763 815 2647 
Q 681 2531 681 2391 
Q 681 2216 781 2091 
Q 878 1963 1175 1819 
L 1631 1597 
Q 2266 1288 2266 781 
Q 2266 391 1970 151 
Q 1675 -88 1309 -88 
Q 1047 -88 709 6 
Q 606 38 541 38 
Q 469 38 428 -44 
L 325 -44 
L 325 978 
L 428 978 
Q 516 541 762 319 
Q 1009 97 1316 97 
Q 1531 97 1667 223 
Q 1803 350 1803 528 
Q 1803 744 1651 891 
Q 1500 1038 1047 1263 
Q 594 1488 453 1669 
Q 313 1847 313 2119 
Q 313 2472 555 2709 
Q 797 2947 1181 2947 
Q 1350 2947 1591 2875 
Q 1750 2828 1803 2828 
Q 1853 2828 1881 2850 
Q 1909 2872 1947 2947 
L 2050 2947 
z
" transform="scale(0.015625)"/>
       <path id="TimesNewRomanPSMT-6b" d="M 1047 4444 
L 1047 1597 
L 1775 2259 
Q 2006 2472 2044 2528 
Q 2069 2566 2069 2603 
Q 2069 2666 2017 2711 
Q 1966 2756 1847 2763 
L 1847 2863 
L 3091 2863 
L 3091 2763 
Q 2834 2756 2664 2684 
Q 2494 2613 2291 2428 
L 1556 1750 
L 2291 822 
Q 2597 438 2703 334 
Q 2853 188 2966 144 
Q 3044 113 3238 113 
L 3238 0 
L 1847 0 
L 1847 113 
Q 1966 116 2008 148 
Q 2050 181 2050 241 
Q 2050 313 1925 472 
L 1047 1594 
L 1047 644 
Q 1047 366 1086 278 
Q 1125 191 1197 153 
Q 1269 116 1509 113 
L 1509 0 
L 53 0 
L 53 113 
Q 272 113 381 166 
Q 447 200 481 272 
Q 528 375 528 628 
L 528 3234 
Q 528 3731 506 3842 
Q 484 3953 434 3995 
Q 384 4038 303 4038 
Q 238 4038 106 3984 
L 53 4094 
L 903 4444 
L 1047 4444 
z
" transform="scale(0.015625)"/>
       <path id="TimesNewRomanPSMT-65" d="M 681 1784 
Q 678 1147 991 784 
Q 1303 422 1725 422 
Q 2006 422 2214 576 
Q 2422 731 2563 1106 
L 2659 1044 
Q 2594 616 2278 264 
Q 1963 -88 1488 -88 
Q 972 -88 605 314 
Q 238 716 238 1394 
Q 238 2128 614 2539 
Q 991 2950 1559 2950 
Q 2041 2950 2350 2633 
Q 2659 2316 2659 1784 
L 681 1784 
z
M 681 1966 
L 2006 1966 
Q 1991 2241 1941 2353 
Q 1863 2528 1708 2628 
Q 1553 2728 1384 2728 
Q 1125 2728 920 2526 
Q 716 2325 681 1966 
z
" transform="scale(0.015625)"/>
       <path id="TimesNewRomanPSMT-4c" d="M 3669 1172 
L 3772 1150 
L 3409 0 
L 128 0 
L 128 116 
L 288 116 
Q 556 116 672 291 
Q 738 391 738 753 
L 738 3488 
Q 738 3884 650 3984 
Q 528 4122 288 4122 
L 128 4122 
L 128 4238 
L 2047 4238 
L 2047 4122 
Q 1709 4125 1573 4059 
Q 1438 3994 1388 3894 
Q 1338 3794 1338 3416 
L 1338 753 
Q 1338 494 1388 397 
Q 1425 331 1503 300 
Q 1581 269 1991 269 
L 2300 269 
Q 2788 269 2984 341 
Q 3181 413 3343 595 
Q 3506 778 3669 1172 
z
" transform="scale(0.015625)"/>
       <path id="TimesNewRomanPSMT-4f" d="M 2341 4334 
Q 3166 4334 3770 3707 
Q 4375 3081 4375 2144 
Q 4375 1178 3765 540 
Q 3156 -97 2291 -97 
Q 1416 -97 820 525 
Q 225 1147 225 2134 
Q 225 3144 913 3781 
Q 1509 4334 2341 4334 
z
M 2281 4106 
Q 1713 4106 1369 3684 
Q 941 3159 941 2147 
Q 941 1109 1384 550 
Q 1725 125 2284 125 
Q 2881 125 3270 590 
Q 3659 1056 3659 2059 
Q 3659 3147 3231 3681 
Q 2888 4106 2281 4106 
z
" transform="scale(0.015625)"/>
       <path id="TimesNewRomanPSMT-6d" d="M 1050 2338 
Q 1363 2650 1419 2697 
Q 1559 2816 1721 2881 
Q 1884 2947 2044 2947 
Q 2313 2947 2506 2790 
Q 2700 2634 2766 2338 
Q 3088 2713 3309 2830 
Q 3531 2947 3766 2947 
Q 3994 2947 4170 2830 
Q 4347 2713 4450 2447 
Q 4519 2266 4519 1878 
L 4519 647 
Q 4519 378 4559 278 
Q 4591 209 4675 161 
Q 4759 113 4950 113 
L 4950 0 
L 3538 0 
L 3538 113 
L 3597 113 
Q 3781 113 3884 184 
Q 3956 234 3988 344 
Q 4000 397 4000 647 
L 4000 1878 
Q 4000 2228 3916 2372 
Q 3794 2572 3525 2572 
Q 3359 2572 3192 2489 
Q 3025 2406 2788 2181 
L 2781 2147 
L 2788 2013 
L 2788 647 
Q 2788 353 2820 281 
Q 2853 209 2943 161 
Q 3034 113 3253 113 
L 3253 0 
L 1806 0 
L 1806 113 
Q 2044 113 2133 169 
Q 2222 225 2256 338 
Q 2272 391 2272 647 
L 2272 1878 
Q 2272 2228 2169 2381 
Q 2031 2581 1784 2581 
Q 1616 2581 1450 2491 
Q 1191 2353 1050 2181 
L 1050 647 
Q 1050 366 1089 281 
Q 1128 197 1204 155 
Q 1281 113 1516 113 
L 1516 0 
L 100 0 
L 100 113 
Q 297 113 375 155 
Q 453 197 493 289 
Q 534 381 534 647 
L 534 1741 
Q 534 2213 506 2350 
Q 484 2453 437 2492 
Q 391 2531 309 2531 
Q 222 2531 100 2484 
L 53 2597 
L 916 2947 
L 1050 2947 
L 1050 2338 
z
" transform="scale(0.015625)"/>
       <path id="TimesNewRomanPSMT-64" d="M 2222 322 
Q 2013 103 1813 7 
Q 1613 -88 1381 -88 
Q 913 -88 563 304 
Q 213 697 213 1313 
Q 213 1928 600 2439 
Q 988 2950 1597 2950 
Q 1975 2950 2222 2709 
L 2222 3238 
Q 2222 3728 2198 3840 
Q 2175 3953 2125 3993 
Q 2075 4034 2000 4034 
Q 1919 4034 1784 3984 
L 1744 4094 
L 2597 4444 
L 2738 4444 
L 2738 1134 
Q 2738 631 2761 520 
Q 2784 409 2836 365 
Q 2888 322 2956 322 
Q 3041 322 3181 375 
L 3216 266 
L 2366 -88 
L 2222 -88 
L 2222 322 
z
M 2222 541 
L 2222 2016 
Q 2203 2228 2109 2403 
Q 2016 2578 1861 2667 
Q 1706 2756 1559 2756 
Q 1284 2756 1069 2509 
Q 784 2184 784 1559 
Q 784 928 1059 592 
Q 1334 256 1672 256 
Q 1956 256 2222 541 
z
" transform="scale(0.015625)"/>
      </defs>
      <use xlink:href="#TimesNewRomanPSMT-75"/>
      <use xlink:href="#TimesNewRomanPSMT-74" x="50"/>
      <use xlink:href="#TimesNewRomanPSMT-69" x="77.783203"/>
      <use xlink:href="#TimesNewRomanPSMT-6c" x="105.566406"/>
      <use xlink:href="#TimesNewRomanPSMT-69" x="133.349609"/>
      <use xlink:href="#TimesNewRomanPSMT-7a" x="161.132812"/>
      <use xlink:href="#TimesNewRomanPSMT-61" x="205.517578"/>
      <use xlink:href="#TimesNewRomanPSMT-74" x="249.902344"/>
      <use xlink:href="#TimesNewRomanPSMT-69" x="277.685547"/>
      <use xlink:href="#TimesNewRomanPSMT-6f" x="305.46875"/>
      <use xlink:href="#TimesNewRomanPSMT-6e" x="355.46875"/>
      <use xlink:href="#TimesNewRomanPSMT-20" x="405.46875"/>
      <use xlink:href="#TimesNewRomanPSMT-6f" x="430.46875"/>
      <use xlink:href="#TimesNewRomanPSMT-66" x="480.46875"/>
      <use xlink:href="#TimesNewRomanPSMT-20" x="513.769531"/>
      <use xlink:href="#TimesNewRomanPSMT-74" x="538.769531"/>
      <use xlink:href="#TimesNewRomanPSMT-61" x="566.552734"/>
      <use xlink:href="#TimesNewRomanPSMT-73" x="610.9375"/>
      <use xlink:href="#TimesNewRomanPSMT-6b" x="649.853516"/>
      <use xlink:href="#TimesNewRomanPSMT-73" x="699.853516"/>
      <use xlink:href="#TimesNewRomanPSMT-65" x="738.769531"/>
      <use xlink:href="#TimesNewRomanPSMT-74" x="783.154297"/>
      <use xlink:href="#TimesNewRomanPSMT-20" x="810.9375"/>
      <use xlink:href="#TimesNewRomanPSMT-69" x="835.9375"/>
      <use xlink:href="#TimesNewRomanPSMT-6e" x="863.720703"/>
      <use xlink:href="#TimesNewRomanPSMT-20" x="913.720703"/>
      <use xlink:href="#TimesNewRomanPSMT-4c" x="938.720703"/>
      <use xlink:href="#TimesNewRomanPSMT-4f" x="999.804688"/>
      <use xlink:href="#TimesNewRomanPSMT-20" x="1072.021484"/>
      <use xlink:href="#TimesNewRomanPSMT-6d" x="1097.021484"/>
      <use xlink:href="#TimesNewRomanPSMT-6f" x="1174.804688"/>
      <use xlink:href="#TimesNewRomanPSMT-64" x="1224.804688"/>
      <use xlink:href="#TimesNewRomanPSMT-65" x="1274.804688"/>
     </g>
    </g>
   </g>
   <g id="matplotlib.axis_2">
    <g id="ytick_1">
     <g id="line2d_6">
      <defs>
       <path id="m4c05783e1b" d="M 0 0 
L -3.5 0 
" style="stroke: #000000; stroke-width: 0.8"/>
      </defs>
      <g>
       <use xlink:href="#m4c05783e1b" x="56.7325" y="214.756364" style="stroke: #000000; stroke-width: 0.8"/>
      </g>
     </g>
     <g id="text_7">
      <!-- 0 -->
      <g transform="translate(41.7325 220.311364)scale(0.16 -0.16)">
       <use xlink:href="#TimesNewRomanPSMT-30"/>
      </g>
     </g>
    </g>
    <g id="ytick_2">
     <g id="line2d_7">
      <g>
       <use xlink:href="#m4c05783e1b" x="56.7325" y="175.221818" style="stroke: #000000; stroke-width: 0.8"/>
      </g>
     </g>
     <g id="text_8">
      <!-- 20 -->
      <g transform="translate(33.7325 180.776818)scale(0.16 -0.16)">
       <use xlink:href="#TimesNewRomanPSMT-32"/>
       <use xlink:href="#TimesNewRomanPSMT-30" x="50"/>
      </g>
     </g>
    </g>
    <g id="ytick_3">
     <g id="line2d_8">
      <g>
       <use xlink:href="#m4c05783e1b" x="56.7325" y="135.687273" style="stroke: #000000; stroke-width: 0.8"/>
      </g>
     </g>
     <g id="text_9">
      <!-- 40 -->
      <g transform="translate(33.7325 141.242273)scale(0.16 -0.16)">
       <use xlink:href="#TimesNewRomanPSMT-34"/>
       <use xlink:href="#TimesNewRomanPSMT-30" x="50"/>
      </g>
     </g>
    </g>
    <g id="ytick_4">
     <g id="line2d_9">
      <g>
       <use xlink:href="#m4c05783e1b" x="56.7325" y="96.152727" style="stroke: #000000; stroke-width: 0.8"/>
      </g>
     </g>
     <g id="text_10">
      <!-- 60 -->
      <g transform="translate(33.7325 101.707727)scale(0.16 -0.16)">
       <use xlink:href="#TimesNewRomanPSMT-36"/>
       <use xlink:href="#TimesNewRomanPSMT-30" x="50"/>
      </g>
     </g>
    </g>
    <g id="ytick_5">
     <g id="line2d_10">
      <g>
       <use xlink:href="#m4c05783e1b" x="56.7325" y="56.618182" style="stroke: #000000; stroke-width: 0.8"/>
      </g>
     </g>
     <g id="text_11">
      <!-- 80 -->
      <g transform="translate(33.7325 62.173182)scale(0.16 -0.16)">
       <defs>
        <path id="TimesNewRomanPSMT-38" d="M 1228 2134 
Q 725 2547 579 2797 
Q 434 3047 434 3316 
Q 434 3728 753 4026 
Q 1072 4325 1600 4325 
Q 2113 4325 2425 4047 
Q 2738 3769 2738 3413 
Q 2738 3175 2569 2928 
Q 2400 2681 1866 2347 
Q 2416 1922 2594 1678 
Q 2831 1359 2831 1006 
Q 2831 559 2490 242 
Q 2150 -75 1597 -75 
Q 994 -75 656 303 
Q 388 606 388 966 
Q 388 1247 577 1523 
Q 766 1800 1228 2134 
z
M 1719 2469 
Q 2094 2806 2194 3001 
Q 2294 3197 2294 3444 
Q 2294 3772 2109 3958 
Q 1925 4144 1606 4144 
Q 1288 4144 1088 3959 
Q 888 3775 888 3528 
Q 888 3366 970 3203 
Q 1053 3041 1206 2894 
L 1719 2469 
z
M 1375 2016 
Q 1116 1797 991 1539 
Q 866 1281 866 981 
Q 866 578 1086 336 
Q 1306 94 1647 94 
Q 1984 94 2187 284 
Q 2391 475 2391 747 
Q 2391 972 2272 1150 
Q 2050 1481 1375 2016 
z
" transform="scale(0.015625)"/>
       </defs>
       <use xlink:href="#TimesNewRomanPSMT-38"/>
       <use xlink:href="#TimesNewRomanPSMT-30" x="50"/>
      </g>
     </g>
    </g>
    <g id="ytick_6">
     <g id="line2d_11">
      <g>
       <use xlink:href="#m4c05783e1b" x="56.7325" y="17.083636" style="stroke: #000000; stroke-width: 0.8"/>
      </g>
     </g>
     <g id="text_12">
      <!-- 100 -->
      <g transform="translate(25.7325 22.638636)scale(0.16 -0.16)">
       <defs>
        <path id="TimesNewRomanPSMT-31" d="M 750 3822 
L 1781 4325 
L 1884 4325 
L 1884 747 
Q 1884 391 1914 303 
Q 1944 216 2037 169 
Q 2131 122 2419 116 
L 2419 0 
L 825 0 
L 825 116 
Q 1125 122 1212 167 
Q 1300 213 1334 289 
Q 1369 366 1369 747 
L 1369 3034 
Q 1369 3497 1338 3628 
Q 1316 3728 1258 3775 
Q 1200 3822 1119 3822 
Q 1003 3822 797 3725 
L 750 3822 
z
" transform="scale(0.015625)"/>
       </defs>
       <use xlink:href="#TimesNewRomanPSMT-31"/>
       <use xlink:href="#TimesNewRomanPSMT-30" x="50"/>
       <use xlink:href="#TimesNewRomanPSMT-30" x="100"/>
      </g>
     </g>
    </g>
    <g id="text_13">
     <!-- % of schedulable -->
     <g transform="translate(18.31 171.01125)rotate(-90)scale(0.16 -0.16)">
      <defs>
       <path id="TimesNewRomanPSMT-25" d="M 4350 4334 
L 1263 -175 
L 984 -175 
L 4072 4334 
L 4350 4334 
z
M 1138 4334 
Q 1559 4334 1792 3984 
Q 2025 3634 2025 3181 
Q 2025 2638 1762 2341 
Q 1500 2044 1131 2044 
Q 884 2044 678 2180 
Q 472 2316 348 2584 
Q 225 2853 225 3181 
Q 225 3509 350 3786 
Q 475 4063 692 4198 
Q 909 4334 1138 4334 
z
M 1128 4159 
Q 969 4159 845 3971 
Q 722 3784 722 3184 
Q 722 2750 791 2522 
Q 844 2350 956 2256 
Q 1022 2200 1119 2200 
Q 1269 2200 1375 2363 
Q 1531 2603 1531 3166 
Q 1531 3759 1378 4000 
Q 1278 4159 1128 4159 
z
M 4206 2103 
Q 4428 2103 4648 1962 
Q 4869 1822 4989 1553 
Q 5109 1284 5109 963 
Q 5109 409 4843 117 
Q 4578 -175 4216 -175 
Q 3988 -175 3773 -34 
Q 3559 106 3436 367 
Q 3313 628 3313 963 
Q 3313 1291 3436 1562 
Q 3559 1834 3773 1968 
Q 3988 2103 4206 2103 
z
M 4209 1938 
Q 4059 1938 3950 1769 
Q 3809 1550 3809 941 
Q 3809 381 3953 159 
Q 4059 0 4209 0 
Q 4353 0 4466 172 
Q 4616 400 4616 956 
Q 4616 1544 4466 1778 
Q 4363 1938 4209 1938 
z
" transform="scale(0.015625)"/>
       <path id="TimesNewRomanPSMT-63" d="M 2631 1088 
Q 2516 522 2178 217 
Q 1841 -88 1431 -88 
Q 944 -88 581 321 
Q 219 731 219 1428 
Q 219 2103 620 2525 
Q 1022 2947 1584 2947 
Q 2006 2947 2278 2723 
Q 2550 2500 2550 2259 
Q 2550 2141 2473 2067 
Q 2397 1994 2259 1994 
Q 2075 1994 1981 2113 
Q 1928 2178 1911 2362 
Q 1894 2547 1784 2644 
Q 1675 2738 1481 2738 
Q 1169 2738 978 2506 
Q 725 2200 725 1697 
Q 725 1184 976 792 
Q 1228 400 1656 400 
Q 1963 400 2206 609 
Q 2378 753 2541 1131 
L 2631 1088 
z
" transform="scale(0.015625)"/>
       <path id="TimesNewRomanPSMT-68" d="M 1041 4444 
L 1041 2350 
Q 1388 2731 1591 2839 
Q 1794 2947 1997 2947 
Q 2241 2947 2416 2812 
Q 2591 2678 2675 2391 
Q 2734 2191 2734 1659 
L 2734 647 
Q 2734 375 2778 275 
Q 2809 200 2884 156 
Q 2959 113 3159 113 
L 3159 0 
L 1753 0 
L 1753 113 
L 1819 113 
Q 2019 113 2097 173 
Q 2175 234 2206 353 
Q 2216 403 2216 647 
L 2216 1659 
Q 2216 2128 2167 2275 
Q 2119 2422 2012 2495 
Q 1906 2569 1756 2569 
Q 1603 2569 1437 2487 
Q 1272 2406 1041 2159 
L 1041 647 
Q 1041 353 1073 281 
Q 1106 209 1195 161 
Q 1284 113 1503 113 
L 1503 0 
L 84 0 
L 84 113 
Q 275 113 384 172 
Q 447 203 484 290 
Q 522 378 522 647 
L 522 3238 
Q 522 3728 498 3840 
Q 475 3953 426 3993 
Q 378 4034 297 4034 
Q 231 4034 84 3984 
L 41 4094 
L 897 4444 
L 1041 4444 
z
" transform="scale(0.015625)"/>
       <path id="TimesNewRomanPSMT-62" d="M 984 2369 
Q 1400 2947 1881 2947 
Q 2322 2947 2650 2570 
Q 2978 2194 2978 1541 
Q 2978 778 2472 313 
Q 2038 -88 1503 -88 
Q 1253 -88 995 3 
Q 738 94 469 275 
L 469 3241 
Q 469 3728 445 3840 
Q 422 3953 372 3993 
Q 322 4034 247 4034 
Q 159 4034 28 3984 
L -16 4094 
L 844 4444 
L 984 4444 
L 984 2369 
z
M 984 2169 
L 984 456 
Q 1144 300 1314 220 
Q 1484 141 1663 141 
Q 1947 141 2192 453 
Q 2438 766 2438 1363 
Q 2438 1913 2192 2208 
Q 1947 2503 1634 2503 
Q 1469 2503 1303 2419 
Q 1178 2356 984 2169 
z
" transform="scale(0.015625)"/>
      </defs>
      <use xlink:href="#TimesNewRomanPSMT-25"/>
      <use xlink:href="#TimesNewRomanPSMT-20" x="83.300781"/>
      <use xlink:href="#TimesNewRomanPSMT-6f" x="108.300781"/>
      <use xlink:href="#TimesNewRomanPSMT-66" x="158.300781"/>
      <use xlink:href="#TimesNewRomanPSMT-20" x="191.601562"/>
      <use xlink:href="#TimesNewRomanPSMT-73" x="216.601562"/>
      <use xlink:href="#TimesNewRomanPSMT-63" x="255.517578"/>
      <use xlink:href="#TimesNewRomanPSMT-68" x="299.902344"/>
      <use xlink:href="#TimesNewRomanPSMT-65" x="349.902344"/>
      <use xlink:href="#TimesNewRomanPSMT-64" x="394.287109"/>
      <use xlink:href="#TimesNewRomanPSMT-75" x="444.287109"/>
      <use xlink:href="#TimesNewRomanPSMT-6c" x="494.287109"/>
      <use xlink:href="#TimesNewRomanPSMT-61" x="522.070312"/>
      <use xlink:href="#TimesNewRomanPSMT-62" x="566.455078"/>
      <use xlink:href="#TimesNewRomanPSMT-6c" x="616.455078"/>
      <use xlink:href="#TimesNewRomanPSMT-65" x="644.238281"/>
     </g>
    </g>
   </g>
   <g id="line2d_12">
    <path d="M 63.855904 86.466764 
L 99.472926 122.838545 
L 135.089947 154.861527 
L 170.706968 179.175273 
L 206.323989 197.163491 
L 241.941011 211.5936 
L 277.558032 213.570327 
L 313.175053 214.756364 
L 348.792074 214.756364 
L 384.409096 214.756364 
" clip-path="url(#p208f588762)" style="fill: none; stroke-dasharray: 6.4,1.6,1,1.6; stroke-dashoffset: 0; stroke: #4169e1"/>
    <defs>
     <path id="m6ec4a6c903" d="M 0 3 
C 0.795609 3 1.55874 2.683901 2.12132 2.12132 
C 2.683901 1.55874 3 0.795609 3 0 
C 3 -0.795609 2.683901 -1.55874 2.12132 -2.12132 
C 1.55874 -2.683901 0.795609 -3 0 -3 
C -0.795609 -3 -1.55874 -2.683901 -2.12132 -2.12132 
C -2.683901 -1.55874 -3 -0.795609 -3 0 
C -3 0.795609 -2.683901 1.55874 -2.12132 2.12132 
C -1.55874 2.683901 -0.795609 3 0 3 
z
" style="stroke: #4169e1"/>
    </defs>
    <g clip-path="url(#p208f588762)">
     <use xlink:href="#m6ec4a6c903" x="63.855904" y="86.466764" style="fill: #4169e1; stroke: #4169e1"/>
     <use xlink:href="#m6ec4a6c903" x="99.472926" y="122.838545" style="fill: #4169e1; stroke: #4169e1"/>
     <use xlink:href="#m6ec4a6c903" x="135.089947" y="154.861527" style="fill: #4169e1; stroke: #4169e1"/>
     <use xlink:href="#m6ec4a6c903" x="170.706968" y="179.175273" style="fill: #4169e1; stroke: #4169e1"/>
     <use xlink:href="#m6ec4a6c903" x="206.323989" y="197.163491" style="fill: #4169e1; stroke: #4169e1"/>
     <use xlink:href="#m6ec4a6c903" x="241.941011" y="211.5936" style="fill: #4169e1; stroke: #4169e1"/>
     <use xlink:href="#m6ec4a6c903" x="277.558032" y="213.570327" style="fill: #4169e1; stroke: #4169e1"/>
     <use xlink:href="#m6ec4a6c903" x="313.175053" y="214.756364" style="fill: #4169e1; stroke: #4169e1"/>
     <use xlink:href="#m6ec4a6c903" x="348.792074" y="214.756364" style="fill: #4169e1; stroke: #4169e1"/>
     <use xlink:href="#m6ec4a6c903" x="384.409096" y="214.756364" style="fill: #4169e1; stroke: #4169e1"/>
    </g>
   </g>
   <g id="line2d_13">
    <path d="M 63.855904 17.083636 
L 99.472926 17.281309 
L 135.089947 22.025455 
L 170.706968 36.257891 
L 206.323989 85.280727 
L 241.941011 134.698909 
L 277.558032 187.082182 
L 313.175053 208.035491 
L 348.792074 213.768 
L 384.409096 214.756364 
" clip-path="url(#p208f588762)" style="fill: none; stroke-dasharray: 6.4,1.6,1,1.6; stroke-dashoffset: 0; stroke: #ff0000"/>
    <defs>
     <path id="ma1a9e1d04b" d="M -3 3 
L 3 -3 
M -3 -3 
L 3 3 
" style="stroke: #ff0000"/>
    </defs>
    <g clip-path="url(#p208f588762)">
     <use xlink:href="#ma1a9e1d04b" x="63.855904" y="17.083636" style="fill: #ff0000; stroke: #ff0000"/>
     <use xlink:href="#ma1a9e1d04b" x="99.472926" y="17.281309" style="fill: #ff0000; stroke: #ff0000"/>
     <use xlink:href="#ma1a9e1d04b" x="135.089947" y="22.025455" style="fill: #ff0000; stroke: #ff0000"/>
     <use xlink:href="#ma1a9e1d04b" x="170.706968" y="36.257891" style="fill: #ff0000; stroke: #ff0000"/>
     <use xlink:href="#ma1a9e1d04b" x="206.323989" y="85.280727" style="fill: #ff0000; stroke: #ff0000"/>
     <use xlink:href="#ma1a9e1d04b" x="241.941011" y="134.698909" style="fill: #ff0000; stroke: #ff0000"/>
     <use xlink:href="#ma1a9e1d04b" x="277.558032" y="187.082182" style="fill: #ff0000; stroke: #ff0000"/>
     <use xlink:href="#ma1a9e1d04b" x="313.175053" y="208.035491" style="fill: #ff0000; stroke: #ff0000"/>
     <use xlink:href="#ma1a9e1d04b" x="348.792074" y="213.768" style="fill: #ff0000; stroke: #ff0000"/>
     <use xlink:href="#ma1a9e1d04b" x="384.409096" y="214.756364" style="fill: #ff0000; stroke: #ff0000"/>
    </g>
   </g>
   <g id="line2d_14">
    <path d="M 63.855904 73.222691 
L 99.472926 111.966545 
L 135.089947 135.687273 
L 170.706968 173.640436 
L 206.323989 193.012364 
L 241.941011 206.058764 
L 277.558032 213.372655 
L 313.175053 214.756364 
L 348.792074 214.756364 
L 384.409096 214.756364 
" clip-path="url(#p208f588762)" style="fill: none; stroke-dasharray: 6.4,1.6,1,1.6; stroke-dashoffset: 0; stroke: #2e8b57"/>
    <defs>
     <path id="m144588c85d" d="M 0 -3 
L -0.673542 -0.927051 
L -2.85317 -0.927051 
L -1.089814 0.354102 
L -1.763356 2.427051 
L -0 1.145898 
L 1.763356 2.427051 
L 1.089814 0.354102 
L 2.85317 -0.927051 
L 0.673542 -0.927051 
z
" style="stroke: #2e8b57; stroke-linejoin: bevel"/>
    </defs>
    <g clip-path="url(#p208f588762)">
     <use xlink:href="#m144588c85d" x="63.855904" y="73.222691" style="fill: #2e8b57; stroke: #2e8b57; stroke-linejoin: bevel"/>
     <use xlink:href="#m144588c85d" x="99.472926" y="111.966545" style="fill: #2e8b57; stroke: #2e8b57; stroke-linejoin: bevel"/>
     <use xlink:href="#m144588c85d" x="135.089947" y="135.687273" style="fill: #2e8b57; stroke: #2e8b57; stroke-linejoin: bevel"/>
     <use xlink:href="#m144588c85d" x="170.706968" y="173.640436" style="fill: #2e8b57; stroke: #2e8b57; stroke-linejoin: bevel"/>
     <use xlink:href="#m144588c85d" x="206.323989" y="193.012364" style="fill: #2e8b57; stroke: #2e8b57; stroke-linejoin: bevel"/>
     <use xlink:href="#m144588c85d" x="241.941011" y="206.058764" style="fill: #2e8b57; stroke: #2e8b57; stroke-linejoin: bevel"/>
     <use xlink:href="#m144588c85d" x="277.558032" y="213.372655" style="fill: #2e8b57; stroke: #2e8b57; stroke-linejoin: bevel"/>
     <use xlink:href="#m144588c85d" x="313.175053" y="214.756364" style="fill: #2e8b57; stroke: #2e8b57; stroke-linejoin: bevel"/>
     <use xlink:href="#m144588c85d" x="348.792074" y="214.756364" style="fill: #2e8b57; stroke: #2e8b57; stroke-linejoin: bevel"/>
     <use xlink:href="#m144588c85d" x="384.409096" y="214.756364" style="fill: #2e8b57; stroke: #2e8b57; stroke-linejoin: bevel"/>
    </g>
   </g>
   <g id="line2d_15">
    <path d="M 63.855904 17.874327 
L 99.472926 24.002182 
L 135.089947 50.490327 
L 170.706968 93.582982 
L 206.323989 139.443055 
L 241.941011 171.466036 
L 277.558032 199.337891 
L 313.175053 210.605236 
L 348.792074 214.361018 
L 384.409096 214.558691 
" clip-path="url(#p208f588762)" style="fill: none; stroke-dasharray: 6.4,1.6,1,1.6; stroke-dashoffset: 0; stroke: #ff8c00"/>
    <defs>
     <path id="m5c06dfe38b" d="M 0 -3 
L -2.85317 -0.927051 
L -1.763356 2.427051 
L 1.763356 2.427051 
L 2.85317 -0.927051 
z
" style="stroke: #ff8c00; stroke-linejoin: miter"/>
    </defs>
    <g clip-path="url(#p208f588762)">
     <use xlink:href="#m5c06dfe38b" x="63.855904" y="17.874327" style="fill: #ff8c00; stroke: #ff8c00; stroke-linejoin: miter"/>
     <use xlink:href="#m5c06dfe38b" x="99.472926" y="24.002182" style="fill: #ff8c00; stroke: #ff8c00; stroke-linejoin: miter"/>
     <use xlink:href="#m5c06dfe38b" x="135.089947" y="50.490327" style="fill: #ff8c00; stroke: #ff8c00; stroke-linejoin: miter"/>
     <use xlink:href="#m5c06dfe38b" x="170.706968" y="93.582982" style="fill: #ff8c00; stroke: #ff8c00; stroke-linejoin: miter"/>
     <use xlink:href="#m5c06dfe38b" x="206.323989" y="139.443055" style="fill: #ff8c00; stroke: #ff8c00; stroke-linejoin: miter"/>
     <use xlink:href="#m5c06dfe38b" x="241.941011" y="171.466036" style="fill: #ff8c00; stroke: #ff8c00; stroke-linejoin: miter"/>
     <use xlink:href="#m5c06dfe38b" x="277.558032" y="199.337891" style="fill: #ff8c00; stroke: #ff8c00; stroke-linejoin: miter"/>
     <use xlink:href="#m5c06dfe38b" x="313.175053" y="210.605236" style="fill: #ff8c00; stroke: #ff8c00; stroke-linejoin: miter"/>
     <use xlink:href="#m5c06dfe38b" x="348.792074" y="214.361018" style="fill: #ff8c00; stroke: #ff8c00; stroke-linejoin: miter"/>
     <use xlink:href="#m5c06dfe38b" x="384.409096" y="214.558691" style="fill: #ff8c00; stroke: #ff8c00; stroke-linejoin: miter"/>
    </g>
   </g>
   <g id="line2d_16">
    <path d="M 63.855904 29.141673 
L 99.472926 85.083055 
L 135.089947 151.896436 
L 170.706968 186.686836 
L 206.323989 206.256436 
L 241.941011 212.186618 
L 277.558032 214.163345 
L 313.175053 214.756364 
L 348.792074 214.756364 
L 384.409096 214.756364 
" clip-path="url(#p208f588762)" style="fill: none; stroke-dasharray: 6.4,1.6,1,1.6; stroke-dashoffset: 0; stroke: #9370db"/>
    <defs>
     <path id="m6b40969c09" d="M -0 3 
L 3 -3 
L -3 -3 
z
" style="stroke: #9370db; stroke-linejoin: miter"/>
    </defs>
    <g clip-path="url(#p208f588762)">
     <use xlink:href="#m6b40969c09" x="63.855904" y="29.141673" style="fill: #9370db; stroke: #9370db; stroke-linejoin: miter"/>
     <use xlink:href="#m6b40969c09" x="99.472926" y="85.083055" style="fill: #9370db; stroke: #9370db; stroke-linejoin: miter"/>
     <use xlink:href="#m6b40969c09" x="135.089947" y="151.896436" style="fill: #9370db; stroke: #9370db; stroke-linejoin: miter"/>
     <use xlink:href="#m6b40969c09" x="170.706968" y="186.686836" style="fill: #9370db; stroke: #9370db; stroke-linejoin: miter"/>
     <use xlink:href="#m6b40969c09" x="206.323989" y="206.256436" style="fill: #9370db; stroke: #9370db; stroke-linejoin: miter"/>
     <use xlink:href="#m6b40969c09" x="241.941011" y="212.186618" style="fill: #9370db; stroke: #9370db; stroke-linejoin: miter"/>
     <use xlink:href="#m6b40969c09" x="277.558032" y="214.163345" style="fill: #9370db; stroke: #9370db; stroke-linejoin: miter"/>
     <use xlink:href="#m6b40969c09" x="313.175053" y="214.756364" style="fill: #9370db; stroke: #9370db; stroke-linejoin: miter"/>
     <use xlink:href="#m6b40969c09" x="348.792074" y="214.756364" style="fill: #9370db; stroke: #9370db; stroke-linejoin: miter"/>
     <use xlink:href="#m6b40969c09" x="384.409096" y="214.756364" style="fill: #9370db; stroke: #9370db; stroke-linejoin: miter"/>
    </g>
   </g>
   <g id="line2d_17">
    <path d="M 63.855904 24.002182 
L 99.472926 52.467055 
L 135.089947 117.699055 
L 170.706968 164.547491 
L 206.323989 198.151855 
L 241.941011 208.430836 
L 277.558032 213.372655 
L 313.175053 214.756364 
L 348.792074 214.756364 
L 384.409096 214.756364 
" clip-path="url(#p208f588762)" style="fill: none; stroke-dasharray: 6.4,1.6,1,1.6; stroke-dashoffset: 0; stroke: #a0522d"/>
    <defs>
     <path id="m358f083c72" d="M 0 -3 
L -2.598076 -1.5 
L -2.598076 1.5 
L -0 3 
L 2.598076 1.5 
L 2.598076 -1.5 
z
" style="stroke: #a0522d; stroke-linejoin: miter"/>
    </defs>
    <g clip-path="url(#p208f588762)">
     <use xlink:href="#m358f083c72" x="63.855904" y="24.002182" style="fill: #a0522d; stroke: #a0522d; stroke-linejoin: miter"/>
     <use xlink:href="#m358f083c72" x="99.472926" y="52.467055" style="fill: #a0522d; stroke: #a0522d; stroke-linejoin: miter"/>
     <use xlink:href="#m358f083c72" x="135.089947" y="117.699055" style="fill: #a0522d; stroke: #a0522d; stroke-linejoin: miter"/>
     <use xlink:href="#m358f083c72" x="170.706968" y="164.547491" style="fill: #a0522d; stroke: #a0522d; stroke-linejoin: miter"/>
     <use xlink:href="#m358f083c72" x="206.323989" y="198.151855" style="fill: #a0522d; stroke: #a0522d; stroke-linejoin: miter"/>
     <use xlink:href="#m358f083c72" x="241.941011" y="208.430836" style="fill: #a0522d; stroke: #a0522d; stroke-linejoin: miter"/>
     <use xlink:href="#m358f083c72" x="277.558032" y="213.372655" style="fill: #a0522d; stroke: #a0522d; stroke-linejoin: miter"/>
     <use xlink:href="#m358f083c72" x="313.175053" y="214.756364" style="fill: #a0522d; stroke: #a0522d; stroke-linejoin: miter"/>
     <use xlink:href="#m358f083c72" x="348.792074" y="214.756364" style="fill: #a0522d; stroke: #a0522d; stroke-linejoin: miter"/>
     <use xlink:href="#m358f083c72" x="384.409096" y="214.756364" style="fill: #a0522d; stroke: #a0522d; stroke-linejoin: miter"/>
    </g>
   </g>
   <g id="line2d_18">
    <path d="M 63.855904 17.478982 
L 99.472926 21.827782 
L 135.089947 40.211345 
L 170.706968 73.618036 
L 206.323989 119.675782 
L 241.941011 161.977745 
L 277.558032 195.779782 
L 313.175053 212.384291 
L 348.792074 213.965673 
L 384.409096 214.756364 
" clip-path="url(#p208f588762)" style="fill: none; stroke-dasharray: 6.4,1.6,1,1.6; stroke-dashoffset: 0; stroke: #008b8b"/>
    <defs>
     <path id="m4b4bee4aee" d="M -3 0 
L 3 0 
M 0 3 
L 0 -3 
" style="stroke: #008b8b"/>
    </defs>
    <g clip-path="url(#p208f588762)">
     <use xlink:href="#m4b4bee4aee" x="63.855904" y="17.478982" style="fill: #008b8b; stroke: #008b8b"/>
     <use xlink:href="#m4b4bee4aee" x="99.472926" y="21.827782" style="fill: #008b8b; stroke: #008b8b"/>
     <use xlink:href="#m4b4bee4aee" x="135.089947" y="40.211345" style="fill: #008b8b; stroke: #008b8b"/>
     <use xlink:href="#m4b4bee4aee" x="170.706968" y="73.618036" style="fill: #008b8b; stroke: #008b8b"/>
     <use xlink:href="#m4b4bee4aee" x="206.323989" y="119.675782" style="fill: #008b8b; stroke: #008b8b"/>
     <use xlink:href="#m4b4bee4aee" x="241.941011" y="161.977745" style="fill: #008b8b; stroke: #008b8b"/>
     <use xlink:href="#m4b4bee4aee" x="277.558032" y="195.779782" style="fill: #008b8b; stroke: #008b8b"/>
     <use xlink:href="#m4b4bee4aee" x="313.175053" y="212.384291" style="fill: #008b8b; stroke: #008b8b"/>
     <use xlink:href="#m4b4bee4aee" x="348.792074" y="213.965673" style="fill: #008b8b; stroke: #008b8b"/>
     <use xlink:href="#m4b4bee4aee" x="384.409096" y="214.756364" style="fill: #008b8b; stroke: #008b8b"/>
    </g>
   </g>
   <g id="patch_3">
    <path d="M 56.7325 224.64 
L 56.7325 7.2 
" style="fill: none; stroke: #000000; stroke-width: 0.8; stroke-linejoin: miter; stroke-linecap: square"/>
   </g>
   <g id="patch_4">
    <path d="M 391.5325 224.64 
L 391.5325 7.2 
" style="fill: none; stroke: #000000; stroke-width: 0.8; stroke-linejoin: miter; stroke-linecap: square"/>
   </g>
   <g id="patch_5">
    <path d="M 56.7325 224.64 
L 391.5325 224.64 
" style="fill: none; stroke: #000000; stroke-width: 0.8; stroke-linejoin: miter; stroke-linecap: square"/>
   </g>
   <g id="patch_6">
    <path d="M 56.7325 7.2 
L 391.5325 7.2 
" style="fill: none; stroke: #000000; stroke-width: 0.8; stroke-linejoin: miter; stroke-linecap: square"/>
   </g>
   <g id="legend_1">
    <g id="patch_7">
     <path d="M 255.315 178.5675 
L 380.3325 178.5675 
Q 383.5325 178.5675 383.5325 175.3675 
L 383.5325 18.4 
Q 383.5325 15.2 380.3325 15.2 
L 255.315 15.2 
Q 252.115 15.2 252.115 18.4 
L 252.115 175.3675 
Q 252.115 178.5675 255.315 178.5675 
z
" style="fill: #ffffff; opacity: 0.8; stroke: #cccccc; stroke-linejoin: miter"/>
    </g>
    <g id="line2d_19">
     <path d="M 258.515 27.2 
L 274.515 27.2 
L 290.515 27.2 
" style="fill: none; stroke-dasharray: 6.4,1.6,1,1.6; stroke-dashoffset: 0; stroke: #4169e1"/>
     <g>
      <use xlink:href="#m6ec4a6c903" x="274.515" y="27.2" style="fill: #4169e1; stroke: #4169e1"/>
     </g>
    </g>
    <g id="text_14">
     <!-- FF_DU -->
     <g transform="translate(303.315 32.8)scale(0.16 -0.16)">
      <defs>
       <path id="TimesNewRomanPSMT-46" d="M 1309 4006 
L 1309 2341 
L 2081 2341 
Q 2347 2341 2470 2458 
Q 2594 2575 2634 2922 
L 2750 2922 
L 2750 1488 
L 2634 1488 
Q 2631 1734 2570 1850 
Q 2509 1966 2401 2023 
Q 2294 2081 2081 2081 
L 1309 2081 
L 1309 750 
Q 1309 428 1350 325 
Q 1381 247 1481 191 
Q 1619 116 1769 116 
L 1922 116 
L 1922 0 
L 103 0 
L 103 116 
L 253 116 
Q 516 116 634 269 
Q 709 369 709 750 
L 709 3488 
Q 709 3809 669 3913 
Q 638 3991 541 4047 
Q 406 4122 253 4122 
L 103 4122 
L 103 4238 
L 3256 4238 
L 3297 3306 
L 3188 3306 
Q 3106 3603 2998 3742 
Q 2891 3881 2733 3943 
Q 2575 4006 2244 4006 
L 1309 4006 
z
" transform="scale(0.015625)"/>
       <path id="TimesNewRomanPSMT-5f" d="M 3256 -1381 
L -53 -1381 
L -53 -1119 
L 3256 -1119 
L 3256 -1381 
z
" transform="scale(0.015625)"/>
       <path id="TimesNewRomanPSMT-44" d="M 109 0 
L 109 116 
L 269 116 
Q 538 116 650 288 
Q 719 391 719 750 
L 719 3488 
Q 719 3884 631 3984 
Q 509 4122 269 4122 
L 109 4122 
L 109 4238 
L 1834 4238 
Q 2784 4238 3279 4022 
Q 3775 3806 4076 3303 
Q 4378 2800 4378 2141 
Q 4378 1256 3841 663 
Q 3238 0 2003 0 
L 109 0 
z
M 1319 306 
Q 1716 219 1984 219 
Q 2709 219 3187 728 
Q 3666 1238 3666 2109 
Q 3666 2988 3187 3494 
Q 2709 4000 1959 4000 
Q 1678 4000 1319 3909 
L 1319 306 
z
" transform="scale(0.015625)"/>
       <path id="TimesNewRomanPSMT-55" d="M 3053 4122 
L 3053 4238 
L 4553 4238 
L 4553 4122 
L 4394 4122 
Q 4144 4122 4009 3913 
Q 3944 3816 3944 3463 
L 3944 1744 
Q 3944 1106 3817 754 
Q 3691 403 3320 151 
Q 2950 -100 2313 -100 
Q 1619 -100 1259 140 
Q 900 381 750 788 
Q 650 1066 650 1831 
L 650 3488 
Q 650 3878 542 4000 
Q 434 4122 194 4122 
L 34 4122 
L 34 4238 
L 1866 4238 
L 1866 4122 
L 1703 4122 
Q 1441 4122 1328 3956 
Q 1250 3844 1250 3488 
L 1250 1641 
Q 1250 1394 1295 1075 
Q 1341 756 1459 578 
Q 1578 400 1801 284 
Q 2025 169 2350 169 
Q 2766 169 3094 350 
Q 3422 531 3542 814 
Q 3663 1097 3663 1772 
L 3663 3488 
Q 3663 3884 3575 3984 
Q 3453 4122 3213 4122 
L 3053 4122 
z
" transform="scale(0.015625)"/>
      </defs>
      <use xlink:href="#TimesNewRomanPSMT-46"/>
      <use xlink:href="#TimesNewRomanPSMT-46" x="55.615234"/>
      <use xlink:href="#TimesNewRomanPSMT-5f" x="111.230469"/>
      <use xlink:href="#TimesNewRomanPSMT-44" x="161.230469"/>
      <use xlink:href="#TimesNewRomanPSMT-55" x="233.447266"/>
     </g>
    </g>
    <g id="line2d_20">
     <path d="M 258.515 49.8525 
L 274.515 49.8525 
L 290.515 49.8525 
" style="fill: none; stroke-dasharray: 6.4,1.6,1,1.6; stroke-dashoffset: 0; stroke: #ff0000"/>
     <g>
      <use xlink:href="#ma1a9e1d04b" x="274.515" y="49.8525" style="fill: #ff0000; stroke: #ff0000"/>
     </g>
    </g>
    <g id="text_15">
     <!-- FF_DP -->
     <g transform="translate(303.315 55.4525)scale(0.16 -0.16)">
      <defs>
       <path id="TimesNewRomanPSMT-50" d="M 1313 1984 
L 1313 750 
Q 1313 350 1400 253 
Q 1519 116 1759 116 
L 1922 116 
L 1922 0 
L 106 0 
L 106 116 
L 266 116 
Q 534 116 650 291 
Q 713 388 713 750 
L 713 3488 
Q 713 3888 628 3984 
Q 506 4122 266 4122 
L 106 4122 
L 106 4238 
L 1659 4238 
Q 2228 4238 2556 4120 
Q 2884 4003 3109 3725 
Q 3334 3447 3334 3066 
Q 3334 2547 2992 2222 
Q 2650 1897 2025 1897 
Q 1872 1897 1694 1919 
Q 1516 1941 1313 1984 
z
M 1313 2163 
Q 1478 2131 1606 2115 
Q 1734 2100 1825 2100 
Q 2150 2100 2386 2351 
Q 2622 2603 2622 3003 
Q 2622 3278 2509 3514 
Q 2397 3750 2190 3867 
Q 1984 3984 1722 3984 
Q 1563 3984 1313 3925 
L 1313 2163 
z
" transform="scale(0.015625)"/>
      </defs>
      <use xlink:href="#TimesNewRomanPSMT-46"/>
      <use xlink:href="#TimesNewRomanPSMT-46" x="55.615234"/>
      <use xlink:href="#TimesNewRomanPSMT-5f" x="111.230469"/>
      <use xlink:href="#TimesNewRomanPSMT-44" x="161.230469"/>
      <use xlink:href="#TimesNewRomanPSMT-50" x="233.447266"/>
     </g>
    </g>
    <g id="line2d_21">
     <path d="M 258.515 72.505 
L 274.515 72.505 
L 290.515 72.505 
" style="fill: none; stroke-dasharray: 6.4,1.6,1,1.6; stroke-dashoffset: 0; stroke: #2e8b57"/>
     <g>
      <use xlink:href="#m144588c85d" x="274.515" y="72.505" style="fill: #2e8b57; stroke: #2e8b57; stroke-linejoin: bevel"/>
     </g>
    </g>
    <g id="text_16">
     <!-- BF_DU -->
     <g transform="translate(303.315 78.105)scale(0.16 -0.16)">
      <defs>
       <path id="TimesNewRomanPSMT-42" d="M 2956 2163 
Q 3397 2069 3616 1863 
Q 3919 1575 3919 1159 
Q 3919 844 3719 555 
Q 3519 266 3170 133 
Q 2822 0 2106 0 
L 106 0 
L 106 116 
L 266 116 
Q 531 116 647 284 
Q 719 394 719 750 
L 719 3488 
Q 719 3881 628 3984 
Q 506 4122 266 4122 
L 106 4122 
L 106 4238 
L 1938 4238 
Q 2450 4238 2759 4163 
Q 3228 4050 3475 3764 
Q 3722 3478 3722 3106 
Q 3722 2788 3528 2536 
Q 3334 2284 2956 2163 
z
M 1319 2331 
Q 1434 2309 1582 2298 
Q 1731 2288 1909 2288 
Q 2366 2288 2595 2386 
Q 2825 2484 2947 2687 
Q 3069 2891 3069 3131 
Q 3069 3503 2766 3765 
Q 2463 4028 1881 4028 
Q 1569 4028 1319 3959 
L 1319 2331 
z
M 1319 306 
Q 1681 222 2034 222 
Q 2600 222 2897 476 
Q 3194 731 3194 1106 
Q 3194 1353 3059 1581 
Q 2925 1809 2622 1940 
Q 2319 2072 1872 2072 
Q 1678 2072 1540 2065 
Q 1403 2059 1319 2044 
L 1319 306 
z
" transform="scale(0.015625)"/>
      </defs>
      <use xlink:href="#TimesNewRomanPSMT-42"/>
      <use xlink:href="#TimesNewRomanPSMT-46" x="66.699219"/>
      <use xlink:href="#TimesNewRomanPSMT-5f" x="122.314453"/>
      <use xlink:href="#TimesNewRomanPSMT-44" x="172.314453"/>
      <use xlink:href="#TimesNewRomanPSMT-55" x="244.53125"/>
     </g>
    </g>
    <g id="line2d_22">
     <path d="M 258.515 95.1575 
L 274.515 95.1575 
L 290.515 95.1575 
" style="fill: none; stroke-dasharray: 6.4,1.6,1,1.6; stroke-dashoffset: 0; stroke: #ff8c00"/>
     <g>
      <use xlink:href="#m5c06dfe38b" x="274.515" y="95.1575" style="fill: #ff8c00; stroke: #ff8c00; stroke-linejoin: miter"/>
     </g>
    </g>
    <g id="text_17">
     <!-- BF_DP -->
     <g transform="translate(303.315 100.7575)scale(0.16 -0.16)">
      <use xlink:href="#TimesNewRomanPSMT-42"/>
      <use xlink:href="#TimesNewRomanPSMT-46" x="66.699219"/>
      <use xlink:href="#TimesNewRomanPSMT-5f" x="122.314453"/>
      <use xlink:href="#TimesNewRomanPSMT-44" x="172.314453"/>
      <use xlink:href="#TimesNewRomanPSMT-50" x="244.53125"/>
     </g>
    </g>
    <g id="line2d_23">
     <path d="M 258.515 117.81 
L 274.515 117.81 
L 290.515 117.81 
" style="fill: none; stroke-dasharray: 6.4,1.6,1,1.6; stroke-dashoffset: 0; stroke: #9370db"/>
     <g>
      <use xlink:href="#m6b40969c09" x="274.515" y="117.81" style="fill: #9370db; stroke: #9370db; stroke-linejoin: miter"/>
     </g>
    </g>
    <g id="text_18">
     <!-- WF_DU -->
     <g transform="translate(303.315 123.41)scale(0.16 -0.16)">
      <defs>
       <path id="TimesNewRomanPSMT-57" d="M 5991 4238 
L 5991 4122 
Q 5825 4122 5722 4062 
Q 5619 4003 5525 3841 
Q 5463 3731 5328 3319 
L 4147 -97 
L 4022 -97 
L 3056 2613 
L 2097 -97 
L 1984 -97 
L 725 3422 
Q 584 3816 547 3888 
Q 484 4006 376 4064 
Q 269 4122 84 4122 
L 84 4238 
L 1653 4238 
L 1653 4122 
L 1578 4122 
Q 1413 4122 1325 4047 
Q 1238 3972 1238 3866 
Q 1238 3756 1375 3363 
L 2209 984 
L 2913 3006 
L 2788 3363 
L 2688 3647 
Q 2622 3803 2541 3922 
Q 2500 3981 2441 4022 
Q 2363 4078 2284 4103 
Q 2225 4122 2097 4122 
L 2097 4238 
L 3747 4238 
L 3747 4122 
L 3634 4122 
Q 3459 4122 3378 4047 
Q 3297 3972 3297 3844 
Q 3297 3684 3438 3288 
L 4250 984 
L 5056 3319 
Q 5194 3706 5194 3856 
Q 5194 3928 5148 3990 
Q 5103 4053 5034 4078 
Q 4916 4122 4725 4122 
L 4725 4238 
L 5991 4238 
z
" transform="scale(0.015625)"/>
      </defs>
      <use xlink:href="#TimesNewRomanPSMT-57"/>
      <use xlink:href="#TimesNewRomanPSMT-46" x="94.384766"/>
      <use xlink:href="#TimesNewRomanPSMT-5f" x="150"/>
      <use xlink:href="#TimesNewRomanPSMT-44" x="200"/>
      <use xlink:href="#TimesNewRomanPSMT-55" x="272.216797"/>
     </g>
    </g>
    <g id="line2d_24">
     <path d="M 258.515 140.4625 
L 274.515 140.4625 
L 290.515 140.4625 
" style="fill: none; stroke-dasharray: 6.4,1.6,1,1.6; stroke-dashoffset: 0; stroke: #a0522d"/>
     <g>
      <use xlink:href="#m358f083c72" x="274.515" y="140.4625" style="fill: #a0522d; stroke: #a0522d; stroke-linejoin: miter"/>
     </g>
    </g>
    <g id="text_19">
     <!-- WF_DP -->
     <g transform="translate(303.315 146.0625)scale(0.16 -0.16)">
      <use xlink:href="#TimesNewRomanPSMT-57"/>
      <use xlink:href="#TimesNewRomanPSMT-46" x="94.384766"/>
      <use xlink:href="#TimesNewRomanPSMT-5f" x="150"/>
      <use xlink:href="#TimesNewRomanPSMT-44" x="200"/>
      <use xlink:href="#TimesNewRomanPSMT-50" x="272.216797"/>
     </g>
    </g>
    <g id="line2d_25">
     <path d="M 258.515 163.115 
L 274.515 163.115 
L 290.515 163.115 
" style="fill: none; stroke-dasharray: 6.4,1.6,1,1.6; stroke-dashoffset: 0; stroke: #008b8b"/>
     <g>
      <use xlink:href="#m4b4bee4aee" x="274.515" y="163.115" style="fill: #008b8b; stroke: #008b8b"/>
     </g>
    </g>
    <g id="text_20">
     <!-- BF_FF_DP -->
     <g transform="translate(303.315 168.715)scale(0.16 -0.16)">
      <use xlink:href="#TimesNewRomanPSMT-42"/>
      <use xlink:href="#TimesNewRomanPSMT-46" x="66.699219"/>
      <use xlink:href="#TimesNewRomanPSMT-5f" x="122.314453"/>
      <use xlink:href="#TimesNewRomanPSMT-46" x="172.314453"/>
      <use xlink:href="#TimesNewRomanPSMT-46" x="227.929688"/>
      <use xlink:href="#TimesNewRomanPSMT-5f" x="283.544922"/>
      <use xlink:href="#TimesNewRomanPSMT-44" x="333.544922"/>
      <use xlink:href="#TimesNewRomanPSMT-50" x="405.761719"/>
     </g>
    </g>
   </g>
  </g>
 </g>
 <defs>
  <clipPath id="p208f588762">
   <rect x="56.7325" y="7.2" width="334.8" height="217.44"/>
  </clipPath>
 </defs>
</svg>
