<?xml version="1.0" encoding="utf-8" standalone="no"?>
<!DOCTYPE svg PUBLIC "-//W3C//DTD SVG 1.1//EN"
  "http://www.w3.org/Graphics/SVG/1.1/DTD/svg11.dtd">
<svg xmlns:xlink="http://www.w3.org/1999/xlink" width="434.105833pt" height="320.857pt" viewBox="0 0 434.105833 320.857" xmlns="http://www.w3.org/2000/svg" version="1.1">
 <metadata>
  <rdf:RDF xmlns:dc="http://purl.org/dc/elements/1.1/" xmlns:cc="http://creativecommons.org/ns#" xmlns:rdf="http://www.w3.org/1999/02/22-rdf-syntax-ns#">
   <cc:Work>
    <dc:type rdf:resource="http://purl.org/dc/dcmitype/StillImage"/>
    <dc:date>2025-11-13T14:00:45.784841</dc:date>
    <dc:format>image/svg+xml</dc:format>
    <dc:creator>
     <cc:Agent>
      <dc:title>Matplotlib v3.9.2, https://matplotlib.org/</dc:title>
     </cc:Agent>
    </dc:creator>
   </cc:Work>
  </rdf:RDF>
 </metadata>
 <defs>
  <style type="text/css">*{stroke-linejoin: round; stroke-linecap: butt}</style>
 </defs>
 <g id="figure_1">
  <g id="patch_1">
   <path d="M 0 320.857 
L 434.105833 320.857 
L 434.105833 0 
L 0 0 
z
" style="fill: #ffffff"/>
  </g>
  <g id="axes_1">
   <g id="patch_2">
    <path d="M 69.0125 273.312 
L 426.1325 273.312 
L 426.1325 7.2 
L 69.0125 7.2 
z
" style="fill: #ffffff"/>
   </g>
   <g id="matplotlib.axis_1">
    <g id="xtick_1">
     <g id="line2d_1">
      <defs>
       <path id="mfa9524f786" d="M 0 0 
L 0 3.5 
" style="stroke: #000000; stroke-width: 0.8"/>
      </defs>
      <g>
       <use xlink:href="#mfa9524f786" x="82.239167" y="273.312" style="stroke: #000000; stroke-width: 0.8"/>
      </g>
     </g>
     <g id="text_1">
      <!-- 0.10 -->
      <g transform="translate(68.239167 291.422) scale(0.16 -0.16)">
       <defs>
        <path id="TimesNewRomanPSMT-30" d="M 231 2094 
Q 231 2819 450 3342 
Q 669 3866 1031 4122 
Q 1313 4325 1613 4325 
Q 2100 4325 2488 3828 
Q 2972 3213 2972 2159 
Q 2972 1422 2759 906 
Q 2547 391 2217 158 
Q 1888 -75 1581 -75 
Q 975 -75 572 641 
Q 231 1244 231 2094 
z
M 844 2016 
Q 844 1141 1059 588 
Q 1238 122 1591 122 
Q 1759 122 1940 273 
Q 2122 425 2216 781 
Q 2359 1319 2359 2297 
Q 2359 3022 2209 3506 
Q 2097 3866 1919 4016 
Q 1791 4119 1609 4119 
Q 1397 4119 1231 3928 
Q 1006 3669 925 3112 
Q 844 2556 844 2016 
z
" transform="scale(0.015625)"/>
        <path id="TimesNewRomanPSMT-2e" d="M 800 606 
Q 947 606 1047 504 
Q 1147 403 1147 259 
Q 1147 116 1045 14 
Q 944 -88 800 -88 
Q 656 -88 554 14 
Q 453 116 453 259 
Q 453 406 554 506 
Q 656 606 800 606 
z
" transform="scale(0.015625)"/>
        <path id="TimesNewRomanPSMT-31" d="M 750 3822 
L 1781 4325 
L 1884 4325 
L 1884 747 
Q 1884 391 1914 303 
Q 1944 216 2037 169 
Q 2131 122 2419 116 
L 2419 0 
L 825 0 
L 825 116 
Q 1125 122 1212 167 
Q 1300 213 1334 289 
Q 1369 366 1369 747 
L 1369 3034 
Q 1369 3497 1338 3628 
Q 1316 3728 1258 3775 
Q 1200 3822 1119 3822 
Q 1003 3822 797 3725 
L 750 3822 
z
" transform="scale(0.015625)"/>
       </defs>
       <use xlink:href="#TimesNewRomanPSMT-30"/>
       <use xlink:href="#TimesNewRomanPSMT-2e" x="50"/>
       <use xlink:href="#TimesNewRomanPSMT-31" x="75"/>
       <use xlink:href="#TimesNewRomanPSMT-30" x="125"/>
      </g>
     </g>
    </g>
    <g id="xtick_2">
     <g id="line2d_2">
      <g>
       <use xlink:href="#mfa9524f786" x="148.3725" y="273.312" style="stroke: #000000; stroke-width: 0.8"/>
      </g>
     </g>
     <g id="text_2">
      <!-- 0.15 -->
      <g transform="translate(134.3725 291.422) scale(0.16 -0.16)">
       <defs>
        <path id="TimesNewRomanPSMT-35" d="M 2778 4238 
L 2534 3706 
L 1259 3706 
L 981 3138 
Q 1809 3016 2294 2522 
Q 2709 2097 2709 1522 
Q 2709 1188 2573 903 
Q 2438 619 2231 419 
Q 2025 219 1772 97 
Q 1413 -75 1034 -75 
Q 653 -75 479 54 
Q 306 184 306 341 
Q 306 428 378 495 
Q 450 563 559 563 
Q 641 563 702 538 
Q 763 513 909 409 
Q 1144 247 1384 247 
Q 1750 247 2026 523 
Q 2303 800 2303 1197 
Q 2303 1581 2056 1914 
Q 1809 2247 1375 2428 
Q 1034 2569 447 2591 
L 1259 4238 
L 2778 4238 
z
" transform="scale(0.015625)"/>
       </defs>
       <use xlink:href="#TimesNewRomanPSMT-30"/>
       <use xlink:href="#TimesNewRomanPSMT-2e" x="50"/>
       <use xlink:href="#TimesNewRomanPSMT-31" x="75"/>
       <use xlink:href="#TimesNewRomanPSMT-35" x="125"/>
      </g>
     </g>
    </g>
    <g id="xtick_3">
     <g id="line2d_3">
      <g>
       <use xlink:href="#mfa9524f786" x="214.505833" y="273.312" style="stroke: #000000; stroke-width: 0.8"/>
      </g>
     </g>
     <g id="text_3">
      <!-- 0.20 -->
      <g transform="translate(200.505833 291.422) scale(0.16 -0.16)">
       <defs>
        <path id="TimesNewRomanPSMT-32" d="M 2934 816 
L 2638 0 
L 138 0 
L 138 116 
Q 1241 1122 1691 1759 
Q 2141 2397 2141 2925 
Q 2141 3328 1894 3587 
Q 1647 3847 1303 3847 
Q 991 3847 742 3664 
Q 494 3481 375 3128 
L 259 3128 
Q 338 3706 661 4015 
Q 984 4325 1469 4325 
Q 1984 4325 2329 3994 
Q 2675 3663 2675 3213 
Q 2675 2891 2525 2569 
Q 2294 2063 1775 1497 
Q 997 647 803 472 
L 1909 472 
Q 2247 472 2383 497 
Q 2519 522 2628 598 
Q 2738 675 2819 816 
L 2934 816 
z
" transform="scale(0.015625)"/>
       </defs>
       <use xlink:href="#TimesNewRomanPSMT-30"/>
       <use xlink:href="#TimesNewRomanPSMT-2e" x="50"/>
       <use xlink:href="#TimesNewRomanPSMT-32" x="75"/>
       <use xlink:href="#TimesNewRomanPSMT-30" x="125"/>
      </g>
     </g>
    </g>
    <g id="xtick_4">
     <g id="line2d_4">
      <g>
       <use xlink:href="#mfa9524f786" x="280.639167" y="273.312" style="stroke: #000000; stroke-width: 0.8"/>
      </g>
     </g>
     <g id="text_4">
      <!-- 0.25 -->
      <g transform="translate(266.639167 291.422) scale(0.16 -0.16)">
       <use xlink:href="#TimesNewRomanPSMT-30"/>
       <use xlink:href="#TimesNewRomanPSMT-2e" x="50"/>
       <use xlink:href="#TimesNewRomanPSMT-32" x="75"/>
       <use xlink:href="#TimesNewRomanPSMT-35" x="125"/>
      </g>
     </g>
    </g>
    <g id="xtick_5">
     <g id="line2d_5">
      <g>
       <use xlink:href="#mfa9524f786" x="346.7725" y="273.312" style="stroke: #000000; stroke-width: 0.8"/>
      </g>
     </g>
     <g id="text_5">
      <!-- 0.30 -->
      <g transform="translate(332.7725 291.422) scale(0.16 -0.16)">
       <defs>
        <path id="TimesNewRomanPSMT-33" d="M 325 3431 
Q 506 3859 782 4092 
Q 1059 4325 1472 4325 
Q 1981 4325 2253 3994 
Q 2459 3747 2459 3466 
Q 2459 3003 1878 2509 
Q 2269 2356 2469 2072 
Q 2669 1788 2669 1403 
Q 2669 853 2319 450 
Q 1863 -75 997 -75 
Q 569 -75 414 31 
Q 259 138 259 259 
Q 259 350 332 419 
Q 406 488 509 488 
Q 588 488 669 463 
Q 722 447 909 348 
Q 1097 250 1169 231 
Q 1284 197 1416 197 
Q 1734 197 1970 444 
Q 2206 691 2206 1028 
Q 2206 1275 2097 1509 
Q 2016 1684 1919 1775 
Q 1784 1900 1550 2001 
Q 1316 2103 1072 2103 
L 972 2103 
L 972 2197 
Q 1219 2228 1467 2375 
Q 1716 2522 1828 2728 
Q 1941 2934 1941 3181 
Q 1941 3503 1739 3701 
Q 1538 3900 1238 3900 
Q 753 3900 428 3381 
L 325 3431 
z
" transform="scale(0.015625)"/>
       </defs>
       <use xlink:href="#TimesNewRomanPSMT-30"/>
       <use xlink:href="#TimesNewRomanPSMT-2e" x="50"/>
       <use xlink:href="#TimesNewRomanPSMT-33" x="75"/>
       <use xlink:href="#TimesNewRomanPSMT-30" x="125"/>
      </g>
     </g>
    </g>
    <g id="xtick_6">
     <g id="line2d_6">
      <g>
       <use xlink:href="#mfa9524f786" x="412.905833" y="273.312" style="stroke: #000000; stroke-width: 0.8"/>
      </g>
     </g>
     <g id="text_6">
      <!-- 0.35 -->
      <g transform="translate(398.905833 291.422) scale(0.16 -0.16)">
       <use xlink:href="#TimesNewRomanPSMT-30"/>
       <use xlink:href="#TimesNewRomanPSMT-2e" x="50"/>
       <use xlink:href="#TimesNewRomanPSMT-33" x="75"/>
       <use xlink:href="#TimesNewRomanPSMT-35" x="125"/>
      </g>
     </g>
    </g>
    <g id="text_7">
     <!-- 系统在低关键度模式下的利用率 -->
     <g transform="translate(135.5725 311.5945) scale(0.16 -0.16)">
      <defs>
       <path id="SimSun-7cfb" d="M 4975 1950 
L 3600 1850 
L 3600 200 
Q 3650 -400 3025 -575 
Q 3025 -175 2250 0 
L 2250 100 
Q 2900 25 3087 25 
Q 3275 25 3250 375 
L 3250 1800 
Q 2550 1750 2112 1662 
Q 1675 1575 1425 1475 
L 1175 1950 
Q 1450 1975 2037 2250 
Q 2625 2525 3675 3175 
Q 2675 3075 2275 2987 
Q 1875 2900 1625 2775 
L 1375 3275 
Q 1725 3300 2237 3687 
Q 2750 4075 3075 4550 
Q 1600 4450 1025 4450 
L 1025 4550 
Q 2525 4675 3475 4837 
Q 4425 5000 5075 5250 
L 5450 4775 
Q 5075 4800 4437 4725 
Q 3800 4650 3175 4575 
L 3675 4325 
Q 3350 4275 2800 3825 
Q 2225 3375 1925 3250 
L 3900 3325 
Q 4375 3650 4625 3975 
L 5100 3575 
Q 4825 3550 4475 3350 
Q 4100 3125 3212 2625 
Q 2325 2125 1900 1925 
L 4875 2075 
Q 4500 2450 4250 2625 
L 4300 2700 
Q 4975 2450 5287 2262 
Q 5600 2075 5612 1862 
Q 5625 1650 5512 1475 
Q 5400 1300 5287 1500 
Q 5175 1700 4975 1950 
z
M 4000 1300 
Q 5175 800 5462 600 
Q 5750 400 5775 162 
Q 5800 -75 5712 -200 
Q 5625 -325 5600 -325 
Q 5475 -325 5325 -25 
Q 5075 425 3950 1225 
L 4000 1300 
z
M 2250 1400 
L 2700 950 
Q 2500 950 1875 475 
Q 1250 -25 425 -375 
L 375 -300 
Q 925 25 1437 462 
Q 1950 900 2250 1400 
z
" transform="scale(0.015625)"/>
       <path id="SimSun-7edf" d="M 3675 5150 
L 3725 5225 
Q 4350 4925 4425 4737 
Q 4500 4550 4375 4387 
Q 4250 4225 4200 4225 
Q 4125 4225 4075 4450 
Q 3975 4800 3675 5150 
z
M 2675 2525 
Q 2950 2600 3337 3100 
Q 3725 3600 3900 4050 
L 3350 4050 
Q 3025 4050 2750 3975 
L 2525 4200 
L 5225 4200 
L 5575 4550 
L 6000 4050 
L 4025 4050 
L 4400 3750 
Q 4150 3675 3875 3400 
Q 3600 3125 3100 2525 
L 5175 2625 
Q 4900 2950 4550 3275 
L 4600 3350 
Q 5025 3150 5362 2950 
Q 5700 2750 5737 2650 
Q 5775 2550 5775 2450 
Q 5775 2300 5712 2175 
Q 5650 2050 5600 2050 
Q 5575 2050 5525 2150 
Q 5425 2300 5275 2500 
Q 4525 2425 3862 2337 
Q 3200 2250 2900 2050 
L 2675 2525 
z
M 3500 2275 
L 3875 2350 
L 3850 1775 
Q 3775 550 3325 112 
Q 2875 -325 1950 -600 
L 1925 -525 
Q 2625 -175 2950 150 
Q 3275 475 3387 962 
Q 3500 1450 3500 2275 
z
M 4475 2450 
L 4800 2500 
L 4800 1750 
L 4800 175 
Q 4775 -150 5175 -125 
L 5375 -125 
Q 5625 -125 5650 87 
Q 5675 300 5700 825 
L 5825 825 
Q 5825 425 5875 187 
Q 5925 -50 6100 -75 
Q 5975 -425 5600 -425 
L 4975 -425 
Q 4475 -450 4475 25 
L 4475 2450 
z
M 425 500 
Q 675 525 1212 637 
Q 1750 750 2700 975 
L 2725 875 
Q 2200 700 1550 462 
Q 900 225 675 -25 
L 425 500 
z
M 1000 1825 
Q 1275 1850 2625 2025 
L 2650 1925 
Q 2050 1800 1550 1650 
Q 1050 1500 800 1300 
L 500 1825 
Q 725 1875 1125 2312 
Q 1525 2750 1825 3175 
Q 1450 3100 1175 3037 
Q 900 2975 650 2800 
L 400 3225 
Q 675 3300 1050 3912 
Q 1425 4525 1650 5225 
L 2125 4900 
Q 1925 4775 1675 4400 
Q 1425 4000 825 3225 
Q 1475 3275 1900 3300 
Q 2100 3575 2300 4025 
L 2750 3675 
Q 2525 3575 2100 3050 
Q 1650 2525 1000 1825 
z
" transform="scale(0.015625)"/>
       <path id="SimSun-5728" d="M 1325 2400 
Q 1325 2475 1300 2775 
L 1550 2675 
Q 1975 3200 2375 3975 
L 1275 3975 
Q 950 3975 675 3900 
L 450 4125 
L 2425 4125 
Q 2700 4800 2775 5250 
L 3350 4950 
L 3100 4800 
Q 3025 4575 2800 4125 
L 5000 4125 
L 5375 4500 
L 5900 3975 
L 2750 3975 
Q 2225 2950 1700 2400 
L 1700 -375 
L 1325 -575 
Q 1350 -175 1350 150 
L 1350 2050 
Q 775 1525 275 1225 
L 225 1300 
Q 975 1950 1325 2400 
z
M 3600 3150 
Q 3600 3325 3575 3775 
L 4150 3525 
L 3950 3350 
L 3950 2325 
L 4900 2325 
L 5225 2650 
L 5700 2175 
L 3950 2175 
L 3950 175 
L 5200 175 
L 5550 525 
L 6050 25 
L 2650 25 
Q 2325 25 2050 -50 
L 1825 175 
L 3600 175 
L 3600 2175 
L 2975 2175 
Q 2650 2175 2375 2100 
L 2150 2325 
L 3600 2325 
L 3600 3150 
z
" transform="scale(0.015625)"/>
       <path id="SimSun-4f4e" d="M 5550 125 
L 5825 1100 
L 5950 1050 
Q 5850 400 5862 150 
Q 5875 -100 5950 -325 
Q 5975 -425 5875 -425 
Q 5750 -425 5287 -200 
Q 4825 25 4437 750 
Q 4050 1475 3950 2500 
L 2725 2500 
L 2725 375 
L 3875 975 
L 3925 900 
Q 2925 200 2600 -225 
L 2325 125 
Q 2400 250 2400 525 
L 2400 3175 
Q 2400 3700 2375 4375 
L 2725 4175 
Q 3350 4275 4025 4500 
Q 4700 4725 5050 5000 
L 5450 4525 
Q 5250 4525 5012 4475 
Q 4775 4425 4200 4300 
Q 4200 3575 4250 2650 
L 5175 2650 
L 5475 2950 
L 5925 2500 
L 4275 2500 
Q 4375 1550 4762 937 
Q 5150 325 5550 125 
z
M 3850 4225 
Q 3525 4175 2725 4025 
L 2725 2650 
L 3925 2650 
Q 3875 3475 3850 4225 
z
M 3325 400 
Q 3825 175 3975 37 
Q 4125 -100 4125 -250 
Q 4125 -325 4062 -462 
Q 4000 -600 3950 -600 
Q 3900 -600 3825 -425 
Q 3700 -125 3275 325 
L 3325 400 
z
M 1650 3500 
L 1500 3375 
L 1500 475 
Q 1500 100 1525 -425 
L 1150 -600 
Q 1175 350 1175 625 
L 1175 3250 
Q 825 2700 300 2150 
L 225 2225 
Q 850 3125 1225 4025 
Q 1600 4925 1675 5250 
L 2175 4900 
Q 1975 4800 1800 4475 
Q 1625 4150 1400 3650 
L 1650 3500 
z
" transform="scale(0.015625)"/>
       <path id="SimSun-5173" d="M 1750 5100 
L 1800 5175 
Q 2300 4900 2550 4675 
Q 2800 4450 2800 4250 
Q 2800 4125 2712 3975 
Q 2625 3825 2600 3825 
Q 2500 3825 2375 4175 
Q 2175 4675 1750 5100 
z
M 3375 3500 
Q 3350 2850 3300 2150 
L 5200 2150 
L 5575 2525 
L 6100 2000 
L 3625 2000 
Q 3850 1350 4425 750 
Q 5000 150 6100 -150 
L 6100 -225 
Q 5700 -250 5550 -550 
Q 4875 -200 4312 387 
Q 3750 975 3475 2000 
L 3275 2000 
Q 3050 1075 2312 412 
Q 1575 -250 375 -625 
L 350 -525 
Q 1625 25 2175 687 
Q 2725 1350 2900 2000 
L 1175 2000 
Q 850 2000 575 1925 
L 350 2150 
L 2925 2150 
Q 2975 2700 2975 3500 
L 1500 3500 
Q 1175 3500 900 3425 
L 675 3650 
L 3500 3650 
Q 3700 4000 3875 4462 
Q 4050 4925 4125 5225 
L 4725 4825 
L 4425 4700 
Q 4000 4050 3675 3650 
L 4975 3650 
L 5325 4000 
L 5825 3500 
L 3375 3500 
z
" transform="scale(0.015625)"/>
       <path id="SimSun-952e" d="M 4650 4225 
L 4650 3650 
L 5225 3650 
L 5225 4225 
L 4650 4225 
z
M 4650 3500 
L 4650 2875 
L 5225 2875 
L 5225 3500 
L 4650 3500 
z
M 3225 4125 
L 2700 2750 
L 3125 2750 
L 3350 2975 
L 3650 2675 
L 3475 2525 
Q 3325 1100 3000 600 
Q 3400 150 3962 50 
Q 4525 -50 4950 -50 
Q 5325 -50 6125 25 
L 6125 -75 
Q 5750 -150 5700 -425 
Q 4400 -400 3837 -250 
Q 3275 -100 2875 375 
Q 2325 -225 1450 -600 
L 1425 -500 
Q 2225 -50 2700 600 
Q 2400 1250 2300 1950 
L 2375 2000 
Q 2700 1050 2825 875 
Q 3050 1375 3175 2600 
L 2700 2600 
L 2525 2425 
L 2250 2725 
L 2450 2850 
L 2925 4200 
Q 2650 4200 2375 4125 
L 2150 4350 
L 2900 4350 
L 3125 4575 
L 3425 4275 
L 3225 4125 
z
M 4350 100 
Q 4350 775 4350 1075 
L 4125 1075 
Q 3800 1075 3525 1000 
L 3300 1225 
L 4350 1225 
L 4350 1925 
L 4300 1925 
Q 3975 1925 3700 1850 
L 3475 2075 
L 4350 2075 
L 4350 2725 
Q 4125 2725 3850 2650 
L 3625 2875 
L 4350 2875 
L 4350 3500 
L 4100 3500 
Q 3775 3500 3500 3425 
L 3275 3650 
L 4350 3650 
L 4350 4225 
Q 4075 4225 3800 4150 
L 3575 4375 
L 4350 4375 
Q 4350 4800 4325 5200 
L 4850 4975 
L 4650 4825 
L 4650 4375 
L 5200 4375 
L 5400 4575 
L 5700 4275 
L 5525 4150 
L 5525 3650 
L 5575 3650 
L 5800 3875 
L 6150 3500 
L 5525 3500 
Q 5525 2975 5550 2650 
L 5225 2525 
L 5225 2725 
L 4650 2725 
L 4650 2075 
L 5225 2075 
L 5475 2325 
L 5850 1925 
L 4650 1925 
L 4650 1225 
L 5400 1225 
L 5650 1475 
L 6025 1075 
L 4650 1075 
Q 4650 550 4675 250 
L 4350 100 
z
M 1425 400 
L 2125 825 
L 2175 750 
Q 1450 75 1250 -225 
L 1000 125 
Q 1100 250 1100 525 
L 1100 1850 
L 1075 1850 
Q 750 1850 475 1775 
L 250 2000 
L 1100 2000 
L 1100 3000 
L 600 3000 
Q 450 2825 300 2650 
L 225 2700 
Q 850 3750 1150 5200 
L 1625 4950 
L 1425 4775 
Q 1275 4425 1175 4125 
L 1675 4125 
L 1925 4375 
L 2300 3975 
L 1125 3975 
Q 875 3475 675 3150 
L 1550 3150 
L 1800 3400 
L 2175 3000 
L 1425 3000 
L 1425 2000 
L 1650 2000 
L 1900 2250 
L 2275 1850 
L 1425 1850 
L 1425 400 
z
" transform="scale(0.015625)"/>
       <path id="SimSun-5ea6" d="M 2550 2025 
Q 2575 2525 2575 3175 
L 1925 3175 
L 1625 3125 
L 1425 3325 
L 2575 3325 
Q 2575 3700 2550 4150 
L 3100 3875 
L 2900 3750 
L 2900 3325 
L 4300 3325 
Q 4300 3750 4275 4125 
L 4850 3875 
L 4625 3725 
L 4625 3325 
L 5100 3325 
L 5425 3650 
L 5900 3175 
L 4625 3175 
Q 4625 2450 4650 2225 
L 4300 2075 
L 4300 2300 
L 2900 2300 
L 2900 2175 
L 2550 2025 
z
M 4875 1500 
Q 4300 775 3900 425 
Q 4700 -75 6025 -125 
L 6025 -225 
Q 5625 -300 5550 -550 
Q 4375 -325 3675 225 
Q 2475 -450 1075 -625 
L 1050 -525 
Q 2375 -275 3450 450 
Q 2975 925 2575 1625 
L 2325 1625 
L 2100 1575 
L 1900 1775 
L 4525 1775 
L 4750 2000 
L 5125 1625 
L 4875 1500 
z
M 2700 1625 
Q 3175 975 3650 625 
Q 4150 1100 4500 1625 
L 2700 1625 
z
M 2900 3175 
L 2900 2450 
L 4300 2450 
L 4300 3175 
L 2900 3175 
z
M 975 4650 
L 1400 4400 
L 3375 4400 
Q 3350 4550 3262 4725 
Q 3175 4900 2900 5225 
L 2975 5275 
Q 3550 5025 3637 4887 
Q 3725 4750 3725 4725 
Q 3725 4575 3525 4400 
L 5150 4400 
L 5500 4750 
L 6000 4250 
L 1375 4250 
Q 1400 2750 1287 1912 
Q 1175 1075 925 475 
Q 675 -125 300 -625 
L 225 -575 
Q 725 300 862 1250 
Q 1000 2200 1012 3187 
Q 1025 4175 975 4650 
z
" transform="scale(0.015625)"/>
       <path id="SimSun-6a21" d="M 1275 -625 
Q 1300 225 1300 2575 
Q 950 1675 275 925 
L 225 975 
Q 1000 2200 1250 3625 
L 675 3625 
L 450 3575 
L 250 3775 
L 1300 3775 
Q 1300 4900 1275 5250 
L 1875 5000 
L 1625 4825 
L 1625 3775 
L 1900 3775 
L 2200 4075 
L 2650 3625 
L 1625 3625 
L 1625 3000 
Q 2200 2725 2337 2562 
Q 2475 2400 2475 2250 
Q 2475 2150 2412 2012 
Q 2350 1875 2300 1875 
Q 2225 1875 2125 2150 
Q 1950 2550 1625 2850 
Q 1625 250 1650 -475 
L 1275 -625 
z
M 4475 4400 
Q 4475 4825 4450 5275 
L 5025 5000 
L 4800 4825 
L 4800 4400 
L 5300 4400 
L 5600 4700 
L 6050 4250 
L 4800 4250 
Q 4800 3975 4825 3775 
L 4475 3650 
L 4475 4250 
L 3625 4250 
L 3625 3775 
L 3275 3600 
Q 3300 3900 3300 4250 
L 2675 4250 
L 2450 4200 
L 2250 4400 
L 3300 4400 
Q 3300 4750 3275 5250 
L 3825 5000 
L 3625 4850 
L 3625 4400 
L 4475 4400 
z
M 2825 1500 
Q 2850 2175 2850 2625 
Q 2850 3075 2825 3675 
L 3175 3475 
L 5000 3475 
L 5200 3700 
L 5550 3400 
L 5350 3250 
Q 5350 1975 5375 1700 
L 5025 1550 
L 5025 1850 
L 4150 1850 
Q 4125 1525 4075 1125 
L 5325 1125 
L 5650 1450 
L 6125 975 
L 4275 975 
Q 4550 550 4987 237 
Q 5425 -75 6100 -125 
L 6100 -225 
Q 5775 -275 5625 -550 
Q 4650 -175 4150 975 
L 4050 975 
Q 3650 -425 1875 -650 
L 1850 -575 
Q 2675 -375 3100 37 
Q 3525 450 3700 975 
L 2850 975 
Q 2525 975 2250 900 
L 2025 1125 
L 3725 1125 
Q 3775 1375 3800 1850 
L 3175 1850 
L 3175 1650 
L 2825 1500 
z
M 3175 3325 
L 3175 2750 
L 5025 2750 
L 5025 3325 
L 3175 3325 
z
M 3175 2600 
L 3175 2000 
L 5025 2000 
L 5025 2600 
L 3175 2600 
z
" transform="scale(0.015625)"/>
       <path id="SimSun-5f0f" d="M 2200 575 
L 3650 900 
L 3675 800 
Q 2150 325 1487 87 
Q 825 -150 725 -300 
L 375 175 
Q 1175 325 1850 475 
L 1850 2400 
L 1425 2400 
Q 1100 2400 825 2325 
L 600 2550 
L 2625 2550 
L 2950 2875 
L 3425 2400 
L 2200 2400 
L 2200 575 
z
M 4425 4975 
Q 4900 4800 5112 4662 
Q 5325 4525 5312 4350 
Q 5300 4175 5225 4100 
Q 5150 4025 5100 4025 
Q 5000 4025 4925 4225 
Q 4775 4525 4375 4900 
L 4425 4975 
z
M 3875 4775 
Q 3875 4200 3900 3775 
L 5050 3775 
L 5450 4175 
L 6000 3625 
L 3900 3625 
Q 4000 2350 4237 1662 
Q 4475 975 4787 600 
Q 5100 225 5600 25 
Q 5675 525 5775 1225 
L 5900 1225 
Q 5875 250 5937 -62 
Q 6000 -375 6100 -525 
Q 6150 -600 6050 -600 
Q 5950 -600 5487 -437 
Q 5025 -275 4600 187 
Q 4175 650 3900 1475 
Q 3625 2300 3550 3625 
L 1350 3625 
Q 1025 3625 750 3550 
L 525 3775 
L 3525 3775 
Q 3500 4500 3475 5225 
L 4100 4950 
L 3875 4775 
z
" transform="scale(0.015625)"/>
       <path id="SimSun-4e0b" d="M 450 4575 
L 5075 4575 
L 5450 4950 
L 5975 4425 
L 3250 4425 
L 3250 3125 
Q 4750 2675 4987 2412 
Q 5225 2150 5225 1950 
Q 5225 1875 5162 1737 
Q 5100 1600 5050 1600 
Q 4950 1600 4700 1925 
Q 4350 2400 3250 3000 
L 3250 450 
Q 3250 -75 3275 -425 
L 2850 -600 
Q 2875 325 2875 675 
L 2875 4425 
L 1275 4425 
Q 950 4425 675 4350 
L 450 4575 
z
" transform="scale(0.015625)"/>
       <path id="SimSun-7684" d="M 1125 3775 
L 1125 2175 
L 2425 2175 
L 2425 3775 
L 1125 3775 
z
M 1125 2025 
L 1125 275 
L 2425 275 
L 2425 2025 
L 1125 2025 
z
M 2750 3625 
Q 2750 700 2775 -200 
L 2425 -400 
L 2425 125 
L 1125 125 
L 1125 -300 
L 775 -500 
Q 800 675 800 1837 
Q 800 3000 775 4150 
L 1150 3925 
L 1400 3925 
Q 1650 4775 1675 5225 
L 2225 4925 
Q 1975 4800 1550 3925 
L 2375 3925 
L 2625 4175 
L 3000 3800 
L 2750 3625 
z
M 3975 5200 
L 4525 4875 
Q 4325 4750 3900 3850 
L 5250 3850 
L 5525 4125 
L 5900 3750 
L 5675 3575 
Q 5625 650 5537 262 
Q 5450 -125 5287 -275 
Q 5125 -425 4775 -550 
Q 4650 -150 3950 50 
L 3950 175 
Q 4575 50 4850 50 
Q 5125 50 5187 475 
Q 5250 900 5300 3700 
L 3850 3700 
Q 3400 2975 2900 2475 
L 2825 2525 
Q 3350 3325 3600 3950 
Q 3850 4575 3975 5200 
z
M 3525 2750 
Q 4125 2300 4225 2087 
Q 4325 1875 4325 1775 
Q 4325 1600 4225 1475 
Q 4125 1350 4075 1350 
Q 3975 1350 3925 1700 
Q 3825 2200 3475 2675 
L 3525 2750 
z
" transform="scale(0.015625)"/>
       <path id="SimSun-5229" d="M 2000 -575 
Q 2025 375 2025 700 
L 2025 2325 
Q 1300 1200 350 500 
L 275 575 
Q 1575 1900 2000 3175 
L 1100 3175 
Q 775 3175 500 3100 
L 275 3325 
L 2025 3325 
L 2025 4550 
Q 1325 4475 600 4425 
L 600 4525 
Q 1550 4650 2200 4825 
Q 2850 5000 3100 5225 
L 3550 4750 
Q 3275 4750 2375 4600 
L 2375 3325 
L 3050 3325 
L 3375 3650 
L 3850 3175 
L 2375 3175 
L 2375 2575 
Q 3450 2150 3500 1987 
Q 3550 1825 3550 1725 
Q 3550 1600 3487 1500 
Q 3425 1400 3400 1400 
Q 3325 1400 3175 1650 
Q 2950 2000 2375 2450 
L 2375 425 
Q 2375 -75 2400 -400 
L 2000 -575 
z
M 4425 3950 
L 4425 1875 
Q 4425 1450 4450 1075 
L 4075 900 
Q 4100 1800 4100 2825 
Q 4100 3850 4075 4425 
L 4625 4125 
L 4425 3950 
z
M 5375 4225 
Q 5375 4725 5350 5250 
L 5925 5000 
L 5725 4825 
L 5725 175 
Q 5775 -375 5150 -575 
Q 5150 -125 4175 50 
L 4175 150 
Q 4850 100 5112 87 
Q 5375 75 5375 425 
L 5375 4225 
z
" transform="scale(0.015625)"/>
       <path id="SimSun-7528" d="M 3400 3150 
L 3400 1825 
L 5075 1825 
L 5075 3150 
L 3400 3150 
z
M 4075 100 
Q 4725 50 4900 62 
Q 5075 75 5075 400 
L 5075 1675 
L 3400 1675 
Q 3400 75 3425 -225 
L 3050 -400 
Q 3075 1025 3075 1675 
L 1425 1675 
Q 1250 350 375 -600 
L 300 -550 
Q 775 225 950 1025 
Q 1125 1825 1125 3225 
Q 1125 4625 1100 5075 
L 1475 4825 
L 5050 4825 
L 5225 5100 
L 5625 4800 
L 5425 4600 
L 5425 225 
Q 5450 -400 4875 -575 
Q 4825 -150 4075 -25 
L 4075 100 
z
M 1475 4675 
L 1475 3300 
L 3075 3300 
L 3075 4675 
L 1475 4675 
z
M 3400 4675 
L 3400 3300 
L 5075 3300 
L 5075 4675 
L 3400 4675 
z
M 1475 3150 
Q 1450 2100 1425 1825 
L 3075 1825 
L 3075 3150 
L 1475 3150 
z
" transform="scale(0.015625)"/>
       <path id="SimSun-7387" d="M 875 3725 
L 925 3800 
Q 1375 3650 1550 3525 
Q 1725 3400 1725 3250 
Q 1725 3175 1662 3025 
Q 1600 2875 1550 2875 
Q 1500 2875 1425 3050 
Q 1275 3325 875 3725 
z
M 550 1850 
Q 875 1925 2000 2575 
L 2050 2500 
Q 1675 2225 1337 1937 
Q 1000 1650 875 1425 
L 550 1850 
z
M 5200 3450 
Q 4800 3150 4275 2800 
L 4225 2875 
Q 4775 3400 5050 3925 
L 5450 3525 
L 5200 3450 
z
M 4325 2500 
L 4350 2575 
Q 5225 2350 5375 2212 
Q 5525 2075 5525 1900 
Q 5525 1775 5487 1662 
Q 5450 1550 5400 1550 
Q 5325 1550 5200 1800 
Q 4975 2150 4325 2500 
z
M 3150 3900 
Q 2500 3300 2300 3150 
Q 2800 3150 3400 3175 
Q 3700 3500 3850 3825 
L 4250 3450 
Q 4050 3400 3450 2825 
Q 2850 2250 2475 1950 
Q 3150 1975 3850 2000 
Q 3750 2175 3550 2450 
L 3600 2500 
Q 4050 2250 4200 2100 
Q 4350 1950 4350 1850 
Q 4350 1775 4250 1625 
Q 4150 1475 4100 1475 
Q 4075 1475 4050 1550 
Q 4000 1700 3900 1900 
Q 3650 1875 3075 1800 
L 3500 1550 
L 3325 1425 
L 3325 975 
L 5325 975 
L 5650 1300 
L 6100 825 
L 3325 825 
Q 3325 -275 3350 -525 
L 2975 -650 
Q 3000 0 3000 825 
L 1125 825 
Q 800 825 525 750 
L 300 975 
L 3000 975 
L 3000 1775 
Q 2450 1700 2200 1525 
L 1950 1950 
Q 2275 1950 2675 2350 
Q 3075 2750 3325 3050 
Q 2400 2950 2150 2775 
L 1950 3175 
Q 2150 3150 2475 3575 
Q 2800 4000 2900 4225 
L 1450 4225 
Q 1125 4225 850 4150 
L 625 4375 
L 3100 4375 
Q 3050 4800 2675 5200 
L 2725 5250 
Q 3225 5050 3337 4912 
Q 3450 4775 3450 4700 
Q 3450 4550 3250 4375 
L 5025 4375 
L 5350 4675 
L 5775 4225 
L 3050 4225 
L 3375 3950 
L 3150 3900 
z
" transform="scale(0.015625)"/>
      </defs>
      <use xlink:href="#SimSun-7cfb"/>
      <use xlink:href="#SimSun-7edf" x="100"/>
      <use xlink:href="#SimSun-5728" x="200"/>
      <use xlink:href="#SimSun-4f4e" x="300"/>
      <use xlink:href="#SimSun-5173" x="400"/>
      <use xlink:href="#SimSun-952e" x="500"/>
      <use xlink:href="#SimSun-5ea6" x="600"/>
      <use xlink:href="#SimSun-6a21" x="700"/>
      <use xlink:href="#SimSun-5f0f" x="800"/>
      <use xlink:href="#SimSun-4e0b" x="900"/>
      <use xlink:href="#SimSun-7684" x="1000"/>
      <use xlink:href="#SimSun-5229" x="1100"/>
      <use xlink:href="#SimSun-7528" x="1200"/>
      <use xlink:href="#SimSun-7387" x="1300"/>
     </g>
    </g>
   </g>
   <g id="matplotlib.axis_2">
    <g id="ytick_1">
     <g id="line2d_7">
      <defs>
       <path id="m6ec7482334" d="M 0 0 
L -3.5 0 
" style="stroke: #000000; stroke-width: 0.8"/>
      </defs>
      <g>
       <use xlink:href="#m6ec7482334" x="69.0125" y="240.195371" style="stroke: #000000; stroke-width: 0.8"/>
      </g>
     </g>
     <g id="text_8">
      <!-- 0.002 -->
      <g transform="translate(26.0125 245.750371) scale(0.16 -0.16)">
       <use xlink:href="#TimesNewRomanPSMT-30"/>
       <use xlink:href="#TimesNewRomanPSMT-2e" x="50"/>
       <use xlink:href="#TimesNewRomanPSMT-30" x="75"/>
       <use xlink:href="#TimesNewRomanPSMT-30" x="125"/>
       <use xlink:href="#TimesNewRomanPSMT-32" x="175"/>
      </g>
     </g>
    </g>
    <g id="ytick_2">
     <g id="line2d_8">
      <g>
       <use xlink:href="#m6ec7482334" x="69.0125" y="205.656036" style="stroke: #000000; stroke-width: 0.8"/>
      </g>
     </g>
     <g id="text_9">
      <!-- 0.004 -->
      <g transform="translate(26.0125 211.211036) scale(0.16 -0.16)">
       <defs>
        <path id="TimesNewRomanPSMT-34" d="M 2978 1563 
L 2978 1119 
L 2409 1119 
L 2409 0 
L 1894 0 
L 1894 1119 
L 100 1119 
L 100 1519 
L 2066 4325 
L 2409 4325 
L 2409 1563 
L 2978 1563 
z
M 1894 1563 
L 1894 3666 
L 406 1563 
L 1894 1563 
z
" transform="scale(0.015625)"/>
       </defs>
       <use xlink:href="#TimesNewRomanPSMT-30"/>
       <use xlink:href="#TimesNewRomanPSMT-2e" x="50"/>
       <use xlink:href="#TimesNewRomanPSMT-30" x="75"/>
       <use xlink:href="#TimesNewRomanPSMT-30" x="125"/>
       <use xlink:href="#TimesNewRomanPSMT-34" x="175"/>
      </g>
     </g>
    </g>
    <g id="ytick_3">
     <g id="line2d_9">
      <g>
       <use xlink:href="#m6ec7482334" x="69.0125" y="171.116702" style="stroke: #000000; stroke-width: 0.8"/>
      </g>
     </g>
     <g id="text_10">
      <!-- 0.006 -->
      <g transform="translate(26.0125 176.671702) scale(0.16 -0.16)">
       <defs>
        <path id="TimesNewRomanPSMT-36" d="M 2869 4325 
L 2869 4209 
Q 2456 4169 2195 4045 
Q 1934 3922 1679 3669 
Q 1425 3416 1258 3105 
Q 1091 2794 978 2366 
Q 1428 2675 1881 2675 
Q 2316 2675 2634 2325 
Q 2953 1975 2953 1425 
Q 2953 894 2631 456 
Q 2244 -75 1606 -75 
Q 1172 -75 869 213 
Q 275 772 275 1663 
Q 275 2231 503 2743 
Q 731 3256 1154 3653 
Q 1578 4050 1965 4187 
Q 2353 4325 2688 4325 
L 2869 4325 
z
M 925 2138 
Q 869 1716 869 1456 
Q 869 1156 980 804 
Q 1091 453 1309 247 
Q 1469 100 1697 100 
Q 1969 100 2183 356 
Q 2397 613 2397 1088 
Q 2397 1622 2184 2012 
Q 1972 2403 1581 2403 
Q 1463 2403 1327 2353 
Q 1191 2303 925 2138 
z
" transform="scale(0.015625)"/>
       </defs>
       <use xlink:href="#TimesNewRomanPSMT-30"/>
       <use xlink:href="#TimesNewRomanPSMT-2e" x="50"/>
       <use xlink:href="#TimesNewRomanPSMT-30" x="75"/>
       <use xlink:href="#TimesNewRomanPSMT-30" x="125"/>
       <use xlink:href="#TimesNewRomanPSMT-36" x="175"/>
      </g>
     </g>
    </g>
    <g id="ytick_4">
     <g id="line2d_10">
      <g>
       <use xlink:href="#m6ec7482334" x="69.0125" y="136.577368" style="stroke: #000000; stroke-width: 0.8"/>
      </g>
     </g>
     <g id="text_11">
      <!-- 0.008 -->
      <g transform="translate(26.0125 142.132368) scale(0.16 -0.16)">
       <defs>
        <path id="TimesNewRomanPSMT-38" d="M 1228 2134 
Q 725 2547 579 2797 
Q 434 3047 434 3316 
Q 434 3728 753 4026 
Q 1072 4325 1600 4325 
Q 2113 4325 2425 4047 
Q 2738 3769 2738 3413 
Q 2738 3175 2569 2928 
Q 2400 2681 1866 2347 
Q 2416 1922 2594 1678 
Q 2831 1359 2831 1006 
Q 2831 559 2490 242 
Q 2150 -75 1597 -75 
Q 994 -75 656 303 
Q 388 606 388 966 
Q 388 1247 577 1523 
Q 766 1800 1228 2134 
z
M 1719 2469 
Q 2094 2806 2194 3001 
Q 2294 3197 2294 3444 
Q 2294 3772 2109 3958 
Q 1925 4144 1606 4144 
Q 1288 4144 1088 3959 
Q 888 3775 888 3528 
Q 888 3366 970 3203 
Q 1053 3041 1206 2894 
L 1719 2469 
z
M 1375 2016 
Q 1116 1797 991 1539 
Q 866 1281 866 981 
Q 866 578 1086 336 
Q 1306 94 1647 94 
Q 1984 94 2187 284 
Q 2391 475 2391 747 
Q 2391 972 2272 1150 
Q 2050 1481 1375 2016 
z
" transform="scale(0.015625)"/>
       </defs>
       <use xlink:href="#TimesNewRomanPSMT-30"/>
       <use xlink:href="#TimesNewRomanPSMT-2e" x="50"/>
       <use xlink:href="#TimesNewRomanPSMT-30" x="75"/>
       <use xlink:href="#TimesNewRomanPSMT-30" x="125"/>
       <use xlink:href="#TimesNewRomanPSMT-38" x="175"/>
      </g>
     </g>
    </g>
    <g id="ytick_5">
     <g id="line2d_11">
      <g>
       <use xlink:href="#m6ec7482334" x="69.0125" y="102.038033" style="stroke: #000000; stroke-width: 0.8"/>
      </g>
     </g>
     <g id="text_12">
      <!-- 0.010 -->
      <g transform="translate(26.0125 107.593033) scale(0.16 -0.16)">
       <use xlink:href="#TimesNewRomanPSMT-30"/>
       <use xlink:href="#TimesNewRomanPSMT-2e" x="50"/>
       <use xlink:href="#TimesNewRomanPSMT-30" x="75"/>
       <use xlink:href="#TimesNewRomanPSMT-31" x="125"/>
       <use xlink:href="#TimesNewRomanPSMT-30" x="175"/>
      </g>
     </g>
    </g>
    <g id="ytick_6">
     <g id="line2d_12">
      <g>
       <use xlink:href="#m6ec7482334" x="69.0125" y="67.498699" style="stroke: #000000; stroke-width: 0.8"/>
      </g>
     </g>
     <g id="text_13">
      <!-- 0.012 -->
      <g transform="translate(26.0125 73.053699) scale(0.16 -0.16)">
       <use xlink:href="#TimesNewRomanPSMT-30"/>
       <use xlink:href="#TimesNewRomanPSMT-2e" x="50"/>
       <use xlink:href="#TimesNewRomanPSMT-30" x="75"/>
       <use xlink:href="#TimesNewRomanPSMT-31" x="125"/>
       <use xlink:href="#TimesNewRomanPSMT-32" x="175"/>
      </g>
     </g>
    </g>
    <g id="ytick_7">
     <g id="line2d_13">
      <g>
       <use xlink:href="#m6ec7482334" x="69.0125" y="32.959364" style="stroke: #000000; stroke-width: 0.8"/>
      </g>
     </g>
     <g id="text_14">
      <!-- 0.014 -->
      <g transform="translate(26.0125 38.514364) scale(0.16 -0.16)">
       <use xlink:href="#TimesNewRomanPSMT-30"/>
       <use xlink:href="#TimesNewRomanPSMT-2e" x="50"/>
       <use xlink:href="#TimesNewRomanPSMT-30" x="75"/>
       <use xlink:href="#TimesNewRomanPSMT-31" x="125"/>
       <use xlink:href="#TimesNewRomanPSMT-34" x="175"/>
      </g>
     </g>
    </g>
    <g id="text_15">
     <!-- 算法所用时间 -->
     <g transform="translate(19.95 188.256) rotate(-90) scale(0.16 -0.16)">
      <defs>
       <path id="SimSun-7b97" d="M 2675 1525 
Q 2650 1125 2600 750 
L 3825 750 
L 3825 1525 
L 2675 1525 
z
M 4900 2075 
Q 4900 1875 4925 1425 
L 4550 1275 
L 4550 1525 
L 4175 1525 
L 4175 775 
L 5300 775 
L 5650 1100 
L 6100 625 
L 4175 625 
Q 4175 -225 4200 -475 
L 3800 -650 
Q 3825 100 3825 600 
L 2575 600 
Q 2400 50 1837 -250 
Q 1275 -550 625 -650 
L 600 -575 
Q 1325 -325 1687 -62 
Q 2050 200 2200 600 
L 1125 600 
Q 800 600 525 525 
L 300 750 
L 2225 750 
Q 2275 1100 2300 1525 
L 1850 1525 
L 1850 1325 
L 1500 1200 
Q 1525 1975 1512 2787 
Q 1500 3600 1475 3775 
L 1850 3575 
L 4525 3575 
L 4675 3800 
L 5075 3525 
L 4900 3375 
L 4900 2075 
z
M 1850 3425 
L 1850 2975 
L 4550 2975 
L 4550 3425 
L 1850 3425 
z
M 1850 2825 
L 1850 2350 
L 4550 2350 
L 4550 2825 
L 1850 2825 
z
M 1850 2200 
L 1850 1675 
L 4550 1675 
L 4550 2200 
L 1850 2200 
z
M 1575 5275 
L 2075 5000 
Q 1925 4925 1837 4825 
Q 1750 4725 1600 4500 
L 2700 4500 
L 3000 4800 
L 3400 4350 
L 2125 4350 
Q 2650 4075 2587 3887 
Q 2525 3700 2462 3662 
Q 2400 3625 2350 3625 
Q 2275 3625 2250 3712 
Q 2225 3800 2200 3975 
Q 2150 4125 1950 4350 
L 1525 4350 
Q 1275 3975 1050 3725 
Q 825 3475 475 3225 
L 425 3300 
Q 650 3525 950 3950 
Q 1250 4375 1575 5275 
z
M 4000 5250 
L 4450 4950 
Q 4325 4925 4200 4775 
Q 4075 4625 3975 4475 
L 5325 4475 
L 5625 4750 
L 6000 4325 
L 4675 4325 
Q 5300 4125 5300 3937 
Q 5300 3750 5212 3675 
Q 5125 3600 5100 3600 
Q 5050 3600 4987 3712 
Q 4925 3825 4850 3962 
Q 4775 4100 4500 4325 
L 3900 4325 
Q 3725 4150 3575 3975 
Q 3400 3775 3225 3625 
L 3150 3675 
Q 3450 4050 3712 4562 
Q 3975 5075 4000 5250 
z
" transform="scale(0.015625)"/>
       <path id="SimSun-6cd5" d="M 3800 3850 
Q 3800 4925 3775 5275 
L 4375 4975 
L 4125 4725 
L 4125 3850 
L 5100 3850 
L 5375 4125 
L 5775 3700 
L 4125 3700 
L 4125 2350 
L 5450 2350 
L 5750 2650 
L 6175 2200 
L 3825 2200 
L 4225 1925 
Q 4000 1825 3750 1450 
Q 3500 1075 2600 125 
L 5225 300 
Q 4900 750 4525 1175 
L 4575 1250 
Q 5025 925 5287 725 
Q 5550 525 5712 337 
Q 5875 150 5875 0 
Q 5875 -150 5775 -300 
Q 5675 -450 5650 -450 
Q 5575 -450 5525 -300 
Q 5425 -50 5300 175 
Q 3900 25 3175 -150 
Q 2450 -325 2350 -450 
L 2100 125 
Q 2425 125 2962 875 
Q 3500 1625 3700 2200 
L 2775 2200 
Q 2450 2200 2175 2125 
L 1950 2350 
L 3800 2350 
L 3800 3700 
L 3250 3700 
Q 2925 3700 2650 3625 
L 2425 3850 
L 3800 3850 
z
M 2375 4150 
Q 1400 1500 1312 1187 
Q 1225 875 1237 425 
Q 1250 -25 1275 -200 
Q 1275 -300 1150 -300 
Q 1050 -300 900 -250 
Q 750 -200 750 -25 
Q 750 100 825 350 
Q 900 600 900 750 
Q 900 925 787 1025 
Q 675 1125 300 1225 
L 300 1325 
Q 750 1275 862 1287 
Q 975 1300 1112 1512 
Q 1250 1725 2275 4175 
L 2375 4150 
z
M 325 3600 
Q 1200 3150 1200 2862 
Q 1200 2575 1062 2475 
Q 925 2375 825 2725 
Q 700 3050 275 3525 
L 325 3600 
z
M 900 5050 
Q 1600 4700 1662 4525 
Q 1725 4350 1725 4275 
Q 1725 4150 1637 4050 
Q 1550 3950 1500 3950 
Q 1425 3950 1350 4200 
Q 1225 4525 850 4975 
L 900 5050 
z
" transform="scale(0.015625)"/>
       <path id="SimSun-6240" d="M 5150 450 
Q 5150 125 5175 -375 
L 4775 -575 
Q 4800 175 4800 800 
L 4800 2925 
L 3800 2925 
Q 3825 700 2125 -625 
L 2050 -550 
Q 2600 -50 2987 762 
Q 3375 1575 3400 2262 
Q 3425 2950 3425 3525 
Q 3425 4200 3400 4750 
L 3800 4525 
Q 5200 4875 5525 5175 
L 6000 4700 
Q 5650 4750 3800 4400 
L 3800 3075 
L 5425 3075 
L 5725 3375 
L 6175 2925 
L 5150 2925 
L 5150 450 
z
M 1350 3225 
L 1325 1975 
L 2500 1975 
L 2500 3225 
L 1350 3225 
z
M 2775 5150 
L 3175 4725 
Q 2725 4725 1350 4375 
L 1350 3375 
L 2475 3375 
L 2675 3600 
L 3050 3275 
L 2850 3125 
Q 2850 2050 2875 1600 
L 2500 1450 
L 2500 1825 
L 1325 1825 
Q 1300 450 325 -625 
L 250 -575 
Q 725 150 862 912 
Q 1000 1675 987 2950 
Q 975 4225 950 4750 
L 1350 4525 
Q 1800 4650 2175 4800 
Q 2550 4950 2775 5150 
z
" transform="scale(0.015625)"/>
       <path id="SimSun-65f6" d="M 4500 3600 
Q 4500 4575 4475 5225 
L 5100 4900 
L 4850 4725 
L 4850 3600 
L 5225 3600 
L 5550 3925 
L 6025 3450 
L 4850 3450 
L 4850 100 
Q 4850 -375 4300 -575 
Q 4275 -200 3475 -25 
L 3475 100 
Q 4150 0 4325 25 
Q 4500 50 4500 325 
L 4500 3450 
L 3200 3450 
Q 2875 3450 2600 3375 
L 2375 3600 
L 4500 3600 
z
M 2875 2825 
Q 3525 2375 3637 2200 
Q 3750 2025 3750 1925 
Q 3750 1800 3637 1637 
Q 3525 1475 3475 1475 
Q 3400 1475 3325 1775 
Q 3200 2225 2800 2750 
L 2875 2825 
z
M 925 4150 
L 925 2650 
L 1950 2650 
L 1950 4150 
L 925 4150 
z
M 925 2500 
L 925 900 
L 1950 900 
L 1950 2500 
L 925 2500 
z
M 2300 2000 
Q 2300 800 2325 450 
L 1950 250 
L 1950 750 
L 925 750 
L 925 225 
L 550 25 
Q 575 825 575 2425 
Q 575 4025 550 4500 
L 950 4300 
L 1900 4300 
L 2100 4550 
L 2500 4225 
L 2300 4050 
L 2300 2000 
z
" transform="scale(0.015625)"/>
       <path id="SimSun-95f4" d="M 2150 525 
Q 2175 1325 2175 2112 
Q 2175 2900 2150 3675 
L 2525 3450 
L 3750 3450 
L 4000 3700 
L 4325 3375 
L 4125 3200 
Q 4125 1550 4150 775 
L 3800 575 
L 3800 975 
L 2500 975 
L 2500 700 
L 2150 525 
z
M 2500 3300 
L 2500 2325 
L 3800 2325 
L 3800 3300 
L 2500 3300 
z
M 2500 2175 
L 2500 1125 
L 3800 1125 
L 3800 2175 
L 2500 2175 
z
M 1275 5200 
Q 1850 4825 1950 4675 
Q 2050 4525 2050 4425 
Q 2050 4275 1950 4137 
Q 1850 4000 1825 4000 
Q 1750 4000 1675 4275 
Q 1550 4650 1200 5125 
L 1275 5200 
z
M 1125 425 
Q 1125 25 1150 -375 
L 750 -525 
Q 775 -150 775 1950 
Q 775 4050 750 4425 
L 1350 4125 
L 1125 3975 
L 1125 425 
z
M 4225 125 
Q 5025 0 5125 37 
Q 5225 75 5225 250 
L 5225 4450 
L 3225 4450 
Q 2900 4450 2625 4375 
L 2400 4600 
L 5175 4600 
L 5425 4850 
L 5775 4500 
L 5575 4350 
L 5575 225 
Q 5575 -100 5462 -250 
Q 5350 -400 5000 -550 
Q 4800 -125 4225 25 
L 4225 125 
z
" transform="scale(0.015625)"/>
      </defs>
      <use xlink:href="#SimSun-7b97"/>
      <use xlink:href="#SimSun-6cd5" x="100"/>
      <use xlink:href="#SimSun-6240" x="200"/>
      <use xlink:href="#SimSun-7528" x="300"/>
      <use xlink:href="#SimSun-65f6" x="400"/>
      <use xlink:href="#SimSun-95f4" x="500"/>
     </g>
    </g>
   </g>
   <g id="line2d_14">
    <path d="M 82.239167 19.296 
L 148.3725 32.090814 
L 214.505833 40.692666 
L 280.639167 43.194352 
L 346.7725 30.281084 
L 412.905833 26.751692 
" clip-path="url(#p543ebe8cf8)" style="fill: none; stroke-dasharray: 6.4,1.6,1,1.6; stroke-dashoffset: 0; stroke: #4169e1"/>
    <defs>
     <path id="m5e30a2b844" d="M 0 3 
C 0.795609 3 1.55874 2.683901 2.12132 2.12132 
C 2.683901 1.55874 3 0.795609 3 0 
C 3 -0.795609 2.683901 -1.55874 2.12132 -2.12132 
C 1.55874 -2.683901 0.795609 -3 0 -3 
C -0.795609 -3 -1.55874 -2.683901 -2.12132 -2.12132 
C -2.683901 -1.55874 -3 -0.795609 -3 0 
C -3 0.795609 -2.683901 1.55874 -2.12132 2.12132 
C -1.55874 2.683901 -0.795609 3 0 3 
z
" style="stroke: #4169e1"/>
    </defs>
    <g clip-path="url(#p543ebe8cf8)">
     <use xlink:href="#m5e30a2b844" x="82.239167" y="19.296" style="fill: #4169e1; stroke: #4169e1"/>
     <use xlink:href="#m5e30a2b844" x="148.3725" y="32.090814" style="fill: #4169e1; stroke: #4169e1"/>
     <use xlink:href="#m5e30a2b844" x="214.505833" y="40.692666" style="fill: #4169e1; stroke: #4169e1"/>
     <use xlink:href="#m5e30a2b844" x="280.639167" y="43.194352" style="fill: #4169e1; stroke: #4169e1"/>
     <use xlink:href="#m5e30a2b844" x="346.7725" y="30.281084" style="fill: #4169e1; stroke: #4169e1"/>
     <use xlink:href="#m5e30a2b844" x="412.905833" y="26.751692" style="fill: #4169e1; stroke: #4169e1"/>
    </g>
   </g>
   <g id="line2d_15">
    <path d="M 82.239167 249.397766 
L 148.3725 243.274111 
L 214.505833 239.637766 
L 280.639167 236.031336 
L 346.7725 231.618133 
L 412.905833 230.076007 
" clip-path="url(#p543ebe8cf8)" style="fill: none; stroke-dasharray: 6.4,1.6,1,1.6; stroke-dashoffset: 0; stroke: #ff0000"/>
    <defs>
     <path id="m23d35492fa" d="M -3 3 
L 3 -3 
M -3 -3 
L 3 3 
" style="stroke: #ff0000"/>
    </defs>
    <g clip-path="url(#p543ebe8cf8)">
     <use xlink:href="#m23d35492fa" x="82.239167" y="249.397766" style="fill: #ff0000; stroke: #ff0000"/>
     <use xlink:href="#m23d35492fa" x="148.3725" y="243.274111" style="fill: #ff0000; stroke: #ff0000"/>
     <use xlink:href="#m23d35492fa" x="214.505833" y="239.637766" style="fill: #ff0000; stroke: #ff0000"/>
     <use xlink:href="#m23d35492fa" x="280.639167" y="236.031336" style="fill: #ff0000; stroke: #ff0000"/>
     <use xlink:href="#m23d35492fa" x="346.7725" y="231.618133" style="fill: #ff0000; stroke: #ff0000"/>
     <use xlink:href="#m23d35492fa" x="412.905833" y="230.076007" style="fill: #ff0000; stroke: #ff0000"/>
    </g>
   </g>
   <g id="line2d_16">
    <path d="M 82.239167 24.153593 
L 148.3725 52.882218 
L 214.505833 60.640858 
L 280.639167 65.766367 
L 346.7725 56.914885 
L 412.905833 66.670957 
" clip-path="url(#p543ebe8cf8)" style="fill: none; stroke-dasharray: 6.4,1.6,1,1.6; stroke-dashoffset: 0; stroke: #2e8b57"/>
    <defs>
     <path id="m0290748f4a" d="M 0 -3 
L -0.673542 -0.927051 
L -2.85317 -0.927051 
L -1.089814 0.354102 
L -1.763356 2.427051 
L -0 1.145898 
L 1.763356 2.427051 
L 1.089814 0.354102 
L 2.85317 -0.927051 
L 0.673542 -0.927051 
z
" style="stroke: #2e8b57; stroke-linejoin: bevel"/>
    </defs>
    <g clip-path="url(#p543ebe8cf8)">
     <use xlink:href="#m0290748f4a" x="82.239167" y="24.153593" style="fill: #2e8b57; stroke: #2e8b57; stroke-linejoin: bevel"/>
     <use xlink:href="#m0290748f4a" x="148.3725" y="52.882218" style="fill: #2e8b57; stroke: #2e8b57; stroke-linejoin: bevel"/>
     <use xlink:href="#m0290748f4a" x="214.505833" y="60.640858" style="fill: #2e8b57; stroke: #2e8b57; stroke-linejoin: bevel"/>
     <use xlink:href="#m0290748f4a" x="280.639167" y="65.766367" style="fill: #2e8b57; stroke: #2e8b57; stroke-linejoin: bevel"/>
     <use xlink:href="#m0290748f4a" x="346.7725" y="56.914885" style="fill: #2e8b57; stroke: #2e8b57; stroke-linejoin: bevel"/>
     <use xlink:href="#m0290748f4a" x="412.905833" y="66.670957" style="fill: #2e8b57; stroke: #2e8b57; stroke-linejoin: bevel"/>
    </g>
   </g>
   <g id="line2d_17">
    <path d="M 82.239167 241.344774 
L 148.3725 234.924666 
L 214.505833 229.978525 
L 280.639167 226.432493 
L 346.7725 223.897235 
L 412.905833 219.969956 
" clip-path="url(#p543ebe8cf8)" style="fill: none; stroke-dasharray: 6.4,1.6,1,1.6; stroke-dashoffset: 0; stroke: #ff8c00"/>
    <defs>
     <path id="me79f0e2723" d="M 0 -3 
L -2.85317 -0.927051 
L -1.763356 2.427051 
L 1.763356 2.427051 
L 2.85317 -0.927051 
z
" style="stroke: #ff8c00; stroke-linejoin: miter"/>
    </defs>
    <g clip-path="url(#p543ebe8cf8)">
     <use xlink:href="#me79f0e2723" x="82.239167" y="241.344774" style="fill: #ff8c00; stroke: #ff8c00; stroke-linejoin: miter"/>
     <use xlink:href="#me79f0e2723" x="148.3725" y="234.924666" style="fill: #ff8c00; stroke: #ff8c00; stroke-linejoin: miter"/>
     <use xlink:href="#me79f0e2723" x="214.505833" y="229.978525" style="fill: #ff8c00; stroke: #ff8c00; stroke-linejoin: miter"/>
     <use xlink:href="#me79f0e2723" x="280.639167" y="226.432493" style="fill: #ff8c00; stroke: #ff8c00; stroke-linejoin: miter"/>
     <use xlink:href="#me79f0e2723" x="346.7725" y="223.897235" style="fill: #ff8c00; stroke: #ff8c00; stroke-linejoin: miter"/>
     <use xlink:href="#me79f0e2723" x="412.905833" y="219.969956" style="fill: #ff8c00; stroke: #ff8c00; stroke-linejoin: miter"/>
    </g>
   </g>
   <g id="line2d_18">
    <path d="M 82.239167 204.737785 
L 148.3725 204.370903 
L 214.505833 205.604399 
L 280.639167 206.374845 
L 346.7725 199.803148 
L 412.905833 197.01566 
" clip-path="url(#p543ebe8cf8)" style="fill: none; stroke-dasharray: 6.4,1.6,1,1.6; stroke-dashoffset: 0; stroke: #9370db"/>
    <defs>
     <path id="m433df38c8b" d="M -0 3 
L 3 -3 
L -3 -3 
z
" style="stroke: #9370db; stroke-linejoin: miter"/>
    </defs>
    <g clip-path="url(#p543ebe8cf8)">
     <use xlink:href="#m433df38c8b" x="82.239167" y="204.737785" style="fill: #9370db; stroke: #9370db; stroke-linejoin: miter"/>
     <use xlink:href="#m433df38c8b" x="148.3725" y="204.370903" style="fill: #9370db; stroke: #9370db; stroke-linejoin: miter"/>
     <use xlink:href="#m433df38c8b" x="214.505833" y="205.604399" style="fill: #9370db; stroke: #9370db; stroke-linejoin: miter"/>
     <use xlink:href="#m433df38c8b" x="280.639167" y="206.374845" style="fill: #9370db; stroke: #9370db; stroke-linejoin: miter"/>
     <use xlink:href="#m433df38c8b" x="346.7725" y="199.803148" style="fill: #9370db; stroke: #9370db; stroke-linejoin: miter"/>
     <use xlink:href="#m433df38c8b" x="412.905833" y="197.01566" style="fill: #9370db; stroke: #9370db; stroke-linejoin: miter"/>
    </g>
   </g>
   <g id="line2d_19">
    <path d="M 82.239167 261.033887 
L 148.3725 260.841156 
L 214.505833 260.639577 
L 280.639167 261.216 
L 346.7725 260.486019 
L 412.905833 259.669692 
" clip-path="url(#p543ebe8cf8)" style="fill: none; stroke-dasharray: 6.4,1.6,1,1.6; stroke-dashoffset: 0; stroke: #a0522d"/>
    <defs>
     <path id="mdf0f687a9c" d="M 0 -3 
L -2.598076 -1.5 
L -2.598076 1.5 
L -0 3 
L 2.598076 1.5 
L 2.598076 -1.5 
z
" style="stroke: #a0522d; stroke-linejoin: miter"/>
    </defs>
    <g clip-path="url(#p543ebe8cf8)">
     <use xlink:href="#mdf0f687a9c" x="82.239167" y="261.033887" style="fill: #a0522d; stroke: #a0522d; stroke-linejoin: miter"/>
     <use xlink:href="#mdf0f687a9c" x="148.3725" y="260.841156" style="fill: #a0522d; stroke: #a0522d; stroke-linejoin: miter"/>
     <use xlink:href="#mdf0f687a9c" x="214.505833" y="260.639577" style="fill: #a0522d; stroke: #a0522d; stroke-linejoin: miter"/>
     <use xlink:href="#mdf0f687a9c" x="280.639167" y="261.216" style="fill: #a0522d; stroke: #a0522d; stroke-linejoin: miter"/>
     <use xlink:href="#mdf0f687a9c" x="346.7725" y="260.486019" style="fill: #a0522d; stroke: #a0522d; stroke-linejoin: miter"/>
     <use xlink:href="#mdf0f687a9c" x="412.905833" y="259.669692" style="fill: #a0522d; stroke: #a0522d; stroke-linejoin: miter"/>
    </g>
   </g>
   <g id="line2d_20">
    <path d="M 82.239167 245.071496 
L 148.3725 239.699089 
L 214.505833 234.965725 
L 280.639167 232.205814 
L 346.7725 228.688708 
L 412.905833 225.678548 
" clip-path="url(#p543ebe8cf8)" style="fill: none; stroke-dasharray: 6.4,1.6,1,1.6; stroke-dashoffset: 0; stroke: #008b8b"/>
    <defs>
     <path id="mc86136fe71" d="M -3 0 
L 3 0 
M 0 3 
L 0 -3 
" style="stroke: #008b8b"/>
    </defs>
    <g clip-path="url(#p543ebe8cf8)">
     <use xlink:href="#mc86136fe71" x="82.239167" y="245.071496" style="fill: #008b8b; stroke: #008b8b"/>
     <use xlink:href="#mc86136fe71" x="148.3725" y="239.699089" style="fill: #008b8b; stroke: #008b8b"/>
     <use xlink:href="#mc86136fe71" x="214.505833" y="234.965725" style="fill: #008b8b; stroke: #008b8b"/>
     <use xlink:href="#mc86136fe71" x="280.639167" y="232.205814" style="fill: #008b8b; stroke: #008b8b"/>
     <use xlink:href="#mc86136fe71" x="346.7725" y="228.688708" style="fill: #008b8b; stroke: #008b8b"/>
     <use xlink:href="#mc86136fe71" x="412.905833" y="225.678548" style="fill: #008b8b; stroke: #008b8b"/>
    </g>
   </g>
   <g id="patch_3">
    <path d="M 69.0125 273.312 
L 69.0125 7.2 
" style="fill: none; stroke: #000000; stroke-width: 0.8; stroke-linejoin: miter; stroke-linecap: square"/>
   </g>
   <g id="patch_4">
    <path d="M 426.1325 273.312 
L 426.1325 7.2 
" style="fill: none; stroke: #000000; stroke-width: 0.8; stroke-linejoin: miter; stroke-linecap: square"/>
   </g>
   <g id="patch_5">
    <path d="M 69.0125 273.312 
L 426.1325 273.312 
" style="fill: none; stroke: #000000; stroke-width: 0.8; stroke-linejoin: miter; stroke-linecap: square"/>
   </g>
   <g id="patch_6">
    <path d="M 69.0125 7.2 
L 426.1325 7.2 
" style="fill: none; stroke: #000000; stroke-width: 0.8; stroke-linejoin: miter; stroke-linecap: square"/>
   </g>
   <g id="legend_1">
    <g id="patch_7">
     <path d="M 80.2125 218.3435 
L 195.4125 218.3435 
Q 198.6125 218.3435 198.6125 215.1435 
L 198.6125 65.3685 
Q 198.6125 62.1685 195.4125 62.1685 
L 80.2125 62.1685 
Q 77.0125 62.1685 77.0125 65.3685 
L 77.0125 215.1435 
Q 77.0125 218.3435 80.2125 218.3435 
z
" style="fill: #ffffff; opacity: 0.8; stroke: #cccccc; stroke-linejoin: miter"/>
    </g>
    <g id="line2d_21">
     <path d="M 83.4125 74.406 
L 99.4125 74.406 
L 115.4125 74.406 
" style="fill: none; stroke-dasharray: 6.4,1.6,1,1.6; stroke-dashoffset: 0; stroke: #4169e1"/>
     <g>
      <use xlink:href="#m5e30a2b844" x="99.4125" y="74.406" style="fill: #4169e1; stroke: #4169e1"/>
     </g>
    </g>
    <g id="text_16">
     <!-- FF_DU -->
     <g transform="translate(128.2125 80.006) scale(0.16 -0.16)">
      <defs>
       <path id="SimSun-46" d="M 1350 250 
L 1350 100 
L 150 100 
L 150 250 
L 325 250 
Q 450 250 500 300 
Q 550 350 550 450 
L 550 4025 
Q 550 4125 500 4175 
Q 450 4225 325 4225 
L 175 4225 
L 175 4375 
L 2775 4375 
L 3075 3475 
L 2950 3425 
Q 2750 3825 2475 4025 
Q 2200 4225 1875 4225 
L 1175 4225 
Q 1075 4225 1012 4175 
Q 950 4125 950 4025 
L 950 2425 
L 1775 2425 
Q 2025 2425 2137 2537 
Q 2250 2650 2250 2900 
L 2250 3025 
L 2400 3025 
L 2400 1575 
L 2250 1575 
L 2250 1675 
Q 2250 1975 2137 2125 
Q 2025 2275 1775 2275 
L 950 2275 
L 950 450 
Q 950 350 1012 300 
Q 1075 250 1175 250 
L 1350 250 
z
" transform="scale(0.015625)"/>
       <path id="SimSun-5f" d="M 0 -875 
L 0 -725 
L 3175 -725 
L 3175 -875 
L 0 -875 
z
" transform="scale(0.015625)"/>
       <path id="SimSun-44" d="M 2500 2275 
Q 2500 3350 2175 3787 
Q 1850 4225 1275 4225 
Q 1100 4225 1012 4175 
Q 925 4125 925 4025 
L 925 450 
Q 925 350 1000 300 
Q 1075 250 1200 250 
Q 1750 250 2125 662 
Q 2500 1075 2500 2275 
z
M 525 4025 
Q 525 4125 475 4175 
Q 425 4225 300 4225 
L 150 4225 
L 150 4375 
L 1275 4375 
Q 2050 4375 2512 3875 
Q 2975 3375 2975 2325 
Q 2975 1175 2525 637 
Q 2075 100 1200 100 
L 125 100 
L 125 250 
L 300 250 
Q 425 250 475 300 
Q 525 350 525 450 
L 525 4025 
z
" transform="scale(0.015625)"/>
       <path id="SimSun-55" d="M 1625 250 
Q 2000 250 2262 500 
Q 2525 750 2525 1125 
L 2525 4025 
Q 2525 4125 2475 4175 
Q 2425 4225 2300 4225 
L 2150 4225 
L 2150 4375 
L 3050 4375 
L 3050 4225 
L 2900 4225 
Q 2800 4225 2737 4175 
Q 2675 4125 2675 4025 
L 2675 1125 
Q 2675 625 2337 337 
Q 2000 50 1575 50 
Q 1125 50 787 300 
Q 450 550 450 1100 
L 450 4025 
Q 450 4125 400 4175 
Q 350 4225 225 4225 
L 100 4225 
L 100 4375 
L 1200 4375 
L 1200 4225 
L 1075 4225 
Q 975 4225 912 4175 
Q 850 4125 850 4025 
L 850 1100 
Q 850 600 1062 425 
Q 1275 250 1625 250 
z
" transform="scale(0.015625)"/>
      </defs>
      <use xlink:href="#SimSun-46"/>
      <use xlink:href="#SimSun-46" x="50"/>
      <use xlink:href="#SimSun-5f" x="100"/>
      <use xlink:href="#SimSun-44" x="150"/>
      <use xlink:href="#SimSun-55" x="200"/>
     </g>
    </g>
    <g id="line2d_22">
     <path d="M 83.4125 96.031 
L 99.4125 96.031 
L 115.4125 96.031 
" style="fill: none; stroke-dasharray: 6.4,1.6,1,1.6; stroke-dashoffset: 0; stroke: #ff0000"/>
     <g>
      <use xlink:href="#m23d35492fa" x="99.4125" y="96.031" style="fill: #ff0000; stroke: #ff0000"/>
     </g>
    </g>
    <g id="text_17">
     <!-- FF_DP -->
     <g transform="translate(128.2125 101.631) scale(0.16 -0.16)">
      <defs>
       <path id="SimSun-50" d="M 950 2100 
L 950 450 
Q 950 350 1012 300 
Q 1075 250 1175 250 
L 1350 250 
L 1350 100 
L 150 100 
L 150 250 
L 325 250 
Q 450 250 500 300 
Q 550 350 550 450 
L 550 4025 
Q 550 4125 500 4175 
Q 450 4225 325 4225 
L 175 4225 
L 175 4375 
L 1650 4375 
Q 2275 4375 2612 4062 
Q 2950 3750 2950 3275 
Q 2950 2700 2587 2400 
Q 2225 2100 1725 2100 
L 950 2100 
z
M 1575 2250 
Q 1950 2250 2237 2475 
Q 2525 2700 2525 3250 
Q 2525 3750 2287 3987 
Q 2050 4225 1525 4225 
L 1175 4225 
Q 1075 4225 1012 4175 
Q 950 4125 950 4025 
L 950 2250 
L 1575 2250 
z
" transform="scale(0.015625)"/>
      </defs>
      <use xlink:href="#SimSun-46"/>
      <use xlink:href="#SimSun-46" x="50"/>
      <use xlink:href="#SimSun-5f" x="100"/>
      <use xlink:href="#SimSun-44" x="150"/>
      <use xlink:href="#SimSun-50" x="200"/>
     </g>
    </g>
    <g id="line2d_23">
     <path d="M 83.4125 117.656 
L 99.4125 117.656 
L 115.4125 117.656 
" style="fill: none; stroke-dasharray: 6.4,1.6,1,1.6; stroke-dashoffset: 0; stroke: #2e8b57"/>
     <g>
      <use xlink:href="#m0290748f4a" x="99.4125" y="117.656" style="fill: #2e8b57; stroke: #2e8b57; stroke-linejoin: bevel"/>
     </g>
    </g>
    <g id="text_18">
     <!-- BF_DU -->
     <g transform="translate(128.2125 123.256) scale(0.16 -0.16)">
      <defs>
       <path id="SimSun-42" d="M 100 100 
L 100 250 
L 300 250 
Q 425 250 475 300 
Q 525 350 525 450 
L 525 4025 
Q 525 4125 475 4175 
Q 425 4225 300 4225 
L 150 4225 
L 150 4375 
L 1600 4375 
Q 2200 4375 2487 4137 
Q 2775 3900 2775 3400 
Q 2775 3050 2625 2825 
Q 2475 2600 2000 2425 
Q 2575 2250 2775 1925 
Q 2975 1600 2975 1200 
Q 2975 700 2625 400 
Q 2275 100 1675 100 
L 100 100 
z
M 1600 250 
Q 2025 250 2262 512 
Q 2500 775 2500 1250 
Q 2500 1800 2250 2062 
Q 2000 2325 1500 2325 
L 925 2325 
L 925 450 
Q 925 350 987 300 
Q 1050 250 1150 250 
L 1600 250 
z
M 2350 3400 
Q 2350 3850 2100 4037 
Q 1850 4225 1450 4225 
L 1150 4225 
Q 1050 4225 987 4175 
Q 925 4125 925 4025 
L 925 2475 
L 1575 2475 
Q 1850 2475 2100 2700 
Q 2350 2925 2350 3400 
z
" transform="scale(0.015625)"/>
      </defs>
      <use xlink:href="#SimSun-42"/>
      <use xlink:href="#SimSun-46" x="50"/>
      <use xlink:href="#SimSun-5f" x="100"/>
      <use xlink:href="#SimSun-44" x="150"/>
      <use xlink:href="#SimSun-55" x="200"/>
     </g>
    </g>
    <g id="line2d_24">
     <path d="M 83.4125 139.281 
L 99.4125 139.281 
L 115.4125 139.281 
" style="fill: none; stroke-dasharray: 6.4,1.6,1,1.6; stroke-dashoffset: 0; stroke: #ff8c00"/>
     <g>
      <use xlink:href="#me79f0e2723" x="99.4125" y="139.281" style="fill: #ff8c00; stroke: #ff8c00; stroke-linejoin: miter"/>
     </g>
    </g>
    <g id="text_19">
     <!-- BF_DP -->
     <g transform="translate(128.2125 144.881) scale(0.16 -0.16)">
      <use xlink:href="#SimSun-42"/>
      <use xlink:href="#SimSun-46" x="50"/>
      <use xlink:href="#SimSun-5f" x="100"/>
      <use xlink:href="#SimSun-44" x="150"/>
      <use xlink:href="#SimSun-50" x="200"/>
     </g>
    </g>
    <g id="line2d_25">
     <path d="M 83.4125 160.906 
L 99.4125 160.906 
L 115.4125 160.906 
" style="fill: none; stroke-dasharray: 6.4,1.6,1,1.6; stroke-dashoffset: 0; stroke: #9370db"/>
     <g>
      <use xlink:href="#m433df38c8b" x="99.4125" y="160.906" style="fill: #9370db; stroke: #9370db; stroke-linejoin: miter"/>
     </g>
    </g>
    <g id="text_20">
     <!-- WF_DU -->
     <g transform="translate(128.2125 166.506) scale(0.16 -0.16)">
      <defs>
       <path id="SimSun-57" d="M 3150 4375 
L 3150 4225 
L 3050 4225 
Q 3000 4225 2937 4175 
Q 2875 4125 2850 4000 
L 2175 100 
L 2025 100 
L 1625 2750 
L 1575 2750 
L 1050 100 
L 900 100 
L 300 4025 
Q 300 4125 262 4175 
Q 225 4225 150 4225 
L 50 4225 
L 50 4375 
L 925 4375 
L 925 4225 
L 850 4225 
Q 750 4225 700 4175 
Q 650 4125 650 4025 
L 1050 1275 
L 1100 1275 
L 1525 3350 
L 1450 4025 
Q 1450 4125 1387 4175 
Q 1325 4225 1275 4225 
L 1200 4225 
L 1200 4375 
L 2050 4375 
L 2050 4225 
L 1975 4225 
Q 1875 4225 1837 4175 
Q 1800 4125 1800 4025 
L 2175 1350 
L 2225 1350 
L 2675 3975 
Q 2700 4100 2637 4162 
Q 2575 4225 2475 4225 
L 2400 4225 
L 2400 4375 
L 3150 4375 
z
M 1775 4225 
L 1775 4225 
z
M 1425 4225 
L 1425 4225 
z
M 2900 4225 
L 2900 4225 
z
M 2725 4225 
L 2725 4225 
z
M 625 4225 
L 625 4225 
z
M 275 4225 
L 275 4225 
z
" transform="scale(0.015625)"/>
      </defs>
      <use xlink:href="#SimSun-57"/>
      <use xlink:href="#SimSun-46" x="50"/>
      <use xlink:href="#SimSun-5f" x="100"/>
      <use xlink:href="#SimSun-44" x="150"/>
      <use xlink:href="#SimSun-55" x="200"/>
     </g>
    </g>
    <g id="line2d_26">
     <path d="M 83.4125 182.531 
L 99.4125 182.531 
L 115.4125 182.531 
" style="fill: none; stroke-dasharray: 6.4,1.6,1,1.6; stroke-dashoffset: 0; stroke: #a0522d"/>
     <g>
      <use xlink:href="#mdf0f687a9c" x="99.4125" y="182.531" style="fill: #a0522d; stroke: #a0522d; stroke-linejoin: miter"/>
     </g>
    </g>
    <g id="text_21">
     <!-- WF_DP -->
     <g transform="translate(128.2125 188.131) scale(0.16 -0.16)">
      <use xlink:href="#SimSun-57"/>
      <use xlink:href="#SimSun-46" x="50"/>
      <use xlink:href="#SimSun-5f" x="100"/>
      <use xlink:href="#SimSun-44" x="150"/>
      <use xlink:href="#SimSun-50" x="200"/>
     </g>
    </g>
    <g id="line2d_27">
     <path d="M 83.4125 204.156 
L 99.4125 204.156 
L 115.4125 204.156 
" style="fill: none; stroke-dasharray: 6.4,1.6,1,1.6; stroke-dashoffset: 0; stroke: #008b8b"/>
     <g>
      <use xlink:href="#mc86136fe71" x="99.4125" y="204.156" style="fill: #008b8b; stroke: #008b8b"/>
     </g>
    </g>
    <g id="text_22">
     <!-- BF_FF_DP -->
     <g transform="translate(128.2125 209.756) scale(0.16 -0.16)">
      <use xlink:href="#SimSun-42"/>
      <use xlink:href="#SimSun-46" x="50"/>
      <use xlink:href="#SimSun-5f" x="100"/>
      <use xlink:href="#SimSun-46" x="150"/>
      <use xlink:href="#SimSun-46" x="200"/>
      <use xlink:href="#SimSun-5f" x="250"/>
      <use xlink:href="#SimSun-44" x="300"/>
      <use xlink:href="#SimSun-50" x="350"/>
     </g>
    </g>
   </g>
  </g>
 </g>
 <defs>
  <clipPath id="p543ebe8cf8">
   <rect x="69.0125" y="7.2" width="357.12" height="266.112"/>
  </clipPath>
 </defs>
</svg>
